<?xml version="1.0" encoding="utf-8"?>
<!-- Generator: Adobe Illustrator 19.0.0, SVG Export Plug-In . SVG Version: 6.00 Build 0)  -->
<svg version="1.1" id="Layer_1" xmlns="http://www.w3.org/2000/svg" xmlns:xlink="http://www.w3.org/1999/xlink" x="0px" y="0px"
	 viewBox="0 0 512 512" style="enable-background:new 0 0 512 512;" xml:space="preserve">
<style type="text/css">
	.st0{fill:#E65B25;}
	.st1{fill:#FFFFFF;}
	.st2{fill:#070909;}
</style>
<path class="st0" d="M256,0C161.7,0,85.3,76.4,85.3,170.7S161.7,341.3,256,341.3V512l151.1-262c12.5-23.7,19.6-50.7,19.6-79.4
	C426.7,76.4,350.3,0,256,0z"/>
<path class="st1" d="M409.6,170.7c0,84.8-68.8,153.6-153.6,153.6s-153.6-68.8-153.6-153.6S171.2,17.1,256,17.1
	S409.6,85.8,409.6,170.7z"/>
<path id="XMLID_12_" class="st2" d="M151.9,174.2l25.8-60.2c0,0,23.1-23.9,43.8-24.6l86.1,4.5c0,0,25.1,3.2,32.9,12.4l5.7,6.2
	l16.1,0.6l3.2-6.7l7.7-1.6v13.6c0,0-5.6,6,0,11.9c0,0-2.3,21.2,10.3,36.7c0,0,4.3,5.8,0,8.8s-16.3-1.5-16.3-1.5s-5.6-12.4-32.1-10.8
	l-16.6,2l1.7,11.6c0,0,17.3-2,17.6,12.9c0.3,14.9-0.3,35.8-0.3,35.8s-7,1.3-8.6-1.7s-1.7-3-1.7-3l-0.3-15.9l2.7-8.3
	c0,0-9-12.9-14.6-15.3l-9.6-7.6c0,0-6-6.3-9.6,0l0.3,9c0,0,4,36.2,14.3,40.5s10.3,4.3,10.3,4.3l-1.3,5h-13.3
	c0,0-25.6-41.1-24.6-44.8c1-3.7-1.7-19.9-1.7-19.9h-34.5c0,0-8,25.6,11.3,45.5l14.9,1c0,0,9,11,5,11.3c-4,0.3-19.9-1-19.9-1
	s-32.9-32.9-26.9-52.4l-3-1.3l-0.7-5.6c2,0.4-9.7-10.3-21.2,0l-11.3,11.6l-13.9,5c0,0-8,23.6,0,30.9l4.6,1.3v7.3l-11.3-1
	c0,0-16.6-24.6-4.6-43.1l3.7-2.3l-4.6-9.6C167.2,165.5,151.6,194.3,151.9,174.2z M151.9,230.1h-19.3v6h19.3V230.1z M195,233.1h-21.9
	v7H195V233.1z M228.1,244.7h-15.3v5.3h15.3V244.7z M252.7,232.8h-13.3v7.2h13.3V232.8z M276.6,236.1h-7.9v4h7.9V236.1z"/>
</svg>
