<?xml version="1.0" encoding="utf-8"?>
<!-- Generator: Adobe Illustrator 19.0.0, SVG Export Plug-In . SVG Version: 6.00 Build 0)  -->
<svg version="1.1" id="Layer_1" xmlns="http://www.w3.org/2000/svg" xmlns:xlink="http://www.w3.org/1999/xlink" x="0px" y="0px"
	 viewBox="0 0 512 512" style="enable-background:new 0 0 512 512;" xml:space="preserve">
<style type="text/css">
	.st0{fill:#E65B25;}
	.st1{fill:#FFFFFF;}
	.st2{fill:#010101;}
</style>
<path class="st0" d="M256,0C161.7,0,85.3,76.4,85.3,170.7S161.7,341.3,256,341.3V512l151.1-262c12.5-23.7,19.6-50.7,19.6-79.4
	C426.7,76.4,350.3,0,256,0z"/>
<path class="st1" d="M409.6,170.7c0,84.8-68.8,153.6-153.6,153.6s-153.6-68.8-153.6-153.6S171.2,17.1,256,17.1
	S409.6,85.8,409.6,170.7z"/>
<path class="st2" d="M329.5,226.3c-12.5-15.5-5.3-43.8-5.3-43.8c-7.9,1.7-13.8,13.3-16.3,19.2c-1.4,3.3-5,5.3-8.5,4.4
	c-6.2-1.6-7.2-10.6-7.3-13c-0.2-3.6,4-15.6,11.1-29.8c7.1-14.3,4.9-28.1,2.2-37.4s-20.5-26.7-32.5-41c-12-14.3,0-37.9,0-37.9
	c-29.3,16.1-21.8,46-13.5,59.7c8.4,13.7,10.4,20.7,10,29.7c-0.3,9-7.7,20.7-23.7,17c-16-3.7-15-24.4-15-24.4
	c-6.2,4.4-8,11.6-8.2,17.9c-0.2,6.9,2.7,13.5,7.9,18.2c9.1,8.3,23.7,24.3,13.4,34.1c-14.4,13.7-22.4,0.3-22.4,0.3s1-10-5-20.7
	c-6-10.7-22-11.4-22-11.4c8.7,17.4,10.7,22,0.7,31.4c-10,9.4-14,20.7-14,20.7c-8,21-0.7,48.1,29.4,70.8s71.1,15.9,102.2-3.3
	C330.6,275.8,340.6,240,329.5,226.3z M294.2,278.2c-11.6,15.1-49.5,17-63.7,5.3c-16-13.1-15.7-35.3-13.8-44.5
	c2.5-12,10.5-17.8,17.4-0.4c5.3,13.4,17.8,15.6,20.9,8c2.1-5-1.6-13.4-4.2-18.5c-2.6-5-3.6-10.7-2.6-16.3c3-17,20.2-22.3,20.2-22.3
	c-1.7,3.3-2.1,7.5-2.1,11.5c0.1,7.1,3,13.9,8.2,18.9c6.4,6.2,15.8,15.3,19.8,19.3C300.4,245.5,305.8,263,294.2,278.2z M233.6,86.6
	c0,0,2.7,22.7,0,26.1C231,116,210.6,103.7,233.6,86.6z M203.1,127.6c0,0-0.9,13.8,4,18.5c4.9,4.7,4.6,6.9,4.5,8.5
	c-0.5,4.6-8.6,6.1-12.2,0C196,148,192.2,137.9,203.1,127.6z M331.8,152.5c-1.7,6.3-9,6.7-10.4,0c-1.3-6.7,5.3-22.4,5.3-22.4
	S333.5,146.1,331.8,152.5z M286.3,59.7c-5.7,4.5-11.9-2.7-11.9-2.7l3.4-2.2c2.1-1.4,3.5-3.7,3.5-6.2c0-3.6,0.8-8.8,4.5-11
	c6-3.6,12.5,3.3,12.5,3.3C285,38.2,292,55.3,286.3,59.7z M254,128.9c0,3.6-1.4,6.5-3.2,6.5s-3.2-2.9-3.2-6.5c0-3.6,1.4-6.5,3.2-6.5
	S254,125.3,254,128.9z"/>
</svg>
