<?xml version="1.0" encoding="utf-8"?>
<!-- Generator: Adobe Illustrator 19.0.0, SVG Export Plug-In . SVG Version: 6.00 Build 0)  -->
<svg version="1.1" id="Layer_1" xmlns="http://www.w3.org/2000/svg" xmlns:xlink="http://www.w3.org/1999/xlink" x="0px" y="0px"
	 viewBox="0 0 512 512" style="enable-background:new 0 0 512 512;" xml:space="preserve">
<style type="text/css">
	.st0{fill:#E65B25;}
	.st1{fill:#FFFFFF;}
</style>
<path class="st0" d="M256,0C161.7,0,85.3,76.4,85.3,170.7S161.7,341.3,256,341.3V512l151.1-262c12.5-23.7,19.6-50.7,19.6-79.4
	C426.7,76.4,350.3,0,256,0z"/>
<path class="st1" d="M409.6,170.7c0,84.8-68.8,153.6-153.6,153.6s-153.6-68.8-153.6-153.6S171.2,17.1,256,17.1
	S409.6,85.8,409.6,170.7z"/>
<path d="M191.4,260.9c-4.6,0.5-8,1-11.5,1.1c-1,0-2.6-0.6-2.9-1.4c-2.1-5.3-4.5-10.6-5.9-16.2c-1.7-6.8-2.6-13.8-3.8-20.9
	c-7.3,2.9-10.9,7.6-10.5,15c0,0.6,0,1.3-0.1,1.9c-0.5,8-5.1,16.8,5.4,22.1c-3.3,2.4-13,3.6-14,1.8c-1.6-3-3.2-6.5-3.1-9.7
	c0.1-10.5,1.2-20.9,1.5-31.4c0.1-2.8-1.2-5.7-2.1-8.5c-1.8-5.8-3.9-11.5-5.3-17.4c-0.7-3.1-0.3-6.5-0.1-9.7
	c0.4-9.6-0.4-18.9-4.4-27.9c-3-6.8-2-13.9,0.9-20.8c8.4-19.7,28.5-31.4,51.8-30.5c21,0.8,42,1.3,63,2c12.6,0.4,25.2,1,37.8,1.3
	c2.3,0.1,5.1-0.4,6.8-1.7c11.3-8.6,22.3-17.5,33.9-26.6c-0.1-0.3-0.9-1.6-1.1-3c-0.2-1.5-0.1-4.1,0.5-4.3c1.6-0.5,4.2-0.7,5.3,0.2
	c2.5,2.2,4.2,5.2,6.5,7.7c1.2,1.3,2.8,2.7,4.4,2.9c6.4,0.9,11.9,3.6,16.3,8c6.9,6.8,13.4,14.1,19.7,21.5c2.1,2.5,3.4,5.8,4.5,9
	c1.4,3.9,0.1,5.8-3.7,8.7c-6.6,5-11.9,2.8-18.2,0.9c-12.8-3.9-14.3-3-16,10.3c-1.8,13.8-3.9,27.5-9.5,40.4
	c-5.1,11.7-12,21.8-23.8,27.8c-4.1,2.1-6.3,5.6-6.4,10.6c-0.1,6.9-0.8,13.9-1.5,20.8c-0.3,3.3,0.3,5.8,3.1,8.1
	c2,1.7,3.2,4.2,4.9,6.5c-10.3,5-18.8,0.2-19.3-10.3c-0.3-7.3-0.5-14.5-0.7-21.8c-0.1-1.5-0.2-3.1-0.4-5.6c-8,5.3-6.1,13.7-8.8,20.1
	c-3.2,7.8,1.5,13.9,4.4,21.4c-3.6,0-6.4-0.3-9.1,0.1c-4.3,0.5-3.8-3-5.4-5.2c-3.8-5.2-2.3-10.3-1.3-15.7c0.6-3.3,0.9-6.7,1.7-10
	c2-7.8-2.5-12.6-7.6-16.9c-1.3-1.1-4-1-6-0.8c-17.3,2-34.6,1.4-51.8-1.2c-4.3-0.7-8.6-1.5-12.9-2.4c-9-1.9-14.7,0.9-14.9,10
	c-0.3,9.7,1.6,19.5,3.3,29.1C185.6,253.9,188.7,256.7,191.4,260.9z"/>
</svg>
