<?xml version="1.0" encoding="utf-8"?>
<!-- Generator: Adobe Illustrator 19.0.0, SVG Export Plug-In . SVG Version: 6.00 Build 0)  -->
<svg version="1.1" id="Layer_1" xmlns="http://www.w3.org/2000/svg" xmlns:xlink="http://www.w3.org/1999/xlink" x="0px" y="0px"
	 viewBox="0 0 512 512" style="enable-background:new 0 0 512 512;" xml:space="preserve">
<style type="text/css">
	.st0{fill:#E65B25;}
	.st1{fill:#FFFFFF;}
	.st2{fill:#09090A;}
</style>
<path class="st0" d="M256,0C161.7,0,85.3,76.4,85.3,170.7S161.7,341.3,256,341.3V512l151.1-262c12.5-23.7,19.6-50.7,19.6-79.4
	C426.7,76.4,350.3,0,256,0z"/>
<path class="st1" d="M409.6,170.7c0,84.8-68.8,153.6-153.6,153.6s-153.6-68.8-153.6-153.6S171.2,17.1,256,17.1
	S409.6,85.8,409.6,170.7z"/>
<path id="XMLID_28_" class="st2" d="M285.5,85.4c-5.7-4.2-5.2,4.7-5.2,4.7l6.7,23.6l-45.5-0.6c-2.3-8.3-3.8-13.5-3.9-14.1
	c-0.8-2.8-5.7-1.4-8.1-0.5v-9.2L272.1,58l-38.6-2.1c0,0-20.3,17.2-27.6,1l-29.7-3.1v208l15.1-20.3l3.1,28.2l12.5,19.8L209,252
	l24.5-25l36.1,29.4l7.8,29.8c7,5.2,10.2,0,10.2,0l-2.3-16.2c0,0-1.8-6.5-4.7-17H326l-2.1-9.4l10.1,35.7c5.7,6.8,7.8-3.6,7.8-3.6
	L285.5,85.4z M258,172l43.2-0.6l4.7,19.4h-42.7C261.5,184.6,259.7,178.3,258,172z M264.7,196.1h44.7l5.3,26.5h-42.6
	C269.7,214.3,267.2,205.3,264.7,196.1z M301.6,165.2h-45.6c-2.3-8.1-4.5-16-6.5-23.3l44.9,0l4.6,14.3L301.6,165.2z M285.7,117.9
	l5.2,19.8l-42.6-0.6c-2.1-7.4-3.9-14.1-5.5-19.8L285.7,117.9z M248.1,199.8l-18.6-94.4v-1.6l32.2,122.2L248.1,199.8z M279.4,248.9
	c-0.6-2.2-1.3-4.5-1.9-6.9l-2.7-14.9h41.2l4.8,21.8H279.4z"/>
</svg>
