<?xml version="1.0" encoding="utf-8"?>
<!-- Generator: Adobe Illustrator 19.0.0, SVG Export Plug-In . SVG Version: 6.00 Build 0)  -->
<svg version="1.1" id="Layer_1" xmlns="http://www.w3.org/2000/svg" xmlns:xlink="http://www.w3.org/1999/xlink" x="0px" y="0px"
	 viewBox="0 0 512 512" style="enable-background:new 0 0 512 512;" xml:space="preserve">
<style type="text/css">
	.st0{fill:#E65B25;}
	.st1{fill:#FFFFFF;}
	.st2{fill:#070909;}
</style>
<path class="st0" d="M256,0C161.7,0,85.3,76.4,85.3,170.7S161.7,341.3,256,341.3V512l151.1-262c12.5-23.7,19.6-50.7,19.6-79.4
	C426.7,76.4,350.3,0,256,0z"/>
<path class="st1" d="M409.6,170.7c0,84.8-68.8,153.6-153.6,153.6s-153.6-68.8-153.6-153.6S171.2,17.1,256,17.1
	S409.6,85.8,409.6,170.7z"/>
<path class="st2" d="M165,257.1c23.5,24.3,52.8,39.4,76.4,39.4c12,0,22.4-3.7,29.5-11.2c12.4-13.1,23.9-39.4,26.9-71.3
	c1-10.5,3.8-20.7,9.1-29.8c9-15.5,10.4-33.7,3.7-48.6l23.3-23.7c7.6,7.7,20.8,6.7,28.3-2.8c5.2-6.6,5.9-16,1.5-22.6
	c-4.1-6.1-10.8-8.5-17.4-7.5c1.5-7-0.7-14.4-6.9-18.9c-6.5-4.7-16-4.1-22.7,1.3c-9.3,7.6-10.4,21-2.8,28.7l-23.6,23.9
	c-14-7.6-31.5-7.7-47.1-0.7c-12.9,5.8-26.8,9.1-40.8,11.1c-15.1,2.1-30.5,6.9-44.8,14c-7.5,1.6-13.9,5-19,10.1
	C116.4,171.1,127.9,218.7,165,257.1z M149.2,159.3c4.5-4.5,10.9-6.8,19.1-6.8c19.8,0,45.1,13.4,65.9,34.9
	c15.4,15.9,26.4,34.2,31.1,51.4c4.2,15.7,2.6,28.4-4.7,35.7c-4.5,4.5-10.9,6.8-19.1,6.8c-19.8,0-45.1-13.4-65.9-34.9
	C145.4,215.2,133.3,175.3,149.2,159.3z M219.7,234.8c5.2-5.2,2.1-16.9-6.8-25.9c-8.9-9.1-20.4-12.2-25.6-6.9
	c-5.2,5.2-2.1,16.9,6.8,25.9C203.1,236.9,214.5,240,219.7,234.8z"/>
</svg>
