<?xml version="1.0" encoding="utf-8"?>
<!-- Generator: Adobe Illustrator 19.0.0, SVG Export Plug-In . SVG Version: 6.00 Build 0)  -->
<svg version="1.1" id="Layer_1" xmlns="http://www.w3.org/2000/svg" xmlns:xlink="http://www.w3.org/1999/xlink" x="0px" y="0px"
	 viewBox="0 0 512 512" style="enable-background:new 0 0 512 512;" xml:space="preserve">
<style type="text/css">
	.st0{fill:#E65B25;}
	.st1{fill:#FFFFFF;}
</style>
<g>
	<path class="st0" d="M256,0C161.7,0,85.3,76.4,85.3,170.7S161.7,341.3,256,341.3V512l151.1-262c12.5-23.7,19.6-50.7,19.6-79.4
		C426.7,76.4,350.3,0,256,0z"/>
	<path class="st1" d="M409.6,170.7c0,84.8-68.8,153.6-153.6,153.6s-153.6-68.8-153.6-153.6S171.2,17.1,256,17.1
		S409.6,85.8,409.6,170.7z"/>
</g>
<path id="XMLID_1_" d="M312,205.2V233h-93.4v-27.7c0-25.8,20.9-46.7,46.7-46.7h0C291.1,158.5,312,179.4,312,205.2z M318.3,230.7
	v-26.2c0-4.3-0.5-8.4-1.5-12.4c-0.4-0.7-1.7-4.7-2.5-7.9c0,0.1,0,0.1,0,0.2c-4.6-11.1-12.8-20.3-23.2-26.1c0.3-4.2,1.2-9.7,1-11.7
	c-0.1-0.6-2.8-1.5-3-1.3c-2,2.7-3.9,5.6-6.2,9.3c-5.5-1.9-11.3-3-17.5-3h0c-5.2,0-10.3,0.8-15,2.2c-0.1,0-0.2,0-0.3,0
	c0.8-1.3,12-44,9.4-44.1c-2,2.1-13.3,22.6-14,27c-0.7,4.1-3,3.4-5.6,3.4c-1.2,0-2.4,0.8-3.6,1.3c0.7,0.8,3.9,6.6,2.3,11.1
	c-0.2,0.5-0.8,2.5-1.7,4.6c-0.9,2.4-3.1,3.9-4.5,6c-5,7.1-8.7,9.6-11.6,12.8c-4.4,8.5-9.7,11.9-14.1,12.2
	c2.9-0.8,14.6-19.5,20.5-27.1c0.2-0.3,0-2,0.3-3c0.8-2.3,2.3-4.4,2.6-6.7c0.7-4.5,0.9-9.1,1.2-13.7c0-0.1-4.4-0.9-3.5-0.3
	c-3.1,16-12.4,42.7-26.9,53.3c-2.5-0.6-3.4,4.6-5.7,5.6c-4.1,1.7-2.4,4.7-2.8,7.3c2.6,0,5.9,1,7.6-0.2c4.5-3.3,12.7-11.9,14.4-13.6
	c-1.4,4.7-2.1,9.7-2.1,14.8v26.7c-1.1,0-2.6-0.1-4.4-0.1c-27.5,0-55-0.1-82.4-0.1c-0.7,0-1.3-0.3-2.2-0.5c0.5-3.1-1.4-6.1,3.2-8.7
	c3.1-1.8,4.1-7.4,6.5-12.1c0.7-0.1,1.9-10.9,6.4-13.9c1-0.6,5.8-4,7.9-4c5.3-0.1,9.2-3.4,10.9-8.5c0.5-1.5,1.9-2.6,2.9-3.9
	c0.6-0.8,1.8-1.6,1.7-2.3c-0.5-8.1,7.3-11.9,9.5-19c1.3-4,4.2-7.6,6.1-11.7c1.8-3.7,4.8-6.7,8.7-8.2l0.7-0.3
	c-7.1-13.5,6.4-36.7,19.3-36.4c0.3-0.4,0.6-0.8,0.9-1.3c4.8-6.7,10.5-3.9,16.3-3.8c2.7,0.1,20.7-16.4,24.8-20.2
	c0.2-0.2,0.5-0.4,0.8-0.6c3.3-4.8,9.2-9.6,13-10.3c3.1-0.6,5.8-0.1,8.3,0.9c6.6,2.4,11.9,7.5,14.9,13.8c1.4,3,3.2,5.9,5.2,8.7
	c2.1,2.8,0.7,7.3,4.8,9.6c2.9,1.6,5.4,4.1,7.9,6.4c2,1.9,3.7,4.3,5.6,6.3c0.9,0.9,2.2,2.1,3,2.2c9.5,1.5,18.5,11.4,19.1,12.6
	c0.7,1.7,9.8,18.3,9,26.1c-0.7,6.7,4.3,12.4,8.7,17.3c1.2,1.3,13.9,8.9,16,13.5c2.7,5.9,9.7,8.7,10.2,16.3c0.1,2.4,4.7,4.5,6.8,6.3
	c1.9,3.6,4.3,6.6,5.1,10.1c1,4.7,0.7,9.6,1,14.9H318.3z M151.4,206.3c-5.9,3.4-7.3,9.8-10.6,14.9c0.2,0.4,1.1,0.3,1.7,0.5
	c0.8,0.1,1.5,0.1,2.3,0.1c3.2-0.2,6.5,0.9,7.7-1.8C160.5,201.7,155.7,203.3,151.4,206.3z M161.5,198.3c-0.5-1-1.8-1.2-2.5-0.4
	l-0.5,0.4c-1,1-1.2,2.5-0.4,3.7l0.3,0.5c0.6,0.9,1.9,1,2.6,0.1c0.5-0.7,1-1.4,1.1-2.2C162.2,199.8,161.9,199,161.5,198.3z
	 M192.2,150.8c0-1.6,0.3-3.2-0.1-4.6c-0.3-0.8-15.9,19.7-16.4,22.1c1.1,0.2,2.6,0.9,3.2,0.4c2.4-2,4.2-4.8,6.8-6.5
	C189.8,159.4,192.6,156.1,192.2,150.8z M207.9,109.3c-0.5-0.4-0.9-0.7-1.3-1.1c-8.2,4.6-15.6,19.2-15.5,28.6l3.9-1.5
	c2.3-3.4,4.3-6.1,6-8.9c0.5-0.8,0.5-2,0.5-3c-0.3-5,3.1-7.5,6.5-10C210.2,111.8,209.9,110.8,207.9,109.3z M260.8,73
	c-3.5,1.9-7.1,4.6-8.9,7.4c-0.3,0.8-0.7,1.6-1,2.4l0,0c0,0,0,0,0,0c0,0,0,0.1,0,0.1c-8.8,11.5-19.7,30.6-19.8,39.7
	c0,1.7,2.1,2.6,3.3,1.3c5.8-6.2,19-23.9,19.3-26.4c0.3-2.2,0.4-4.5,0.4-6.7c0.1-4.9,3.2-6.2,3.3-0.1c0,2.6,0.3,5.2,0.6,7.8
	c0.1,0.8,1,2,1.6,2.1c0.7,0.1,2-0.5,2.3-1.3c1.9-4.5,3.2-15.3,4.2-22.4C266.6,73.7,263.4,71.5,260.8,73z M289.8,92.9
	c-3.6,1.8-5.1,17.3-5,19.1c0.3,6,3.2,14.3,3.4,20.4c0,1,1.3,2,2,3c0.7-0.9,2.1-1.8,2.2-2.7C292.4,122.3,289.8,105.3,289.8,92.9z
	 M318.4,189.3c0.2-5.6,0.2-11.2,0.1-16.8c0-0.7-1.1-1.4-1.7-2.2c-0.7,0.8-1.9,1.5-2.1,2.4c-0.4,2.7-0.4,5.5-0.5,8.2
	c0.1,0,0.1,0,0.2,0c0,0.2,0,0.4,0,0.6c1.2,2.2,2.7,6.3,3.1,9.1C318,190.2,318.4,189.8,318.4,189.3z"/>
</svg>
