<?xml version="1.0" encoding="utf-8"?>
<!-- Generator: Adobe Illustrator 19.0.0, SVG Export Plug-In . SVG Version: 6.00 Build 0)  -->
<svg version="1.1" id="Layer_1" xmlns="http://www.w3.org/2000/svg" xmlns:xlink="http://www.w3.org/1999/xlink" x="0px" y="0px"
	 viewBox="0 0 512 512" style="enable-background:new 0 0 512 512;" xml:space="preserve">
<style type="text/css">
	.st0{fill:#E65B25;}
	.st1{fill:#FFFFFF;}
	.st2{fill:#010101;}
</style>
<path class="st0" d="M256,0C161.7,0,85.3,76.4,85.3,170.7S161.7,341.3,256,341.3V512l151.1-262c12.5-23.7,19.6-50.7,19.6-79.4
	C426.7,76.4,350.3,0,256,0z"/>
<path class="st1" d="M409.6,170.7c0,84.8-68.8,153.6-153.6,153.6s-153.6-68.8-153.6-153.6S171.2,17.1,256,17.1
	S409.6,85.8,409.6,170.7z"/>
<path class="st2" d="M129.2,124.5l27.5-37.7c0,0,35,23.2,60.9,22.3c26-0.9,37.1,5.3,48.3,15.5c8,7.4,24.5,22.2,33.2,30
	c2.9,2.6,2.9,7.3,0,9.9l0,0c-2.4,2.1-5.9,2.3-8.5,0.4l-37.4-28.3c-3.6-2.7-7.9-4.4-12.4-4.8c-7.3-0.6-18.2,0.7-28.1,10.7
	c-16.7,17,7.4,36.2,7.4,36.2l13.1,13.7c2.9,3.1,3.7,7.7,2,11.6l-3.9,8.7l-36.2-29c-2-1.6-4.2-3-6.4-4.2c-7.2-3.8-24.1-13-31-19.9
	C148.7,150.5,129.8,132.6,129.2,124.5z M235.5,139.7l49.6,45c3.7,6.7,15,0.5,11.3-6.3l-55.8-43.2
	C237.9,132.2,232.8,136.6,235.5,139.7z M263.4,183.5c3,6.6,11.5,2.8,8.5-3.8l-43.2-38.9c-0.6-0.7-5.4,3.2-4.9,3.9L263.4,183.5z
	 M214.6,154.9l27.5,28.6c4,6.9,12.4,2,8.5-4.9l-31.1-30.2c-1.9-2.6-6.5,0.8-4.6,3.4C213.9,152.6,213.7,154,214.6,154.9z
	 M286.6,252.4h28.8v-32.5h16.5c0.8,0,1.4-0.8,1.2-1.5c-1.6-6.3-9.1-30-32.6-30c-23.5,0-31.2,24.1-32.8,30.5
	c-0.2,0.8,0.4,1.6,1.2,1.6h17.2L286.6,252.4z M351.4,251.3h17.5v-19.7h9.4c0.8,0,1.4-0.8,1.2-1.6c-1.3-4.6-6.1-17.6-19.6-17.6
	c-13.6,0-18.5,13.2-19.8,17.9c-0.2,0.8,0.4,1.6,1.2,1.6h9.8L351.4,251.3z"/>
</svg>
