<?xml version="1.0" encoding="utf-8"?>
<!-- Generator: Adobe Illustrator 19.0.0, SVG Export Plug-In . SVG Version: 6.00 Build 0)  -->
<svg version="1.1" id="Layer_1" xmlns="http://www.w3.org/2000/svg" xmlns:xlink="http://www.w3.org/1999/xlink" x="0px" y="0px"
	 viewBox="0 0 512 512" style="enable-background:new 0 0 512 512;" xml:space="preserve">
<style type="text/css">
	.st0{fill:#E65B25;}
	.st1{fill:#FFFFFF;}
</style>
<path class="st0" d="M256,0C161.7,0,85.3,76.4,85.3,170.7S161.7,341.3,256,341.3V512l151.1-262c12.5-23.7,19.6-50.7,19.6-79.4
	C426.7,76.4,350.3,0,256,0z"/>
<path class="st1" d="M409.6,170.7c0,84.8-68.8,153.6-153.6,153.6s-153.6-68.8-153.6-153.6S171.2,17.1,256,17.1
	S409.6,85.8,409.6,170.7z"/>
<path d="M163.8,112.3c0,17.9,0,35.8,0,53.7c1,0,2,0.1,3,0.1c1.5-13.7,2.9-27.3,4.4-41c0.5,0.1,0.9,0.1,1.4,0.2c0,12.2,0,24.4,0,37.2
	c2.2-0.4,3.3-0.4,4.2-0.7c27.8-11.4,55.6-22.8,83.3-34.4c5.3-2.2,10.5-5.1,15.1-8.5c6.7-5.1,7-11.9-0.2-16.3
	c-7.9-4.9-16.6-8.8-25.4-11.5c-12.1-3.7-24.6-6-36.8-9.5c30.2,0.7,60.1,3.7,90.9,11.3c0-9.8,0-18.9,0-28.1c0.6,0,1.2-0.1,1.8-0.1
	c0.8,7.2,1.7,14.4,2.5,21.5c0.3,0,0.6,0,0.9,0.1c2.3-11.4,4.5-22.9,6.8-34.3c0.4,0.1,0.8,0.1,1.1,0.2c-1,12.3-1.7,24.6-3,36.8
	c-0.6,5.5,1.2,8.4,6,11.1c12.8,7.2,14.2,17.2,3.5,27.4c-6.7,6.4-15.1,11-22.5,16.8c-5.6,4.4-11.5,8.6-16.2,13.9
	c-4.9,5.5-3,9.9,2.7,14.6c4,3.3,7.4,7.6,9.9,12.1c3.2,5.8,11.1,10.4,22.9,11.5c1.8-9.8,3.7-19.7,5.5-29.6c0.3,0,0.6,0.1,0.9,0.1
	c0,9.5,0,18.9,0,30.1c3-4.4,5.1-7.4,7.2-10.4c0.3,0.2,0.7,0.3,1,0.5c-0.4,1.1-0.9,2.3-1.3,3.4c-4.8,12.1-3.1,16.1,9.3,19.8
	c15.2,4.6,30.6,8.9,48.5,14.1c-11.2,10.2-20.5,20.2-31.4,28.3c-75.5,56-181.8,38.1-235.7-39.1c-4.7-6.7-5.1-11.6,1.2-16.7
	c8.5-6.9,17.3-13.6,25.5-20.9c2.7-2.4,4.1-6.3,5.5-9.8c0.7-1.9,0.3-4.4,0.2-6.6c-0.4-5.8-1.5-11.6-1.1-17.3c0.4-4.4,3.1-8.5,4-12.9
	c1.2-5.6,1.7-11.4,2.5-17.1C162.7,112.2,163.3,112.3,163.8,112.3z M233.1,164.7c0.6,0.7,1.1,1.3,1.7,2c-2.7,3.1-5.7,5.9-7.9,9.3
	c-4.9,7.3-3.3,14.6,4.3,19c8.8,5.1,17.7,10.1,26.6,15c1.4,0.8,3.2,0.9,4.7,1.3c0.5-0.8,1.1-1.5,1.6-2.3c-4.1-3.7-7.8-7.9-12.4-10.9
	c-3.6-2.4-8.1-3.4-12.3-4.8c-12.8-4.3-14.6-10.6-4.8-20.2c5.6-5.6,12.3-10.2,18.8-14.8c4.9-3.5,10.3-6.4,15.5-9.6
	c-0.3-0.6-0.7-1.2-1-1.7c-29.2,12.4-59.3,23.1-83.4,45.2c-2,1.8-3.7,4.1-5.1,6.4c-5,8.4-3.6,16.4,4.7,21.5
	c5.3,3.3,11.4,5.5,17.4,7.3c9.2,2.7,18.8,4.3,28,7c3.1,0.9,6.8,3.4,8,6.2c5,11.3,12.3,16.4,27.4,16.7c-5.7-2.8-10.2-4.7-14.3-7.2
	c-2.7-1.7-6.7-4.3-6.7-6.6c-0.4-12.1-9.4-14.7-18-17.5c-10.2-3.3-20.8-5.4-30.9-9.1c-13.2-4.8-15-11.9-4.3-21
	C204,184.5,218.9,175,233.1,164.7z M344.6,243.7c-26.9-0.8-51.3-9.2-74.2-22.8C290,245.1,317,245.5,344.6,243.7z"/>
</svg>
