<?xml version="1.0" encoding="utf-8"?>
<!-- Generator: Adobe Illustrator 19.0.0, SVG Export Plug-In . SVG Version: 6.00 Build 0)  -->
<svg version="1.1" id="Layer_1" xmlns="http://www.w3.org/2000/svg" xmlns:xlink="http://www.w3.org/1999/xlink" x="0px" y="0px"
	 viewBox="0 0 512 512" style="enable-background:new 0 0 512 512;" xml:space="preserve">
<style type="text/css">
	.st0{fill:#E65B25;}
	.st1{fill:#FFFFFF;}
</style>
<g>
	<path class="st0" d="M256,0C161.7,0,85.3,76.4,85.3,170.7S161.7,341.3,256,341.3V512l151.1-262c12.5-23.7,19.6-50.7,19.6-79.4
		C426.7,76.4,350.3,0,256,0z"/>
	<path class="st1" d="M409.6,170.7c0,84.8-68.8,153.6-153.6,153.6s-153.6-68.8-153.6-153.6S171.2,17.1,256,17.1
		S409.6,85.8,409.6,170.7z"/>
</g>
<path id="XMLID_9_" d="M387,215.6c-1.3-7.9-2.6-15.7-6.1-23c-0.9-2-1.9-4-2.8-6c-0.9,0.6-2,1.3-2.8,1.8c-1-1.2-1.8-2.4-2.7-3.5
	c-0.8-1.1-1.9-2.1-2.5-3.3c-1.4-3.4-3.5-6.1-6.5-8.1c-0.7-0.5-1.4-1.6-1.4-2.5c-0.2-5.4,0-10.8-0.2-16.2
	c-0.5-12.5-5.1-23.5-13.3-32.8c-12.5-14.1-29-20.3-47-23.6c-1.2-0.2-2.4-0.4-3.6-0.5c-5.3,0-10.6,0-16,0c-3.7,0.3-7.4,0.6-11.1,1
	c-12.6,1.5-25.4,1.5-37.7,5.6c-6.2,2-12-0.5-17.7-2.6c-1.3-0.5-2.9-0.8-4.3-0.5c-2.7,0.5-5.2,1.8-7.8,2.3
	c-8.1,1.4-16.3,2.4-24.4,3.7c-3.7,0.6-7.4,1.3-10.9,1.8c-1.2-2.2-2.1-4.2-3.3-6.1c-1.4-2.2-3.5-3.1-6.2-2.8
	c-5.3,0.6-7.6,2.9-8.7,8.7c-0.2,1-0.9,2.3-1.8,2.9c-5.9,4.3-11.1,9.4-14.9,15.7c-0.4,0.7-1,1.3-1.6,1.7c-3.2,2-4.7,4.9-5.2,8.5
	c-0.3,2.2-0.5,4.5-1.6,6.4c-2.4,4.4-5.2,8.6-7.9,12.9c0,0.7,0,1.4,0,2.1c1.9,1.1,3.7,2.4,5.7,3.1c4.4,1.6,8.7,4.8,13.6,1.2
	c0.4-0.3,1-0.4,1.5-0.5c3.6-0.6,7.1-1.3,10.7-1.7c2.5-0.3,4.7-0.5,6.5-2.7c0.8-1,2.6-1.8,4-1.9c5.3-0.4,10.3,1,15.8,2.6
	c-4.3,13.4-8.3,26.4-12.6,39.5c-1.8,5.5-4.1,10.9-8.3,15.2c-1.2,1.2-1.9,2.8-2.7,4.3c-2.6,5.3-7,7.3-12.7,5.6
	c-0.8-0.2-2-0.2-2.6,0.2c-2.4,1.6-4.8,3.3-7,5.2c-0.8,0.7-1,2.2-1.5,3.4c1.1,0.4,2.2,1.1,3.3,1.2c9.6,0.1,19.2,0.1,28.7,0
	c1,0,2.2-0.5,3.1-1.1c3.6-1.9,6.9-4.7,10.7-5.7c4.1-1,6.3-3.4,8.3-6.6c0.4-0.6,1.1-1.3,1.7-1.4c2.5-0.5,4.9-0.9,5.8-3.8
	c0.2-0.5,1.2-0.7,1.7-1.2c1.3-1.1,3-2.1,3.7-3.6c1.7-3.2,3.9-5.8,7-7.6c0.3-0.2,0.6-0.6,0.8-0.9c-4.6-4.1-4.6-5.7-1.4-10.9
	c2.7-4.4,5.1-9.1,7.8-14c6.3-3.3,10.1,0.5,13.2,6.5c3.7-1.2,5.6,0.8,6.7,4.2c0.1,0.2,0.3,0.4,0.4,0.7c5.2,8.9,10.6,17.8,15.7,26.8
	c2.2,4,0,7.7-4.5,8.3c-4.4,0.5-5.5,1.8-5,6.1c0.1,0.6,0.2,1.2,0.3,2.1c11-0.3,21.8-0.7,33.3-1.1c-0.8-6.8-1.3-13.2-2.3-19.6
	c-0.3-2.3-0.8-4.3,1-6.2c0.4-0.4,0.5-1.4,0.4-2c-0.8-3.1-1.7-6.1-2.6-9.1c-0.1-0.3-0.6-0.4-0.7-0.7c-0.6-1.2-1.6-2.4-1.7-3.6
	c0-2.4,0.5-4.9,0.7-7.3c1.5,0.2,2.6,0.7,3.8,0.5c1.6-0.2,3.2-1,4.9-1.2c2.9-0.4,6,1.1,8.7-0.9c0.2-0.2,0.7,0,1,0
	c4.7,0.1,9.3,0.2,14,0.3c0.3,0,0.8,0,1-0.1c1.5-1.5,2.3-0.3,3,0.8c0.9,1.4,1.8,2.8,2.6,4.3c0.3,0.5,0.5,1.4,0.3,1.9
	c-2.2,6-0.9,11.7,1.1,17.4c2,5.8,2.5,11.4-2.1,16.3c-0.8,0.8-1.9,1.6-2.9,1.9c-3.1,1-6.4,1.6-9.4,2.6c-1.2,0.4-2,1.7-3.4,2.9
	c2.4,0.8,3.9,1.4,5.5,1.7c8.2,1.8,16.4,3.7,24.6,5.2c2,0.4,4.5,0.3,6.1-0.7c3.7-2.4,6.2-6,7.5-10.3c0.3-1,0.2-2.3,0.8-3
	c2-2.6,3.4-5.2,1.5-8.5c0,0,0.1-0.2,0.2-0.5c1.1-0.1,2.4-0.2,2.9-0.3c1.3-2.9,2.5-5.4,3.4-8c0.7-2.2,2.6-4.4,0.5-6.8
	c1.6-1.8,2.8-0.6,4,0.2c8.2,5.5,16.3,11,26.2,13.1c0.6,0.1,1.1,0.5,1.6,0.9c3.6,2.6,6,5.7,5.1,10.5c-0.1,0.8-0.1,1.6,0,2.4
	c0.1,0.6,0.2,1.4,0.6,1.6c2.8,1.6,5.6,3.1,8.5,4.6c1.3-2.6,2.4-4.9,3.5-7.2c0-0.4,0-0.7,0-1.1C388,220.5,387.4,218.1,387,215.6z
	 M140.3,136.3c-1.3,0-2.4-1.1-2.4-2.4s1.1-2.4,2.4-2.4c1.3,0,2.4,1.1,2.4,2.4S141.6,136.3,140.3,136.3z"/>
</svg>
