<?xml version="1.0" encoding="utf-8"?>
<!-- Generator: Adobe Illustrator 19.0.0, SVG Export Plug-In . SVG Version: 6.00 Build 0)  -->
<svg version="1.1" id="Layer_1" xmlns="http://www.w3.org/2000/svg" xmlns:xlink="http://www.w3.org/1999/xlink" x="0px" y="0px"
	 viewBox="0 0 512 512" style="enable-background:new 0 0 512 512;" xml:space="preserve">
<style type="text/css">
	.st0{fill:#E65B25;}
	.st1{fill:#FFFFFF;}
</style>
<path class="st0" d="M256,0C161.7,0,85.3,76.4,85.3,170.7S161.7,341.3,256,341.3V512l151.1-262c12.5-23.7,19.6-50.7,19.6-79.4
	C426.7,76.4,350.3,0,256,0z"/>
<path class="st1" d="M409.6,170.7c0,84.8-68.8,153.6-153.6,153.6s-153.6-68.8-153.6-153.6S171.2,17.1,256,17.1
	S409.6,85.8,409.6,170.7z"/>
<path d="M219.6,55.2c-23.1,5.7-41.8,15.6-47,42.3c12.9-4.5,24.3-2.9,34.6,8.2c-9.2,0.5-17.4,0.9-25.7,1.3c9.8,4.1,16.5,11.2,22,19.4
	c5.2,7.8,11.5,11.7,21.3,10.7c6.2-0.6,12.8,0.6,19.1,1.9c11.9,2.5,23.5,1.8,34.3-3.6c19.1-9.5,37.8-10.8,56.8,0.1
	c4.6,2.7,9.7,3,14.8,0.7c8.7-3.8,16.5-0.6,23.5,3.9c2.1,1.4,3.3,6,3,8.9c-0.6,4.5-2.8,8.8-4.6,13.9c-7.7-7-14.6-13.3-21.5-19.7
	c7.7,23.2,6.2,44-9,63.2c-6.4,8-8.9,16.3-2.1,25.9c1.7,2.4,0.5,7.2-0.2,10.7c-1.1,6.1-0.7,11.3,3,16.7c3.9,5.7,0.6,20.7-4.7,25.3
	c-2.4,2.1-11.6,1.5-12.4-1.2c-0.5-1.7,0.8-4.6,2.3-6.1c9.6-9.7,11.1-20.6,5.8-32.8c-1.1-2.4-2-4.9-3.3-7.2
	c-8.3-15.3-16.4-30.7-19.3-48.1c0-0.2-0.6-0.4-2.2-1.3c0.7,5,0.8,9.2,1.9,13.1c1.8,6.7,0.4,10.2-6.8,11.3c-13.6,2-27.3,3.5-41.1,4.7
	c-6.8,0.6-13.6,0.2-20.4,0c-5.5-0.2-10.6-1.6-13.1-9.3c-2.2,16.7-4.8,31.6-0.7,46.7c1,3.7,0.5,7.8,0.3,11.7
	c-0.1,2.2-0.9,4.4-1.3,6.7c-0.5,3.1-0.3,8.4-1.6,8.8c-3.8,1.2-8.3,0.4-13.3,0.4c1.1-2,1.6-3.3,2.3-4.2c7.5-9.2,8.6-19.6,5.1-30.5
	c-2.9-9.2-6.4-18.1-9.7-27.2c-0.4-1-1.1-2.1-1.9-2.6c-9.5-6-13.7-15.4-16.3-25.6c-4.5-18-13.1-34.1-22.6-49.8
	c-0.8-1.3-1.9-2.3-3.3-3.9c-2.7,9.7-4.7,19.3-13.6,26.2c0-3.7-0.1-6.8,0-9.8c0.1-1.7,0.7-3.3,0.9-5c0.9-8.4-0.8-9.4-8.8-6.8
	c-3.5,1.2-7.8,2.2-11.1,1.2c-4.1-1.3-5.6-8.7-3.1-13.5c1.5-2.9,3.8-5.7,6.4-7.7c16-12.2,28-27.4,36-45.9
	c6.4-14.8,19.1-20.7,34.3-22.2C210.9,54.9,215.2,55.2,219.6,55.2z M239.7,279.3c6.6,1.7,8,1,8.9-5.9c0.5-3.9,0.8-8,0.1-11.8
	c-2.1-12.4-4.7-24.7-7.2-37.1c-0.9-4.7-4.7-3.7-7.7-3.3c-3.8,0.4-2.9,3.2-2,5.6c2.7,7.4,4.9,15,8.1,22.2c4.7,10.6,6.7,20.6-4.9,29.4
	C237.5,278.9,238.7,279,239.7,279.3z M312.6,280.6c11.5-1.1,16.1-8.7,18.3-15.6c3.7-11.6-2.6-21.8-9.5-31.4
	C323.7,249.8,329.5,266.4,312.6,280.6z M196.8,48.1c-21.7,5-36.9,22.3-35.5,41.9C168.4,70.7,181.1,58,196.8,48.1z"/>
</svg>
