<?xml version="1.0" encoding="utf-8"?>
<!-- Generator: Adobe Illustrator 19.0.0, SVG Export Plug-In . SVG Version: 6.00 Build 0)  -->
<svg version="1.1" id="Layer_1" xmlns="http://www.w3.org/2000/svg" xmlns:xlink="http://www.w3.org/1999/xlink" x="0px" y="0px"
	 viewBox="0 0 512 512" style="enable-background:new 0 0 512 512;" xml:space="preserve">
<style type="text/css">
	.st0{fill:#E65B25;}
	.st1{fill:#FFFFFF;}
	.st2{fill:#010101;}
</style>
<path class="st0" d="M256,0C161.7,0,85.3,76.4,85.3,170.7S161.7,341.3,256,341.3V512l151.1-262c12.5-23.7,19.6-50.7,19.6-79.4
	C426.7,76.4,350.3,0,256,0z"/>
<path class="st1" d="M409.6,170.7c0,84.8-68.8,153.6-153.6,153.6s-153.6-68.8-153.6-153.6S171.2,17.1,256,17.1
	S409.6,85.8,409.6,170.7z"/>
<path class="st2" d="M258.6,70.5c1.8,0,3.6,0,5.5,0c3.5,2.4,5.5,5.5,4.7,9.9c-0.6,3.3,0.9,5,4.1,5.8c19.2,4.8,38.4,9.9,57.7,14.4
	c9.4,2.1,19.1,3,28.4,4.3c2.5-6.1,5.8-8.5,10-7.7c4.6,0.9,6.4,3.6,6.4,9.9c0,46.7,0,93.5,0,140.2c0,1.7-0.2,3.5-0.3,5.1
	c-40.9,0-81.2,0-121.9,0c0-2,0-3.7,0-5.3c0-55.2,0.1-110.5-0.1-165.7C253.2,76.6,254.3,72.9,258.6,70.5z M279.7,238.2
	c0-2.4,0-4.2,0-6c0-33.5,0-67.1,0-100.6c0-8.2,0.1-16.4-0.1-24.6c0-1.3-0.8-3.4-1.8-3.9c-2.6-1.3-5.6-1.9-8.5-2.9
	c0,46.3,0,92,0,137.9C272.9,238.2,276,238.2,279.7,238.2z M333.2,238.1c0-2.1,0-3.8,0-5.6c0-23.7,0-47.3,0-71
	c0-14,0.1-27.9-0.1-41.9c0-1.5-1-3.8-2.1-4.2c-2.9-1-6.1-1.1-9.3-1.6c0,41.7,0,82.9,0,124.2C325.5,238.1,329,238.1,333.2,238.1z
	 M295.6,108.1c0,43.7,0,86.7,0,130c3.4,0,6.5,0,10.3,0c0-2.2,0-4.1,0-6c0-29.6,0-59.2,0-88.8c0-9.7,0.1-19.4-0.1-29.1
	c0-1.4-1-3.6-2.2-4.1C301.3,109,298.7,108.8,295.6,108.1z M349.1,118.6c0,39.8,0,79.7,0,119.5c3.7,0,6.9,0,10.7,0c0-2.1,0-3.9,0-5.6
	c0-34.6,0-69.1,0-103.7c0-10.2,0-10.2-10.2-10.5C349.5,118.3,349.4,118.4,349.1,118.6z M239.5,70.5c1.5,0,3,0,4.6,0
	c3.1,2,5.2,4.4,5.2,8.4c-0.1,56.7-0.1,113.5,0,170.2c0,3.5-1.6,3.9-4.4,3.9c-20.3-0.1-40.7,0-61,0c-15.8,0-31.5-0.1-47.3-0.2
	c0-50.4,0-100.8,0-151.2c6.5-6.8,11.6-5.8,15.1,3.1c1.4-0.1,2.9-0.1,4.4-0.3c25.4-3.5,50.4-8.9,74.6-17.9c3.1-1.1,4.5-2.6,4.1-5.9
	C234.2,76.1,235.8,72.8,239.5,70.5z M234.4,238.2c0-45.9,0-91.6,0-137.4c-9.5,2-9.5,2-9.5,10.9c0,40.2,0,80.4,0,120.6
	c0,1.9,0,3.8,0,5.8C228.5,238.2,231.3,238.2,234.4,238.2z M186.2,114.4c-10.1-0.1-10.5,0.3-10.5,9.4c0,36.2,0,72.5,0,108.7
	c0,1.8,0,3.6,0,5.6c3.8,0,7,0,10.5,0C186.2,196.7,186.2,155.7,186.2,114.4z M151.3,119.3c0,39.9,0,79.2,0,118.9c3.4,0,6.4,0,9.7,0
	c0-40.1,0-79.9,0-120C157.5,118.5,154.4,118.9,151.3,119.3z M210.3,108.6c-9.3,0.7-9.4,0.8-9.4,9.4c0,38.2,0,76.5,0,114.7
	c0,1.8,0,3.5,0,5.4c3.5,0,6.4,0,9.4,0C210.3,194.6,210.3,151.6,210.3,108.6z"/>
</svg>
