<?xml version="1.0" encoding="utf-8"?>
<!-- Generator: Adobe Illustrator 19.0.0, SVG Export Plug-In . SVG Version: 6.00 Build 0)  -->
<svg version="1.1" id="Layer_1" xmlns="http://www.w3.org/2000/svg" xmlns:xlink="http://www.w3.org/1999/xlink" x="0px" y="0px"
	 viewBox="0 0 512 512" style="enable-background:new 0 0 512 512;" xml:space="preserve">
<style type="text/css">
	.st0{fill:#E65B25;}
	.st1{fill:#FFFFFF;}
	.st2{fill:#010101;}
</style>
<path class="st0" d="M256,0C161.7,0,85.3,76.4,85.3,170.7S161.7,341.3,256,341.3V512l151.1-262c12.5-23.7,19.6-50.7,19.6-79.4
	C426.7,76.4,350.3,0,256,0z"/>
<path class="st1" d="M409.6,170.7c0,84.8-68.8,153.6-153.6,153.6s-153.6-68.8-153.6-153.6S171.2,17.1,256,17.1
	S409.6,85.8,409.6,170.7z"/>
<g>
	<path class="st2" d="M288.2,154.3c1.1,38.1,1.9,74.3,0,97.6c0,5.2-1.1,10.4-3.6,15c-6.5,11.9-25,29.5-48.6,20.8
		c-18.5-6.8-28.6-27-28.6-46.7v-9.9l25,11.2l-39.1-52.2v53.5c0,4.9,0.5,9.8,1.4,14.6c2.1,11,5.3,19.5,12.6,27.3
		c13.6,14.6,37.1,29.2,69.6,12c0,0,19.2-7.5,25.9-36.2c3.8-16.3,0.9-107,0.9-107"/>
	<rect x="291.8" y="39.8" class="st2" width="8.7" height="74.8"/>
	<path class="st2" d="M315.3,137.6c0,10.6-8.6,19.2-19.2,19.2c-10.6,0-19.2-8.6-19.2-19.2c0-10.6,8.6-19.2,19.2-19.2
		C306.7,118.5,315.3,127.1,315.3,137.6z M296.2,126.2c-6.3,0-11.4,5.1-11.4,11.4c0,6.3,5.1,11.4,11.4,11.4c6.3,0,11.4-5.1,11.4-11.4
		C307.6,131.3,302.5,126.2,296.2,126.2z"/>
</g>
</svg>
