<?xml version="1.0" encoding="utf-8"?>
<!-- Generator: Adobe Illustrator 19.0.0, SVG Export Plug-In . SVG Version: 6.00 Build 0)  -->
<svg version="1.1" id="Layer_1" xmlns="http://www.w3.org/2000/svg" xmlns:xlink="http://www.w3.org/1999/xlink" x="0px" y="0px"
	 viewBox="0 0 512 512" style="enable-background:new 0 0 512 512;" xml:space="preserve">
<style type="text/css">
	.st0{fill:#E65B25;}
	.st1{fill:#FFFFFF;}
	.st2{fill:#010101;}
</style>
<g>
	<path class="st0" d="M256,0C161.7,0,85.3,76.4,85.3,170.7S161.7,341.3,256,341.3V512l151.1-262c12.5-23.7,19.6-50.7,19.6-79.4
		C426.7,76.4,350.3,0,256,0z"/>
	<path class="st1" d="M409.6,170.7c0,84.8-68.8,153.6-153.6,153.6s-153.6-68.8-153.6-153.6S171.2,17.1,256,17.1
		S409.6,85.8,409.6,170.7z"/>
</g>
<path id="XMLID_1_" class="st2" d="M161.6,214.8l-39.5-39.4c-0.9-0.9-1.3-2-1.3-3.2l0.1-4.2c0-2.4,2-4.4,4.4-4.4l235.3,0
	c1.6,0,2.3,2,1.1,3l-40.1,33.8c-1.6,1.3-3.6,2-5.6,2l-26-0.4c-1.9,0-3.7,0.6-5.1,1.8L268,218c-4.8,4-11.7,4.2-16.6,0.5l-20.9-15.6
	c-7.3-8.9-27.6-9-33.1-1.7l-17.9,14.6C174.2,220,166.4,219.6,161.6,214.8z M378.1,236.3l-30.9,24.5c-5,4-12.1,3.8-16.9-0.5
	l-17.9-15.8c-7.6-6.7-18.7-7.2-27-1.2l-23,16.8c-5,3.6-11.7,3.4-16.4-0.7L227.2,243c-7.7-6.7-18.9-7.1-27.1-1l-22,16.5
	c-4.9,3.7-11.7,3.5-16.4-0.5l-27.3-23c-1.6-1.4-4-1.1-5.4,0.5c-1.4,1.6-1.1,4,0.5,5.4l27.3,23c3.8,3.2,8.4,4.8,13.1,4.9
	c4.5,0.1,9-1.3,12.8-4.2l22-16.5c5.3-4,12.5-3.7,17.5,0.6l18.8,16.3c7.4,6.4,18,6.9,25.9,1.1l23-16.8c5.3-3.9,12.5-3.6,17.4,0.8
	l17.9,15.8c7.5,6.6,18.7,6.9,26.6,0.7l30.9-24.5c1.6-1.3,1.9-3.7,0.6-5.3C382.1,235.3,379.7,235,378.1,236.3z M253.1,97
	c10.1,0.2,18.5-7.2,19.8-17l7.9-0.5c1.2-0.1,2.3-0.7,3-1.7l1.3-3.1l-8.9-1.1c-2-0.2-3.7-1.6-4.5-3.5c-3.1-7.8-11-13.3-20.2-12.4
	c-9.1,0.8-16.5,8-17.6,17C232.4,86.6,241.5,96.8,253.1,97z M318.7,150.8l0.1-4.5l-33.2-0.5c0,0-16.9-27.4-24.6-36.6
	c-7.7-9.2-15.7-12.3-26-1.9c-10.3,10.4-16.8,50.6-16.8,50.6l39.2,0.1l0.4-24l6.7,0.5l12.3,21.5l32,0.9l0,1.8l9.5,0.2l0.1-1.7
	l70.1,1.3l0.8,5.4l-5.7,4.8l-0.3,18.5l-5.1,10.4l-0.1,9.6l-30.4,24c-5,4-12.1,3.8-16.9-0.5l-17.9-15.8c-7.6-6.7-18.7-7.2-27-1.2
	l-23,16.8c-5,3.7-11.7,3.4-16.4-0.7l-18.8-16.3c-7.7-6.7-18.9-7.1-27.1-1l-22,16.5c-4.9,3.7-11.7,3.5-16.4-0.5l-27.3-23
	c-1.6-1.4-4-1.1-5.4,0.5c-1.4,1.6-1.1,4,0.5,5.4l27.3,23c3.8,3.2,8.4,4.8,13.1,4.9c4.5,0.1,9-1.3,12.8-4.2l22-16.5
	c5.3-4,12.5-3.7,17.5,0.6l18.8,16.3c7.4,6.4,18,6.9,25.9,1.1l23-16.8c5.3-3.9,12.5-3.6,17.4,0.8l17.9,15.8
	c7.5,6.6,18.7,6.9,26.6,0.7l30.9-24.5c1.6-1.3,1.9-3.7,0.6-5.3c-0.6-0.8-1.5-1.2-2.4-1.4l0.5-8.7l4.7-8.5l0.3-17.5l5.7-5.2l0.2-14.5
	L318.7,150.8z"/>
</svg>
