<?xml version="1.0" encoding="utf-8"?>
<!-- Generator: Adobe Illustrator 19.0.0, SVG Export Plug-In . SVG Version: 6.00 Build 0)  -->
<svg version="1.1" id="Layer_1" xmlns="http://www.w3.org/2000/svg" xmlns:xlink="http://www.w3.org/1999/xlink" x="0px" y="0px"
	 viewBox="0 0 512 512" style="enable-background:new 0 0 512 512;" xml:space="preserve">
<style type="text/css">
	.st0{fill:#E65B25;}
	.st1{fill:#FFFFFF;}
</style>
<path class="st0" d="M256,0C161.7,0,85.3,76.4,85.3,170.7S161.7,341.3,256,341.3V512l151.1-262c12.5-23.7,19.6-50.7,19.6-79.4
	C426.7,76.4,350.3,0,256,0z"/>
<path class="st1" d="M409.6,170.7c0,84.8-68.8,153.6-153.6,153.6s-153.6-68.8-153.6-153.6S171.2,17.1,256,17.1
	S409.6,85.8,409.6,170.7z"/>
<path d="M312.2,184.9c-7.8,7-28.6,10.2-35.7,3.8c-3.4-3-5.5-8.8-6-13.5c-1.8-17.4,4.3-33.3,12.8-48c9.9-17.2,20.7-33.9,31.4-50.6
	c1.4-2.2,4.6-3.3,6.9-5c0.8,2.7,2.3,5.4,2.1,8c-2.1,29.6-4.3,59.2-6.9,88.8C316.2,173.9,313.7,179.3,312.2,184.9z M367.3,191.3
	c8.5-0.6,12.6-3.7,13.7-12.1c0.9-6.8,1.1-14.1-0.2-20.8c-6.3-32.2-26.6-57.7-42.7-85.1c-0.8-1.3-4.4-2.6-5.2-2
	c-1.4,1.1-2.5,3.7-2.4,5.7c0.1,7.2,0.6,14.4,1,21.7c1.3,23.3,2.2,46.6,4,69.9c0.5,6.2,3.5,12.1,4.5,15.5
	C350,192.1,358.6,191.9,367.3,191.3z M192.9,242.4c2.6-29.6,4.8-59.2,6.9-88.8c0.2-2.6-1.4-5.3-2.1-8c-2.3,1.6-5.5,2.8-6.9,5
	c-10.7,16.7-21.6,33.4-31.4,50.6c-8.5,14.7-14.6,30.5-12.8,48c0.5,4.7,2.6,10.4,6,13.5c7.2,6.4,28,3.3,35.7-3.8
	C189.9,253.4,192.4,248,192.9,242.4z M243.5,265.4c8.5-0.6,12.6-3.7,13.7-12.1c0.9-6.8,1.1-14.1-0.2-20.8
	c-6.3-32.2-26.6-57.7-42.7-85.1c-0.8-1.3-4.4-2.6-5.2-2c-1.4,1.1-2.5,3.7-2.4,5.7c0.1,7.2,0.6,14.4,1,21.7c1.3,23.3,2.2,46.6,4,69.9
	c0.5,6.2,3.5,12.1,4.5,15.5C226.2,266.2,234.8,265.9,243.5,265.4z"/>
</svg>
