<?xml version="1.0" encoding="utf-8"?>
<!-- Generator: Adobe Illustrator 19.0.0, SVG Export Plug-In . SVG Version: 6.00 Build 0)  -->
<svg version="1.1" id="Layer_1" xmlns="http://www.w3.org/2000/svg" xmlns:xlink="http://www.w3.org/1999/xlink" x="0px" y="0px"
	 viewBox="0 0 512 512" style="enable-background:new 0 0 512 512;" xml:space="preserve">
<style type="text/css">
	.st0{fill:#E65B25;}
	.st1{fill:#FFFFFF;}
	.st2{fill:#010101;}
</style>
<g>
	<path class="st0" d="M256,0C161.7,0,85.3,76.4,85.3,170.7S161.7,341.3,256,341.3V512l151.1-262c12.5-23.7,19.6-50.7,19.6-79.4
		C426.7,76.4,350.3,0,256,0z"/>
	<path class="st1" d="M409.6,170.7c0,84.8-68.8,153.6-153.6,153.6s-153.6-68.8-153.6-153.6S171.2,17.1,256,17.1
		S409.6,85.8,409.6,170.7z"/>
</g>
<path class="st2" d="M161.9,239.1l22.7,0.2c0,0,11-12.3,27.5-14.6s7.4-20.3,7.4-20.3s-25.8-37.3-34.6-47
	c-8.6-9.5-39.7-37.6-41.1-38.9c0,0-0.1-0.1-0.1-0.1l-3-3.4c-0.3-0.3-0.4-0.7-0.4-1.1l0.3-2.8c0.1-0.7,0.7-1.3,1.4-1.3h2.4
	c0.9,0,1.5-0.8,1.4-1.6l-0.1-1c-0.1-0.7-0.7-1.3-1.4-1.3h-3.4c-0.8,0-1.4-0.6-1.4-1.4l-0.1-4.2c0-0.8,0.7-1.5,1.5-1.5l3.6,0.2
	c0.8,0,1.5-0.5,1.5-1.3l0.2-2.7c0.1-0.7-0.5-1.4-1.2-1.5l-4.4-0.7c-0.8-0.1-1.4-1-1.1-1.8l0.8-2.9c0.2-0.7,0.9-1.2,1.6-1l5.1,0.9
	c0.6,0.1,1.1-0.2,1.5-0.6l0,0c0.5-0.8,0.2-1.8-0.7-2.1l-4.2-1.7c-0.8-0.3-1.1-1.3-0.7-2l1.3-2.3c0.4-0.7,1.2-0.9,1.9-0.6l5.1,2.3
	c0.6,0.3,1.3,0.1,1.7-0.4l0.4-0.5c0.5-0.6,0.4-1.4-0.1-1.9l-3.2-3.1c-0.6-0.5-0.6-1.4-0.1-2l2-2.3c0.5-0.6,1.5-0.6,2-0.1l4.4,4
	c0.4,0.4,1,0.5,1.5,0.3l2-0.8c0.6-0.3,1-0.9,0.9-1.6l-0.5-2.6c-0.2-0.9,0.5-1.7,1.3-1.7l5.4-0.2c0.4,0,0.8,0.1,1.1,0.4l8.4,8.7
	c0,0,68.4,68.9,78.5,82.7c10.1,13.8,30.5,32.7,30.5,32.7s7.7,2.2-1.1-8.9c-5-6.2-13.4-11.1-15.9-16.6c-3.1-6.8,6.3-18.2,6.3-18.2
	s26.7-39,36.8-44.3c8.6-4.6,8.7-2.5,8.5-1.8c0,0.2-0.1,0.4-0.1,0.6l0,1.9c0,1.6,1.4,2.8,3,2.6l1.8-0.2c1.3-0.2,2.3-1.3,2.3-2.7v-5.5
	c0-1.4,1.1-2.6,2.5-2.7l0.6,0c1.5-0.1,2.8,1.1,2.8,2.7v4.3c0,1.5,1.2,2.7,2.7,2.7l0,0c1.5,0,2.7-1.2,2.7-2.7V91.7
	c0-1.4,1.1-2.6,2.5-2.7l0.3,0c1.5-0.1,2.8,1.1,2.8,2.7v3.1c0,1.5,1.3,2.8,2.8,2.7h0c1.4-0.1,2.5-1.3,2.5-2.7v-7.6
	c0-1.4,1.1-2.6,2.5-2.7c4.4-0.4,13.2-0.9,13.9,0.5c2,4.1,3.1,9.2-3.5,23.9c-6.1,13.6-45,55.6-53.4,64.6c-1,1.1-4.9,7.4-1.6,15.5
	c0,0,16.8,7.8,18.3,7.8c5.4,1.7,10.7,2.2,15.7-0.3l9.5-8.5c1.8-1.6,4.1-2.5,6.4-2.5h3c2.5,0,4.9,1,6.7,2.7
	c3.2,3.2,9.9,8.3,21.4,11.4c2.5,0.7,4.2,2.9,4.2,5.5v0.5c-18,1.4-34.4,8.1-56.6,4.1c0,0-29.2,18.6-36.8,22.3
	c-7.5,3.8-6.6,7.5-47.5,17h-96.5h0C153.8,245.2,156.6,239,161.9,239.1z"/>
</svg>
