<?xml version="1.0" encoding="utf-8"?>
<!-- Generator: Adobe Illustrator 19.0.0, SVG Export Plug-In . SVG Version: 6.00 Build 0)  -->
<svg version="1.1" id="Layer_1" xmlns="http://www.w3.org/2000/svg" xmlns:xlink="http://www.w3.org/1999/xlink" x="0px" y="0px"
	 viewBox="0 0 512 512" style="enable-background:new 0 0 512 512;" xml:space="preserve">
<style type="text/css">
	.st0{fill:#E65B25;}
	.st1{fill:#FFFFFF;}
	.st2{fill:#010101;}
</style>
<g>
	<path class="st0" d="M256,0C161.7,0,85.3,76.4,85.3,170.7S161.7,341.3,256,341.3V512l151.1-262c12.5-23.7,19.6-50.7,19.6-79.4
		C426.7,76.4,350.3,0,256,0z"/>
	<path class="st1" d="M409.6,170.7c0,84.8-68.8,153.6-153.6,153.6s-153.6-68.8-153.6-153.6S171.2,17.1,256,17.1
		S409.6,85.8,409.6,170.7z"/>
</g>
<path id="XMLID_22_" class="st2" d="M184.9,54.3l-52.7,45.3l32,7.7v165.3h178.9V104.1l36.7-14.3C314.8,69.6,246.3,59.2,184.9,54.3z
	 M214.4,155.8l-39.8,8.5v-47.4c12-4.4,25.5-6.9,39.8-8.5V155.8z M266.7,203.8h-39.3v-97.3c13.1-0.9,26.2-0.9,39.3,0V203.8z
	 M330.2,158.5l-49.4-5.6v-47c17.2,0.1,33.7,1.9,49.4,5.6V158.5z"/>
</svg>
