<?xml version="1.0" encoding="utf-8"?>
<!-- Generator: Adobe Illustrator 19.0.0, SVG Export Plug-In . SVG Version: 6.00 Build 0)  -->
<svg version="1.1" id="Layer_1" xmlns="http://www.w3.org/2000/svg" xmlns:xlink="http://www.w3.org/1999/xlink" x="0px" y="0px"
	 viewBox="0 0 512 512" style="enable-background:new 0 0 512 512;" xml:space="preserve">
<style type="text/css">
	.st0{fill:#E65B25;}
	.st1{fill:#FFFFFF;}
</style>
<path class="st0" d="M256,0C161.7,0,85.3,76.4,85.3,170.7S161.7,341.3,256,341.3V512l151.1-262c12.5-23.7,19.6-50.7,19.6-79.4
	C426.7,76.4,350.3,0,256,0z"/>
<path class="st1" d="M409.6,170.7c0,84.8-68.8,153.6-153.6,153.6s-153.6-68.8-153.6-153.6S171.2,17.1,256,17.1
	S409.6,85.8,409.6,170.7z"/>
<path d="M146.4,265c1.3-3.1,2.4-6.2,3.8-9.2c0.9-2,2-2.2,5.6-1.9c5.2-9.6,8.8-19.8,12.3-30.1c1.1-3.2,2-6.5,3.2-9.7
	c0.7-1.7,1.7-3.3,2.9-4.7c3.6-3.9,7.5-7.5,11.2-11.3c3.7-3.8,4.9-8.1,2.2-13c-0.9-1.6-1.5-3.3-2.3-4.8c-5.4-9.5-5.7-19.4-2.5-29.7
	c0.7-2.3,1.5-4.5,2.3-7.2c-2.5,1-3.9,2.7-5,4.7c-2.2,3.9-2.9,8.2-2.5,12.6c0.4,4.6-0.8,8.8-3.7,12.4c-0.2,0.3-0.4,0.6-0.6,0.9
	c0.3-2.9,0.5-5.7,0.7-8.4c-10.2,10.7-17.2,22.6-16,37.8c-2.1-0.5-2.4-2.1-2.6-3.9c-0.2-1.7-0.4-3.3-0.7-5.4
	c-2.8,2.7-3.7,5.9-4.5,9.1c-1.2,5.2-2.2,10.5-3.7,15.6c-0.6,2.2-2.2,4.1-3.5,6.1c-0.2,0.3-0.9,0.2-1.4,0c-4,4.9-9.7,6.5-15.7,7.6
	c3.3-4.8,3.3-4.8,2.1-6.1c3.8-3.1,4.2-7.3,4-11.8c-0.1-1.9-0.3-4.1,0.5-5.8c2.9-6.4,3.1-13.2,3.8-20c0.6-5.3,1.9-10.2,5.6-14.2
	c2.7-2.9,3.9-6.5,4.7-10.3c1.7-7.2,4.7-13.9,9.2-19.8c5.2-6.7,12-10.2,20.5-10.3c3.3,0,6.7-0.1,10,0.1c6.7,0.3,13.2-0.7,19.6-2.9
	c6.1-2.2,12.4-4,19-2.3c0.4,0.1,1.3-0.2,1.5-0.5c1.8-3.8,5.2-4.5,8.9-4.7c0.8,0,1.5-0.3,2.4-0.5c-0.9-1.5-1.6-2.9-2.6-4.6
	c5.2-2.3,9.2-0.2,13.5,3.7c1.7-6.2,3.7-11.8,4.5-17.6c0.4-3-1.3-6.4-2.6-9.4c-0.4-1-2.4-1.4-3.7-2.1c-0.3,0.2-0.7,0.3-1,0.5
	c0-5.3-0.7-10.6,0.2-15.7c0.9-5,3.4-9.7,5.4-15c-2.8,1.3-5.6,2.6-9,4.1c1.9-3,3.6-5.5,5-8.1c0.6-1.1,0.9-2.5,0.8-3.7
	c-0.6-4.8,0.7-7.4,5-9.5c0.7-0.3,1.4-0.6,2.1-0.9c2-0.7,4.3-2.2,6-1.8c1.6,0.4,2.6,3.1,4,4.6c0.7,0.7,1.8,1.1,2.7,1.3
	c1.9,0.3,3.9,0.2,5.8,0.6c2.8,0.6,4.5,2.5,5.3,5.4c-3.4-0.2-6.8-0.4-10.7-0.7c0.3,1.6,0.3,3,0.8,4.3c0.7,2,1,3.9-0.4,5.8
	c-0.4,0.5-0.6,1.3-0.6,1.9c-0.2,2.3-1.4,2.9-3.6,2.6c-2.6-0.4-3.8,1.1-2.6,3.5c1,2,2.7,3.9,4.4,5.5c1.6,1.5,3.6,2.6,5.3,4
	c2.1,1.7,3,3.9,2.3,6.6c-0.5,2.2-1,4.3-1.5,6.5c-0.4,1.7,0,2.9,1.2,4.1c3.4,3.3,7.5,5.6,12,6.6c6.9,1.4,11.6,5.1,14.9,11.1
	c0.8,1.6,2.2,2.9,3.6,4.7c2.7-4,5-7.5,7.4-11.1c-0.7-1-1.4-1.9-2.4-3.2c1.1-0.1,1.9-0.1,2.6-0.4c1.3-0.6,3.1-1.1,3.7-2.2
	c1.1-1.8,2.5-2.6,4.3-3.6c2.9-1.5,5.6-3.5,8.2-5.6c2.8-2.3,5.7-3.3,9.3-3.5c6.3-0.4,11.7-2.8,14.6-9c0.8-1.6,1.9-3.1,2.9-4.6
	c0.2,0.1,0.4,0.1,0.7,0.2c0,1.9,0,3.8,0,5.7c0.2,0.1,0.3,0.1,0.5,0.2c1.4-2,2.8-4,4.3-5.9c0.2,0.1,0.3,0.2,0.5,0.2
	c0,2.7-0.1,5.4,0.1,8.1c0.1,1,0.5,2.3,1.2,3c1.3,1.5,2.4,2.8,2.5,5c0.1,1.6,1.5,3.5,2.8,4.6c3.2,2.7,4.5,6.1,5.4,10.1
	c0.6,2.7,2.4,5.2,3.7,7.7c0.3,0.5,0.9,0.9,1,1.4c1.6,5.5,4.5,10.3,8.1,14.7c0.3,0.4,0,1.5-0.3,2.2c-0.5,0.9-1.2,1.6-1.8,2.4
	c-1.1,1.5-1.9,3.9-3.3,4.5c-3.2,1.3-6.8,1.9-10.2,0.6c-0.6-0.2-1.1-0.5-1.6-0.7c-5.8,4.5-14,6.3-26,5.7c-1,6.3-3.5,12.4-1.3,19
	c1.7,5.3,0.5,10.3-2.8,14.7c-1.3,1.8-2.5,3.7-3.8,5.7c4.3,4.2,8.6,8.2,12.8,12.2c2.3,2.2,4.5,4.4,7.1,6.3c3.8,2.9,4.6,7,5.1,11.3
	c0.8,6.3,1.7,12.6,2.5,19c0.1,0.6,0.2,1.3-0.1,1.7c-3.6,6.6-7.7,12.8-13.4,18.3c-0.6-3.1-1.3-5.9-1.7-8.7c-0.5-3.4,0.5-4.8,3.8-5.9
	c0.8-0.3,1.6-0.5,2-0.6c0.7-3.1,1.5-5.8,1.8-8.5c0.7-6.7-0.6-13-4.9-18.5c-2.9-3.7-6.6-5.5-11-6.9c-5.5-1.7-10.7-4.2-16.1-6.4
	c-2.1-0.8-4.2-1.8-6.4-2.3c-0.8-0.2-2.3,0.6-2.7,1.4c-5.1,9.3-9.6,19-12.8,29.2c-0.7,2.3-2.1,4.4-3,6.7c-1.5,3.6-3.3,7.1-4.2,10.9
	c-1,4.3,0.1,8.4,3.3,11.8c1.7,1.9,3.4,3.8,5,6.5c-3.7,0-7.4,0.3-11-0.2c-1.1-0.1-2-2.2-2.8-3.6c-0.5-0.8-0.4-2-0.6-3.2
	c-0.6-0.2-1.3-0.4-2-0.7c-1.5-0.5-2.2-1.5-1.6-3.2c2-6.3,4-12.7,6.1-18.9c1-3,1.9-5.8,0.9-9c-0.3-1.1-0.1-2.5,0.3-3.8
	c2.1-8.1,4.3-16.1,6.3-23.9c-8.8-1.3-17.2-2.6-25.7-3.8c-1-0.1-2,0.5-3.1,0.7c-1.1,0.2-2.5,0.7-3.2,0.2c-4.7-3.3-10.2-4.1-15.5-5.9
	c-6-2-12-4.2-18-6.4c-1.4,7.5-3,15.1-1.5,23.1c0.5,2.5,0.1,5.3,0.1,7.9c0,0.7-0.2,1.4-0.1,2c0.6,4.9,1,9.8,1.8,14.7
	c0.4,2.1,1.3,4.3,2.4,6.1c5,7.5,9.9,14.9,16.8,20.9c2.7,2.3,4.8,5.3,7.1,8.7c-3.7,0-7.4,0.3-11-0.2c-1.1-0.1-2.1-2.2-2.8-3.5
	c-0.5-0.8-0.3-2-0.4-3c-0.1-0.1-0.3-0.3-0.4-0.3c-3.7,0.1-5.4-2.5-7.2-5.1c-6.3-9.1-12.8-18.1-19.1-27.2c-0.6-0.8-0.7-2.1-0.7-3.1
	c0.6-8.4-0.8-16.5-4.1-24.2c-0.8-1.9-1.8-3.6-2.9-5.7c-8.8,8.7-17.3,17.1-25.8,25.4c-0.7,0.7-1.3,1.6-2.1,2.3
	c-8.5,7.2-13,16.7-15.6,27.3c-0.7,2.9-2.1,5.7-3.3,8.5c-0.3,0.7-1,1.4-1.7,1.7c-4.8,1.9-9.7,3.7-14.5,5.5
	C146.8,265.5,146.6,265.2,146.4,265z M343.8,143.2c7.1,3,14.9,3,21.7-0.2c0.7-0.3,1.4-1.9,1.2-2.5c-1.9-5.2-4.9-9.5-10.3-11.5
	c-2.5-1-5.1-1.8-7.8-2.7C347,131.8,345.4,137.5,343.8,143.2z M283.4,114.4c1.1,3,2.1,5.4,3.1,7.9c0.2,0.5,0.6,1.2,1,1.3
	c4.6,1.4,9.3,2.1,14.1,0.5c-0.2-0.4-0.2-0.8-0.4-1.1c-1.4-1.9-2.7-3.7-4.1-5.6c-1.2-1.6-5.2-2.7-6.7-1.5c-1.6,1.3-2.7,0.7-4-0.1
	C285.5,115.4,284.6,115,283.4,114.4z M271.1,123.7c0.3,0.1,0.6,0.2,0.8,0.4c2.7-4.1,5.4-8.2,8.2-12.5c-3.5-1.3-6.5-2.4-9.7-3.7
	C269.4,113.6,269.9,118.7,271.1,123.7z M342.8,145.8c0.1,0.3,0.1,0.5,0.2,0.8c4,1.2,8,1.7,12.7,0.2c-4-0.7-7.3-1.3-10.6-1.7
	C344.4,145,343.6,145.6,342.8,145.8z"/>
</svg>
