<?xml version="1.0" encoding="utf-8"?>
<!-- Generator: Adobe Illustrator 19.0.0, SVG Export Plug-In . SVG Version: 6.00 Build 0)  -->
<svg version="1.1" id="Layer_1" xmlns="http://www.w3.org/2000/svg" xmlns:xlink="http://www.w3.org/1999/xlink" x="0px" y="0px"
	 viewBox="0 0 512 512" style="enable-background:new 0 0 512 512;" xml:space="preserve">
<style type="text/css">
	.st0{fill:#E65B25;}
	.st1{fill:#FFFFFF;}
</style>
<path class="st0" d="M256,0C161.7,0,85.3,76.4,85.3,170.7S161.7,341.3,256,341.3V512l151.1-262c12.5-23.7,19.6-50.7,19.6-79.4
	C426.7,76.4,350.3,0,256,0z"/>
<path class="st1" d="M409.6,170.7c0,84.8-68.8,153.6-153.6,153.6s-153.6-68.8-153.6-153.6S171.2,17.1,256,17.1
	S409.6,85.8,409.6,170.7z"/>
<path d="M321.3,242.4c-6.3-0.9-12.2,2-18-1.6c-2,1.8-2.8,1.4-4-1.3c-2.3-5.1-3.1-10.4-3.6-15.9c-0.5-5.1-2.7-9.4-6.4-13.1
	c-1.7-1.7-2.7-4.2-3.4-6.5c-0.8-2.5-1.1-5.2-1.4-7.8c-0.5-4.3-2.9-6.6-7.1-7.6c-16.1-3.6-32.1-3.4-48.1,0.4c-4.3,1-7.2,4.1-9.5,7.7
	c-2.1,3.2-4.2,3.3-7.4,1.1c-3.9-2.7-8-5-12.2-7.1c-1.4-0.7-3.4-0.4-5.1-0.2c-2.2,0.3-4.4,1-7.1,1.7c-0.1,0.4-0.4,1.2-0.5,2
	c-0.2,5.2-2,9.9-5.1,14c-2.5,3.2-3.3,6.6-2.4,10.5c0.9,4,1.7,8,3,11.8c1.1,3.3,3.5,5.8,7,7c1.5,0.5,2.8,1.3,4.2,2
	c-0.1,0.4-0.2,0.8-0.3,1.3c-2.3,0.1-4.6,0.4-6.8,0.3c-2.7-0.2-6,1.4-7.6-2.7c-0.4-1-2.6-1.2-4-2.4c-2.4-2.1-3.1-4.7-4.1-7.2
	c-1.6-4.1-3.1-8.2-4.7-12.3c-2.1,5.2-1.1,16,0.9,20.8c1.3,3.1,2.9,5.2,6.1,6.1c0.6,0.2,1.1,0.9,2.1,1.8c-4.9,1.5-9.4,1.1-13.9,0.7
	c-1.1-3.3-5-3.2-6.7-6.8c-2.8-6.1-0.7-12.1-2.2-18c-0.7-2.9-0.6-6-1.6-8.7c-1.8-5.1-2.3-10-0.2-15.1c1.3-3.2,0.2-5.2-2.7-7.1
	c-2.1-1.3-4.2-3.5-5.1-5.8c-3.2-7.4-6-14.9-8.6-22.5c-0.9-2.8-0.7-6-1.6-9.3c-1.3,3.6-3.1,7.2-3.7,10.9c-0.7,4.4-0.5,9-0.3,13.4
	c0.2,4.2,0.6,8.3,1.3,12.4c0.6,3.4,1.2,7,2.6,10.2c2.3,5.2,2.5,10.4,0.9,15.5c-2,6.3-1.7,12.6-0.4,18.9c0.1,0.4,0.2,0.9,0.2,1.3
	c0,0.2-0.1,0.4-0.2,0.9c-7.3-9.2-10.5-19-6.6-30.5c0.9-2.6,0.7-5.8,0.1-8.6c-1-4.5-2.1-8.9-0.6-13.6c0.6-1.9,0.2-4.2-0.1-6.2
	c-1.7-10,0.4-19.4,5.9-27.8c3.2-4.9,5-10.2,6.2-15.8c0.8-3.9,2.6-7,5.8-9.3c8.2-5.7,16-12.2,24.9-16.6c7.8-3.9,16.8-5.9,25.4-7.7
	c18-3.7,36.3-5.6,54.8-3.9c14.6,1.4,29.2,2.3,43.7,3.5c22.1,1.9,40.5,11.6,56.6,26.4c4,3.7,8.3,7.2,12.7,10.5
	c3.6,2.7,4.2,2.4,7.6-0.6c2.1-1.8,4.6-3.3,7.7-5.5c0.9,5,1.5,8.7,2.2,12.6c2.8-0.4,2.8-2.9,3.7-4.8c0.9-2,2.1-4,3.5-5.8
	c1.2-1.5,2.5-1,3.2,0.8c2.2,6,0.9,14.4-6.5,16.7c-2.4,0.8-3.3,2.4-2.9,5.1c0.3,2.3-0.2,4.7-0.6,7c-0.7,3.6-2.1,7-2.4,10.6
	c-0.2,2.2,0.8,4.8,2,6.7c2.5,4.1,5.5,7.9,8.3,11.8c0.5,0.6,1.3,1.2,2,1.4c4.2,1.2,5.2,2.5,3,6.1c-2.5,4.3-4.4,9.6-10.2,10.6
	c-3.4,0.6-6.9,0.7-10.3,0.8c-3,0.1-6-0.2-9.1-0.2c-8.5-0.1-17.2,0.8-24.5-5.5c-1.7-1.5-4.4-1.8-6.7-2.6c-3.7-1.4-7.5-2.8-11.2-4.3
	c-1.2-0.5-2.2-1.5-3.5-1.9c-4.3-1.5-5.1-0.8-7.1,3.3c-3.6,7.6-3,15.8-2.7,23.7c0.3,7,4,13.2,10.7,16.8c0.7,0.4,1.3,0.8,2,1.2
	C320.7,240.9,320.7,241.2,321.3,242.4z"/>
</svg>
