<?xml version="1.0" encoding="utf-8"?>
<!-- Generator: Adobe Illustrator 19.0.0, SVG Export Plug-In . SVG Version: 6.00 Build 0)  -->
<svg version="1.1" id="Layer_1" xmlns="http://www.w3.org/2000/svg" xmlns:xlink="http://www.w3.org/1999/xlink" x="0px" y="0px"
	 viewBox="0 0 512 512" style="enable-background:new 0 0 512 512;" xml:space="preserve">
<style type="text/css">
	.st0{fill:#E65B25;}
	.st1{fill:#FFFFFF;}
</style>
<path class="st0" d="M256,0C161.7,0,85.3,76.4,85.3,170.7S161.7,341.3,256,341.3V512l151.1-262c12.5-23.7,19.6-50.7,19.6-79.4
	C426.7,76.4,350.3,0,256,0z"/>
<path class="st1" d="M409.6,170.7c0,84.8-68.8,153.6-153.6,153.6s-153.6-68.8-153.6-153.6S171.2,17.1,256,17.1
	S409.6,85.8,409.6,170.7z"/>
<path d="M370.1,85.5c-0.8,0.4-1.6,1.1-2.3,1.6c-1.3,0.9-2.5,1.9-3.8,2.7c-0.4,0.3-1,0.2-1.6,0.2c0.2-0.5,0.2-1.1,0.5-1.4
	c2.1-2.8,2.4-6,2.3-9.4c0-0.3,0-0.6-0.2-0.8c-0.2-0.3-0.5-0.8-0.8-0.8c-0.3,0-0.8,0.3-1,0.6c-0.3,0.4-0.5,1-0.5,1.5
	c-0.2,2.2-1.4,4-2.5,5.9c-0.6,1-1.2,2-1.9,3c-0.3,0.5-0.7,0.9-1.2,1.2c-1.1,0.7-2.2,0-2.1-1.2c0.1-1,0.4-2,1-2.8
	c2.1-2.8,2.5-5.9,1.8-9.3c-0.1-0.7-0.3-1.4-0.4-2.1l-0.3,0c-0.2,0.9-0.4,1.7-0.7,2.6c-0.7,2-1.7,3.9-2.3,5.9
	c-1.4,4.2-4.7,6.8-7.9,9.6c-0.6,0.5-1.7,0.5-2.5,0.7c-0.1-0.8-0.4-1.7-0.3-2.5c0.1-0.6,0.5-1.2,0.9-1.7c2.4-2.8,4-6.1,4.9-9.7
	c0.2-0.7,0.6-1.4,0.6-2.1c0-0.4-0.2-1.1-0.6-1.3c-0.3-0.2-1.1,0.1-1.3,0.4c-0.5,0.6-0.8,1.3-1.2,2c-0.9,1.8-1.7,3.7-2.6,5.5
	c-0.2,0.4-0.7,0.6-1,0.9c-0.1-0.4-0.5-0.9-0.4-1.3c0.4-2.2-0.2-4.2-1-6.1c-0.2-0.4-0.8-0.9-1-0.8c-0.4,0.2-0.9,0.6-1,1.1
	c-0.2,0.8-0.1,1.6-0.1,2.4c0.2,4.3-1.4,8.2-2.8,12.1c-0.5,1.4-1.8,2.2-3.2,2.6c-0.9,0.2-1.8,0.5-2.7,0.5c-2.7,0.2-5.1,1-7.4,2.3
	c-0.9,0.5-1.8,0.7-2.9,0.4c-1.3-0.5-1.8,0.4-1.9,1.5c-0.2,0-0.3,0-0.4-0.1c-0.9-1.4-2-1.7-3.5-1c-0.4,0.2-1.3,0-1.3-0.1
	c-0.1-0.6-0.1-1.2,0.1-1.8c0.1-0.3,0.4-0.5,0.7-0.7c2.2-1.6,4.4-3,6.4-4.6c1.6-1.3,3.1-2.6,4.4-4.2c1.5-1.9,2.7-4.1,4.1-6.1
	c1.3-2,1.6-4.2,1.8-6.4c-0.1-0.1-0.3-0.2-0.4-0.3c-0.2,0.4-0.4,0.8-0.7,1.1c-4.1,4.2-8.1,8.5-12.4,12.5c-1.9,1.8-4.3,3-6.5,4.5
	c-0.4,0.3-1,0.4-1.5,0.5c-1.5,0.3-2.7-1-2.3-2.5c0.6-2.3,1.8-4.4,3.3-6.3c1.5-1.8,2.6-3.8,3.3-6c0.4-1.4,1.2-2.8,1.7-4.2
	c0.3-0.8,0.5-1.7,0.6-2.5c0-0.4-0.3-1-0.7-1.2c-0.2-0.1-0.9,0.2-1.2,0.4c-0.4,0.4-0.7,0.9-0.9,1.4c-1.3,3.1-3,5.9-5.1,8.6
	c-1.6,2-2.9,4.4-4.2,6.7c-1.2,2.2-3.4,3.6-5.8,3.5c-0.4,0-0.9,0-1.3-0.1c-2.4-0.2-3.2-0.9-3.9-3.2c-1.2-3.8-1.3-7.6-1.2-11.5
	c0.1-2-0.4-3.9-0.7-5.9c-0.1-0.5-0.4-1.1-0.7-1.5c-0.3-0.4-0.8-0.5-1.3-0.8c-0.2,0.4-0.5,0.9-0.5,1.3c0,1.6,0.2,3.2,0.2,4.8
	c0,1.2-0.3,2.5-0.6,3.7c-0.6,2-0.5,3.9,0,5.9c0.1,0.5,0.4,0.9,0.5,1.4c0,0.4-0.1,0.8-0.2,1.2c-0.4-0.2-1.2-0.3-1.3-0.6
	c-1-2.5-1.9-5.1-3-7.6c-0.7-1.8-1.5-3.5-2.4-5.2c-0.4-0.7-1.1-1.3-2.1-0.8c-0.7,0.4-0.8,1.3-0.4,2.5c0.5,1.6,0.9,3.2,1.3,4.9
	c0.3,1.4,0.5,2.9,0.9,4.3c0.2,0.7,0.8,1.2,1.3,1.8c0.3,0.3,0.8,0.5,0.9,0.9c0.2,0.8,0.4,1.8,0.1,2.4c-0.5,0.8-1.5,0.3-2.2-0.1
	c-0.7-0.4-1.5-1-2-1.7c-2.5-3.2-4.8-6.5-7.2-9.8c-2.1-2.9-4-5.8-4.4-9.5c0-0.4-0.1-0.9-0.3-1.1c-0.5-0.4-1.2-0.7-1.8-1
	c-0.2,0.5-0.7,1-0.7,1.6c0.1,4.2,1.1,8.2,3.3,11.8c1.4,2.2,3,4.1,4.6,6.2c0.2,0.3,0.2,0.7,0.3,1.1c-0.4-0.1-0.9,0-1.1-0.2
	c-1.3-1.2-2.6-2.5-3.9-3.7c-1.9-1.8-3.8-3.5-5.7-5.3c-0.7-0.6-1.4-0.5-1.9,0.1c-0.6,0.7-0.1,1.2,0.5,1.6c1.8,1.5,3.6,2.9,4.7,5.1
	c0.3,0.7,1.3,1.2,2,1.8c0,0.1,0,0.2-0.1,0.3c-0.4-0.1-0.9,0-1.3-0.2c-1.1-0.7-2.3-1.3-3-2.3c-2-2.9-4.6-5.1-7.1-7.5
	c-0.7-0.6-1-1.7-1.4-2.5c-0.3-0.5-0.3-1.1-0.7-1.6c-0.2-0.3-0.8-0.5-1.1-0.4c-0.3,0.2-0.7,0.8-0.6,1c0.7,2,0.8,4.3,2.5,6
	c0.7,0.7,1.3,1.4,1.8,2.2c0.9,1.4,2,2.6,3.8,3c0,0.1-0.1,0.3-0.1,0.4c-0.4,0-0.8,0-1.2-0.1c-2.4-0.9-4.9-1.9-7.3-2.8
	c-0.6-0.2-1.3-0.9-1.7,0c-0.2,0.5,0.4,1.3,0.7,1.8c0.2,0.3,0.6,0.4,1,0.5c2.5,0.8,4.2,2.7,6.1,4.2c0.2,0.2,0.2,0.6,0.3,0.9
	c-0.4,0-0.9,0.2-1.2,0c-1.8-0.9-3.5-1.9-5.3-2.8c-0.6-0.3-1.2-0.6-1.8-0.7c-0.8-0.2-1.5,0.1-1.7,1c-0.2,0.9,0.6,0.9,1.2,1.1
	c1.7,0.6,3.4,1.3,5.1,2c0.4,0.2,0.9,0.5,1.1,0.9c0.8,1.3,2,1.8,3.4,2.2c1.7,0.5,3.1,1.4,4,2.9c0.8,1.4,2,1.9,3.5,1.8
	c4-0.2,8.1-0.3,12.1-0.5c3.5-0.2,6.7,0.9,10,1.7c0.7,0.2,1.5,0.3,2.1,0.4c-0.4,0.5-1.2,1.1-1.4,1.8c-0.2,0.7,0.2,1.5,0.3,2.2
	c-5.9-1.2-12,0.1-18,0.8c-4.3,0.5-8.4,2-12.6,3.1c-2.7,0.7-5.4,1.6-8,2.3c0.2,0.1,0.6,0.4,0.9,0.7c0,0.1,0,0.2,0,0.3h-5.9
	c0,0.1,0,0.3-0.1,0.4c0.5,0.3,1,0.5,1.7,0.9c-0.5,0.1-0.7,0.3-1,0.3c-2.2,0.2-3.8,1.5-5.3,3c-1.8,1.8-3.7,3.5-5.5,5.3
	c-3.3,3.2-7.2,4.8-11.8,4.8c-8.6-0.1-17.3-0.1-25.9-1c-2.1-0.2-4.2-0.8-6.3-1.1c-4.3-0.8-8.6-0.7-13-0.3c-2.6,0.2-5.3,0.6-7.8,1.1
	c-1.4,0.3-2.7,1-4,1.6c-2.9,1.4-5.6,3.2-7.7,5.7c-1.7,1.9-3.7,3.6-5.2,5.6c-1.7,2.4-3.1,5.1-4.5,7.8c-1.8,3.4-1.4,7-1.1,10.7
	c0.6,6.4,2.7,12.4,4.1,18.5c0.5,2.3,0.6,4.8,0.8,7.2c0.3,4.5,0.6,9.1,0.8,13.6c0.2,3.2-0.8,6.1-2.6,8.6c-1.9,2.7-2.7,5.5-2.6,8.8
	c0.1,3.7-0.1,7.5,0.1,11.2c0.1,2.7,0.6,5.4,0.9,8.1c0.6,5.5,0.7,10.9,0.3,16.4c-0.4,5,0.1,10.1,0.2,15.1c0,1,0.5,1.7,1.6,1.8
	c1.1,0.1,1.3,0.7,1.2,1.7c-0.1,1.2-0.2,2.4-0.2,3.7c0,1,0.4,1.7,1.2,2.2c0.5,0.3,0.9,0.6,1.5,0.7c3.8,0.8,7.5,1.2,11.2-0.7
	c-0.5-1.6-0.8-3.2-2.2-4.5c-0.9-0.8-1.2-2.2-1.6-3.5c-0.4-1.4-0.5-2.9-0.6-4.3c-0.3-2.6-0.9-5-2.1-7.3c-0.7-4.5-1.6-8.9-2-13.4
	c-0.2-1.7-0.3-3.4-0.3-5.2c0.2-1.5,0.4-3,0.7-4.5c0.2-0.9,0.7-1.7,1.1-2.5c1.1-2.3,2.1-4.6,3.3-7.2c0.6,2.5,1.1,4.7,1.5,6.9
	c0.1,0.5,0.2,1,0.2,1.5c0.1,1.6,0.4,3.2,0.8,4.7c0.6,3.3,1.1,6.7,1.6,10c0.2,1.6,0.1,3.3,0.2,5c0.3,4.8,0.5,9.7,0.9,14.5
	c0.2,2.2,1,3.2,3.2,3.4c1.5,0.1,1.8,0.5,1.7,2c-0.2,1.6-0.6,3.2-0.9,4.9c0.9,0.2,1.9,0.5,2.8,0.7c0.7,0.2,1.4,0.3,2,0.7
	c2.7,1.5,5.4,0.8,8,0.2c0.6-0.1,1.1-0.7,1.5-1.2c0.2-0.2,0.2-0.6,0.2-0.8c-0.5-1.1-1-2.2-1.6-3.2c-0.2-0.4-0.8-0.7-1.2-0.7
	c-1,0-1.4-0.6-1.6-1.4c-0.3-1.5-0.6-3-0.9-4.5c-0.7-2.8-1.5-5.6-2.3-8.4c-0.6-1.8-1.6-3.4-2-5.2c-0.9-3.8-1.8-7.6-2.3-11.4
	c-0.6-4.7,0.2-9.4,1.6-13.9c1.6-5.2,3-10.4,4.9-15.4c2-5.1,4.6-10,7-15c0.4-0.9,1.2-1.7,1.8-2.5c1.8-2.3,4.1-4.4,3.9-7.7
	c3.9,1.3,7.7,2.8,11.5,3.8c2.5,0.7,5.1,1,7.6,1c5.2,0.1,10.4-1.1,15.5-1.9c0.6-0.1,1.2-0.1,1.8-0.2c0.3,0,0.6,0,1.1,0.1
	c-1,1.3-1.9,2.5-2.9,3.7c0.4,0.2,0.7,0.5,1.2,0.8c-0.8,0.9-1.7,1.9-2.6,2.9c0.7,0.2,1.3,0.4,1.9,0.5c-0.3,0.7-0.7,1.3-1,2
	c-0.2,0.7-0.5,1.6,0.9,1.6c0.8,0,0.6,0.7,0.4,1.1c-0.5,1.4-1,2.8-1.5,4.2c-0.8,2.3-1.5,4.7-2.2,7c-0.3,1-0.2,1.8,0.6,2.5
	c0.1,0.1,0.2,0.2,0.2,0.3c-0.2,1.1-0.3,2.1-0.4,3.2c-0.2,0.6-0.4,1.3-0.4,1.9c0.4,4.1-0.9,8-2,11.8c-1.4,4.9-3.5,9.6-5.4,14.4
	c-1.8,4.4-2.7,9.2-3.8,13.8c-0.5,1.9,0.2,3.7,1.7,5.2c0.5,0.4,0.7,1.4,0.6,2c-0.5,3.3,0.4,4.8,3.6,5.7c1.5,0.4,3.1,0.8,4.5,0.7
	c2-0.3,4-1.1,6.2-1.7c-0.6-1.7-1.1-3.2-1.7-4.6c-0.3-0.7-0.7-1.3-1.7-1.1c-0.2,0-0.6-0.4-0.7-0.6c-0.2-0.5-0.2-1.1-0.3-1.7
	c-0.1-0.8-0.2-1.7-0.6-2.4c-0.5-1.1-0.7-2.2-0.5-3.4c1.7-7.7,3.3-15.4,5.1-23c0,0,0-0.1,0-0.1c0,0,0-0.1,0-0.1
	c0.1-0.4,0.3-0.8,0.4-1.1c0.4-1,1-1.9,1.6-2.7c2.8-3.7,4.4-8,6.3-12.1c0.3-0.6,0.2-1.5,0.1-2.3c-0.1-0.5-0.1-1.1-0.1-1.6
	c0-0.2,0-0.4,0-0.6c0-1.1,0.2-2.3,0.6-3.4c2.1-6.8,4.9-13.2,10-18.6c-0.2,1.8-0.3,3.6-0.5,5.3c-0.7,4.8-0.6,9.6-0.3,14.4
	c0.1,0.8-0.2,1.6-0.3,2.5c-0.3,1.8-0.5,3.6-0.8,5.4c-0.3,2.3,0.2,4.5,0.8,6.7c1.4,4.5,1.3,9.2,1.1,13.8c-0.3,6.3-0.7,12.7-1,19
	c0,0.7,0.1,1.5,0.1,2.2c0,2.3,1.3,3.7,3.2,4.7c1,0.5,1.2,1.1,0.7,2c-0.2,0.4-0.4,0.9-0.5,1.3c-0.4,1.3,0,2.4,1.1,3.2
	c0.2,0.1,0.5,0.2,0.6,0.4c1,1.6,2.5,1.5,4.1,1.6c1.5,0.1,3.1,0.2,4.6,0.1c1.9-0.1,3.8-0.4,5.8-0.7c-0.6-3.1-2.6-5-5-6.6
	c-0.8-0.5-1.5-0.9-1.5-1.8c-0.2-3.5-1.7-6.6-2.9-9.8c-0.8-2.1-1-4.3-0.5-6.6c0.2-1,0.3-2.1,0.2-3.1c-0.1-1.7-0.2-3.4-0.3-5.2
	l0.5-10.4c0-0.1,0.1-0.2,0.1-0.3c0.8-1.6,1.1-3.3,1.4-5.1c0.1-0.9,0.3-1.8,0.6-2.7c0.9-2.5,0.6-5.1,0.5-7.6c-0.1-1.3,0-2.7,0.3-4
	c0.6-3.3,2-6.4,3.6-9.3c2.5-4.8,4.8-9.6,5.9-15c0.1-0.6,0.3-1.1,1.1-1c3.9,0.7,6.3-1.7,8.5-4.2c0.4-0.4,0.7-0.8,0.9-1.3
	c1.1-2,2.6-3.7,4.6-4.9c1.4-0.9,2.2-2.1,2-3.9c-0.5-5.6,2.1-9.9,5.8-13.8c1.5-1.6,3.3-2.8,5.4-3.6c2.6-1,5.1-2.2,7.6-3.3
	c0.3-0.1,0.7-0.2,1.2-0.3c0.8,4.4-0.4,8.7-0.1,12.9c2.9,0.7,5.8-0.3,7.6-2.6c1.1-1.3,1.6-2.6,1.5-4.4c-0.1-1.8,0.8-3.5,2.4-4.5
	c4.1-2.6,6.1-6.5,7.4-11c0.7-2.4,1.5-3.1,4-3.4c0.2,0,0.5-0.1,0.7-0.1c2.9-0.5,5.2,1,5.9,3.9c0.4,2,0.4,2,2.4,2.2
	c3.3,0.2,6.4,0.1,9.1-2.2c0.5-0.4,0.9-1,1.2-1.6c0.7-1.3,1.2-2.7,1.9-4c0.8-1.3,0.7-1.6-0.4-2.6c-0.6-0.5-1-1.4-1-2.1
	c0.1-2.2-0.5-4.3-1.2-6.4c-0.7-2.4-2.4-3.9-4.6-5.1c-2.5-1.3-5.1-2.7-7.6-4c-0.7-0.4-1-0.9-0.9-1.7c0-0.4-0.1-0.8-0.1-1.1
	c0.2-2.3-1.1-3.6-2.9-4.7c-0.1-0.1-0.2-0.1-0.3-0.2c-0.4-0.5-1-0.9-1.7-1.1l-0.2-0.1c-0.7-0.5-1.4-0.9-2.1-1.4
	c3.4-1.7,6.4-4,10.4-3.4c4,0.6,7.7-0.7,11.4-1.9c1.9-0.7,3.9-1.3,5.9-1.9c3.9-1.1,7.7-2.7,11-5.1c1.1-0.7,2-1.7,2.9-2.6
	c0.3-0.3,0.4-1.1,0.2-1.3C371.1,85.5,370.4,85.3,370.1,85.5L370.1,85.5z M370.1,85.5"/>
</svg>
