<?xml version="1.0" encoding="utf-8"?>
<!-- Generator: Adobe Illustrator 19.0.0, SVG Export Plug-In . SVG Version: 6.00 Build 0)  -->
<svg version="1.1" id="Layer_1" xmlns="http://www.w3.org/2000/svg" xmlns:xlink="http://www.w3.org/1999/xlink" x="0px" y="0px"
	 viewBox="0 0 512 512" style="enable-background:new 0 0 512 512;" xml:space="preserve">
<style type="text/css">
	.st0{fill:#E65B25;}
	.st1{fill:#FFFFFF;}
</style>
<path class="st0" d="M256,0C161.7,0,85.3,76.4,85.3,170.7S161.7,341.3,256,341.3V512l151.1-262c12.5-23.7,19.6-50.7,19.6-79.4
	C426.7,76.4,350.3,0,256,0z"/>
<path class="st1" d="M409.6,170.7c0,84.8-68.8,153.6-153.6,153.6s-153.6-68.8-153.6-153.6S171.2,17.1,256,17.1
	S409.6,85.8,409.6,170.7z"/>
<path d="M316.9,207.8H196.8c-2.9-12.4-9.2-21.9-23-22.2c-14.3-0.3-24.1,21.9-24.1,21.9l-30.2,0.7c0,0,0-12.2,0-26.8
	c0.1-13.6,0-24.3,0-24.3s10.2,0.4,23.7,0.3c27.2-0.1,54.4,0,83,0c0-8.2,0.3-15.7-0.1-23.1c-0.4-8.7,3.1-12.9,12.2-12.8
	c16.3,0.3,32.7-1.1,48.8,0.5c16.5,0.4,34.2,14.1,36.9,16.9c11.6,12.1,26.2,15.5,42.3,16.4c4.1,0.2,9.5,0.6,14.1,1
	c5.8,0.5,10.5,5,11.1,10.8c0.5,4.9,1,10.8,1,16.1c0,1.3,0,2.7,0,4c0,9.5,0,21,0,21s-14.6,1.9-25.1-0.1c-1.8-0.3-4.4-2.1-4.8-3.7
	c-3.2-12.3-11.1-19.2-23.6-18.6C325.8,186.2,319.3,195.3,316.9,207.8z M328.9,157c-9.9-14.7-25.3-27.6-50.6-25.7
	c0,8.1,0,17.7,0,25.7C294.9,157,310.7,157,328.9,157z M267.3,131.1l-25.8,0.2l0.1,25.4c0,0,16.8,0,25.7,0
	C267.3,148.6,267.3,131.1,267.3,131.1z M157.2,207.4c-0.4,8.9,7,16.8,15.9,16.8c8.5,0.1,15.9-7,16.3-15.6c0.4-8.9-7-16.6-16-16.7
	C164.8,191.8,157.6,198.7,157.2,207.4z M356.1,208.6c0.3-9.3-6.6-16.6-15.9-16.6c-8.6,0-15.9,7-16.2,15.5
	c-0.3,8.8,7.3,16.7,16.1,16.8C348.7,224.3,355.8,217.4,356.1,208.6z"/>
</svg>
