<?xml version="1.0" encoding="utf-8"?>
<!-- Generator: Adobe Illustrator 19.0.0, SVG Export Plug-In . SVG Version: 6.00 Build 0)  -->
<svg version="1.1" id="Layer_1" xmlns="http://www.w3.org/2000/svg" xmlns:xlink="http://www.w3.org/1999/xlink" x="0px" y="0px"
	 viewBox="0 0 512 512" style="enable-background:new 0 0 512 512;" xml:space="preserve">
<style type="text/css">
	.st0{fill:#E65B25;}
	.st1{fill:#FFFFFF;}
	.st2{fill:#090A0A;}
</style>
<g>
	<path class="st0" d="M256,0C161.7,0,85.3,76.4,85.3,170.7S161.7,341.3,256,341.3V512l151.1-262c12.5-23.7,19.6-50.7,19.6-79.4
		C426.7,76.4,350.3,0,256,0z"/>
	<path class="st1" d="M409.6,170.7c0,84.8-68.8,153.6-153.6,153.6s-153.6-68.8-153.6-153.6S171.2,17.1,256,17.1
		S409.6,85.8,409.6,170.7z"/>
</g>
<path id="XMLID_2_" class="st2" d="M340.1,54.8c-2.3-1.2-4.9-1.1-5.1,1.6c-0.3,7.9-1.7,21.6-6.8,22.3c-4.8,0.7-10.2,0.5-13.3,0.2
	c-1.7-0.1-3.2-0.9-4.3-2.2l-7.3-8.3c-4.2-4.7-8.4-6.3-13.2-3.3c-1.3,0.8-2.5,2-3.3,3.5c-1.8,3.5-0.9,7.9,2.1,10.5l12.8,11.5
	c2.7,2.4,3.6,4.4,3.6,6.4V120c0,0-0.1,15.3-19.7,15.6s-51.5,0-51.5,0s-28.5-4.5-48.9,8.7c-20.5,13.2-12.1,25-12.1,25
	s6.9,8.7,16.7,13.2c0,0,8.3,19.4-0.7,29.5c-5.4,6-9.7,12.6-13.1,16.5c-2.4,2.8-3.6,5.8-4.3,9.4l-9.1,38.8c-0.1,0.5,0.3,1,0.8,1h9.1
	c0.4,0,0.7-0.3,0.8-0.6l10.9-38.8c0.1,1.3,4.5-8.2,11.1-11.3c0,0-0.7,12.1,3.1,19.8c0,0,5.9,29.8,12.8,30.9l4.3,0.7
	c1.3,0.2,2.5-0.9,2.4-2.2l-0.4-6.2c0-0.5-0.3-1.1-0.6-1.5c-2.4-2.6-11.3-13.3-10.5-25.1c1.2-19.4,10.4-34.5,16.3-41.2
	c0.2-0.2,0.3-0.4,0.5-0.6c4.6-4.6,12.1-4.8,17.1-0.7l1.3,1.1c1.4,1.1,3.2,1.8,5,1.8l33.4,0.6c1.3,0,2.4,1.1,2.5,2.4l4,71.2
	c0,0.4,0.4,0.8,0.8,0.8h3.9c0.4,0,0.8-0.3,0.8-0.8c2.4-21.7,2.9-42.2,1.8-61.3c0-0.8,0.1-1.7,0.3-2.4c0.8-2.3,2.9-3.1,3.6,1.7
	c0.9,5.7,2.5,35.3,3.2,35.4l2.8,26.7c0,0.4,0.4,0.7,0.8,0.7h5.4c0.5,0,0.8-0.4,0.8-0.8l-3.8-71.3c0,0,10.8-5.9,14.6-20.1
	c3.8-14.2,6.9-42.3,5.9-57.3c-0.7-9.8-0.1-14.9,1-16.7c0.8-1.4,1.7-2.2,2.5-3.8l1.5-3c0.9-2.6,1.3-5.3,1.3-8.1V88l1.4-2.4l0.7-1.3
	c0.9-1.6,2.6-2.5,4.4-2.5c3.5-0.1,10.2-2.8,6.8-17.7C347,64.1,345,57.3,340.1,54.8z"/>
</svg>
