<?xml version="1.0" encoding="utf-8"?>
<!-- Generator: Adobe Illustrator 19.0.0, SVG Export Plug-In . SVG Version: 6.00 Build 0)  -->
<svg version="1.1" id="Layer_1" xmlns="http://www.w3.org/2000/svg" xmlns:xlink="http://www.w3.org/1999/xlink" x="0px" y="0px"
	 viewBox="0 0 512 512" style="enable-background:new 0 0 512 512;" xml:space="preserve">
<style type="text/css">
	.st0{fill:#E65B25;}
	.st1{fill:#FFFFFF;}
</style>
<g>
	<path class="st0" d="M256,0C161.7,0,85.3,76.4,85.3,170.7S161.7,341.3,256,341.3V512l151.1-262c12.5-23.7,19.6-50.7,19.6-79.4
		C426.7,76.4,350.3,0,256,0z"/>
	<path class="st1" d="M409.6,170.7c0,84.8-68.8,153.6-153.6,153.6s-153.6-68.8-153.6-153.6S171.2,17.1,256,17.1
		S409.6,85.8,409.6,170.7z"/>
</g>
<path d="M221.5,71c0-0.1,0-0.1,0.1-0.1C221.6,70.9,221.5,70.9,221.5,71z M221.6,70.8C221.6,70.8,221.6,70.8,221.6,70.8L221.6,70.8z
	 M370.8,154.9c-7.3,0.1-14.6,0.5-21.8-0.1c-5.8-0.5-36.3,21.5-40.7,24.1c-11.4,6.9-23.8,3.3-35.7,3.7c-18.5,0.6-37,0.6-55.4,0.1
	c-8-0.2-45.1-22.5-48.1-26.3c-0.7-0.9-2.5-1.3-3.9-1.3c-6.9-0.2-13.8-0.2-20.7-0.2c-10.7,0-13.2-2.9-11.2-14.8c5.2,0,10.2,0,15.2,0
	c9.2,0,11.7-2.5,11.7-11.5c0-3.7,0.3-7.5-0.1-11.2c-0.6-6.9,3.6-10.5,7.7-15.3c4.1-4.8,8.3-3.7,12.6-3.8c10.4-0.3,20.9,0,31.4-0.1
	c2.5,0,4.9-0.6,7.5-1c-4.8-7.6-9.2-14.6-13.5-21.4c-10.3-3.1-22.2,3.5-31.6-6.1c-1.3-10.1,1.3-13,12.2-13c6,0,12,0.4,17.9-0.1
	c6.1-0.5,9.3,2.6,12.2,7.4c1.3,2.2,3,5,4.9,6.9c11.2,0,22.3,0,33.5,0c9.5,0,19.1-0.7,28.5,0.2c6.5,0.7,8.5-4.1,11.5-7.2
	c3.4-3.6,5.7-7.6,11.6-7.3c7.8,0.4,15.7,0,23.5,0.2c6.4,0.2,11.1,8.3,7.1,13.2c-2.1,2.6-6.1,4.5-9.4,4.8c-7.2,0.7-14.5,0.2-20.1,0.2
	c-6.3,4.3-6.1,11.1-11.1,14.8c-1.4,1.1-1.4,4.5-1.2,6.8c0.1,0.7,3,1.5,4.6,1.6c11.8,0.1,23.5,0.4,35.3,0c5.9-0.2,8.4,4.1,12.1,7.1
	c5.4,4.4,4,10.3,4.1,15.9c0.1,4.7,0,9.3,0,15.1c4,1.2,8.2,3.1,12.6,3.7c4.7,0.7,9.6,0.1,14.5,0.1c0.3,2.6,0.5,4.1,0.6,5.5
	C379.7,152.7,377.9,154.8,370.8,154.9z M221.5,71.1C221.4,71.1,221.4,71.1,221.5,71.1L221.5,71.1z M235.2,92.3
	c1.4,2.5,4.7,5,6.8,5.6c5.2,1.5,22.5,4.8,32.4-3.8c0.5-0.5,1-1.1,1.3-1.7c0.6-1,0.3-2.2-0.6-2.8c-0.7-0.5-1.5-0.8-2.2-0.9
	c-5.8-0.2-11.5-0.1-17.3-0.1c-5.6,0-11.1,0.1-16.7,0C236,88.6,233.7,89.8,235.2,92.3z M281.3,127.4c-17.2,0-33.8,0-50.8,0
	c0,4.4,0,8.4,0,12.7c17.2,0,33.8,0,50.8,0C281.3,135.6,281.3,131.7,281.3,127.4z M157.5,163.7h-8.2v20.9h20.5v12.7h-20.5v13.8h21.3
	v13.1h-21.3v13.1h21.7v13.8h-21.7c1,3.6,1.8,7.9,4.1,10.9c19.1,25.3,50.5,14.9,61.5,0c2.8-3.8,3.4-7.7,3.5-10.9h-20.2v-13.8h20.2
	v-12H199l0.4-14.6h19v-13.1h-17.9L157.5,163.7z M340.6,237.3h21.7v-13.1h-21.3v-13.1h21.3v-13.8h-20.5v-12.7h20.5v-20.9H354l-43,34
	h-17.9v13.1h19l0.4,14.6h-19.4v12h20.2v13.8h-20.2c0.1,3.2,0.7,7.1,3.5,10.9c11,14.9,42.4,25.3,61.5,0c2.3-3,3-7.4,4.1-10.9h-21.7
	V237.3z"/>
</svg>
