<?xml version="1.0" encoding="utf-8"?>
<!-- Generator: Adobe Illustrator 19.0.0, SVG Export Plug-In . SVG Version: 6.00 Build 0)  -->
<svg version="1.1" id="Layer_1" xmlns="http://www.w3.org/2000/svg" xmlns:xlink="http://www.w3.org/1999/xlink" x="0px" y="0px"
	 viewBox="0 0 512 512" style="enable-background:new 0 0 512 512;" xml:space="preserve">
<style type="text/css">
	.st0{fill:#E65B25;}
	.st1{fill:#FFFFFF;}
	.st2{fill:#010101;}
</style>
<g>
	<path class="st0" d="M256,0C161.7,0,85.3,76.4,85.3,170.7S161.7,341.3,256,341.3V512l151.1-262c12.5-23.7,19.6-50.7,19.6-79.4
		C426.7,76.4,350.3,0,256,0z"/>
	<path class="st1" d="M409.6,170.7c0,84.8-68.8,153.6-153.6,153.6s-153.6-68.8-153.6-153.6S171.2,17.1,256,17.1
		S409.6,85.8,409.6,170.7z"/>
</g>
<path id="XMLID_4_" class="st2" d="M266.5,190.4c3.1,3.1,4.6,6.7,4.6,10.9c0,4.2-1.5,7.8-4.6,10.8c-3.1,3-6.8,4.5-11.2,4.5
	c-4.4,0-8.1-1.5-11.2-4.5c-3.1-3-4.6-6.6-4.6-10.8c0-4.2,1.5-7.8,4.6-10.9c3.1-3.1,6.8-4.6,11.2-4.6
	C259.7,185.8,263.5,187.4,266.5,190.4z M244.4,107.7l3.7,66.3c0.2,1.9,0.9,3.5,2.2,4.9c1.3,1.3,3,2,5.1,2c2.1-0.2,3.9-0.9,5.3-2.1
	c1.4-1.2,2.1-2.8,2.1-4.7l3.7-66.5c0.3-7.5-3.3-11.3-11-11.3c-3.9,0-6.8,1-8.8,2.9c-2,1.9-2.7,4.6-2.3,8.2
	C244.4,107.4,244.4,107.6,244.4,107.7z M375.2,215.3L273.3,49.6c-0.1-0.1-0.1-0.2-0.2-0.3c-4-5.8-10.7-9.3-17.8-9.3l0,0
	c-7.1,0-13.7,3.5-17.8,9.3c-0.1,0.1-0.1,0.2-0.2,0.3L135.5,215.3c-4.5,6.6-5,15.1-1.3,22.2c3.7,7.2,11.1,11.6,19.2,11.6h203.9
	c8.1,0,15.4-4.5,19.2-11.6C380.2,230.4,379.7,221.9,375.2,215.3z M365.1,231.6c-1.5,3-4.5,4.7-7.8,4.7H153.4c-3.3,0-6.3-1.8-7.8-4.7
	c-1.5-3-1.3-6.4,0.6-9.1c0.1-0.1,0.1-0.2,0.2-0.3L248.2,56.5c1.7-2.3,4.3-3.7,7.1-3.7c2.9,0,5.5,1.3,7.1,3.7l101.9,165.7
	c0.1,0.1,0.1,0.2,0.2,0.3C366.5,225.2,366.7,228.6,365.1,231.6z"/>
</svg>
