<?xml version="1.0" encoding="utf-8"?>
<!-- Generator: Adobe Illustrator 19.0.0, SVG Export Plug-In . SVG Version: 6.00 Build 0)  -->
<svg version="1.1" id="Layer_1" xmlns="http://www.w3.org/2000/svg" xmlns:xlink="http://www.w3.org/1999/xlink" x="0px" y="0px"
	 viewBox="0 0 512 512" style="enable-background:new 0 0 512 512;" xml:space="preserve">
<style type="text/css">
	.st0{fill:#E65B25;}
	.st1{fill:#FFFFFF;}
</style>
<path class="st0" d="M256,0C161.7,0,85.3,76.4,85.3,170.7S161.7,341.3,256,341.3V512l151.1-262c12.5-23.7,19.6-50.7,19.6-79.4
	C426.7,76.4,350.3,0,256,0z"/>
<path class="st1" d="M409.6,170.7c0,84.8-68.8,153.6-153.6,153.6s-153.6-68.8-153.6-153.6S171.2,17.1,256,17.1
	S409.6,85.8,409.6,170.7z"/>
<path d="M337.4,193.3c-4,0.2-7.5-1.2-10.4-4.5c-10-11.5-24.4-14.5-38.2-8.2c-0.9,0.4-2.2,0.5-3.1,0.3c-11-2.8-15.8-11.4-12.6-22.9
	c1.5-5.5,3.9-10.5,9.3-13.4c4.7-2.6,9.4-5.4,14-8.3c5.4-3.4,10.6-7,15.9-10.5c2.4-1.6,4.8-3.3,7.4-4.4c6-2.4,11.9-1,15.9,4.1
	c2.3,2.9,4,6.3,5.5,9.7c3.4,8.1,6.5,16.2,11.6,23.6c3.9,5.7,5.5,12.6,4,19.6C354.6,186.9,348.8,193.5,337.4,193.3z M171.8,207.7
	c-1.2,2.5-2.2,5.2-3.7,7.5c-4.7,7.5-9.5,15-14.4,22.4c-3.4,5.1-3.9,10.5-2.9,16.4c2,11.7,10,17.7,21.3,15.5c1.2-0.2,2.4-1,3.2-1.9
	c10.2-11.9,23.8-15.2,38.2-9.5c1.9,0.8,4.3,1.2,6.3,0.7c10.1-2.4,15.9-8.8,15.6-18.9c-0.1-4.4-1.7-8.4-4.4-12c-3-4.1-7-7-11.3-9.8
	c-6.7-4.5-12.9-9.9-19.1-15.1c-4.2-3.5-8.5-6.5-14.8-6.7C179,196.7,174.9,201.5,171.8,207.7z M269.4,125.5
	c3.9,8.8,13.3,10.8,20.6,4.5c7.3-6.2,10.2-18,6.6-27.2c-4.2-10.9-15.2-13-23.1-4.3c-4.4,4.8-6.1,10.6-6.9,17.1
	C267.5,118.9,268,122.4,269.4,125.5z M145.7,193.5c-7.5-5.7-16.4-3.2-20.1,5.5c-4.1,9.7-0.1,23.2,8.6,29.1
	c7.3,4.9,15.9,2.6,19.3-5.6c1.2-2.8,1.6-5.9,2-7.6C155,205.5,152.3,198.5,145.7,193.5z M339.1,113.1c3.7,10.6,14.5,12.6,21.7,4.1
	c6-7.2,7.6-15.5,5.3-24.5c-1.3-5.1-4.2-9.3-9.8-10.4c-5.6-1.1-9.7,1.7-13.1,5.9c-3.8,4.8-5.4,10.4-5.7,17.7
	C337.8,107.5,338.1,110.4,339.1,113.1z M192.9,187.3c6.1,4.1,13.2,2.2,16.8-4.2c5.7-10.2,0.7-27-9.7-32.3
	c-5.5-2.8-11.3-1.4-14.8,3.7c-2.4,3.5-3.1,7.5-3.2,12.3C182.5,174.9,185.4,182.4,192.9,187.3z M237.7,176.7
	c-7.4-5.2-16.4-2.6-20.1,5.6c-3.9,9-0.8,20.9,7.1,26.8c7.6,5.7,17,3.2,20.6-5.6c1-2.5,1.4-5.4,2.1-8.1
	C247,188,243.3,180.7,237.7,176.7z M358.4,148c3.9,11,15.6,13.5,23.4,4.9c6.3-7,7.9-15.3,4.5-24c-4-10.4-15.1-12.4-22.9-4.4
	c-4.3,4.5-6.1,10-6.3,17.2C357.3,143.1,357.5,145.6,358.4,148z M153.8,191.1c8.1,7,18.6,3.9,21.1-6.6c0.8-3.3,0.9-6.9,0.5-10.3
	c-0.9-7-4.2-12.8-10.3-16.6c-6.6-4.1-14-2-17.2,5c-1.4,3-1.9,6.4-2.8,9.6C145.6,179.5,148.8,186.8,153.8,191.1z M305.1,104.3
	c3.6,7.2,11.6,8.8,18.1,4.1c8.8-6.4,11.7-21.6,6-30.7c-4.4-7-12.1-8.3-18.5-3c-5.9,4.9-8,11.5-8.4,20.8
	C302.8,97.2,303.5,101,305.1,104.3z"/>
</svg>
