<?xml version="1.0" encoding="utf-8"?>
<!-- Generator: Adobe Illustrator 19.0.0, SVG Export Plug-In . SVG Version: 6.00 Build 0)  -->
<svg version="1.1" id="Layer_1" xmlns="http://www.w3.org/2000/svg" xmlns:xlink="http://www.w3.org/1999/xlink" x="0px" y="0px"
	 viewBox="0 0 512 512" style="enable-background:new 0 0 512 512;" xml:space="preserve">
<style type="text/css">
	.st0{fill:#E65B25;}
	.st1{fill:#FFFFFF;}
	.st2{fill:#020202;}
</style>
<path class="st0" d="M256,0C161.7,0,85.3,76.4,85.3,170.7S161.7,341.3,256,341.3V512l151.1-262c12.5-23.7,19.6-50.7,19.6-79.4
	C426.7,76.4,350.3,0,256,0z"/>
<path class="st1" d="M409.6,170.7c0,84.8-68.8,153.6-153.6,153.6s-153.6-68.8-153.6-153.6S171.2,17.1,256,17.1
	S409.6,85.8,409.6,170.7z"/>
<path class="st2" d="M119.9,169.6c2.4-4.9,3.6-4.7,8.7-4.2c6.5,0.6,12.9,1.9,19.3,3c10.8,1.8,21.6,3.6,32.3,5.4c1.1,0.2,1-0.4,1.1-1
	c0.3-2.6,0.2-5.1,0.2-7.7c0-0.5,0-1,0.3-1.6c6.2-12,12-24.2,18.6-36c1.4-2.4,3.2-4.3,5.5-5.8c4.8-2.8,9.8-2.9,14.8-0.8
	c4.2,1.8,7.9,4.6,11.8,7.1c5.1,3.3,10.2,6.7,15.2,10c0.7,0.5,1.4,0.7,2.2,0.8c8.4,1.2,16.7,2.4,25.1,3.7c0.6,0.1,1.1,0,1.6-0.4
	c1.1-1,2.2-2.1,3.3-3c0.7-0.6,0.7-1.2,0.1-1.9c-5.4-6.8-10.7-13.6-16-20.4c-1.2-1.5-2.3-3.1-3.3-4.8c-0.8-1.4-0.7-2.8,0.2-4.1
	c0.9-1.3,2.1-1.9,3.8-1.9c1.9,0,3.1,0.7,4.2,2.2c7.1,9.1,14.3,18.1,21.7,26.9c1.1,1.2,2.2,2.3,3.6,3.2c12.2,7.7,23.9,16,34.9,25.4
	c10.6,9,20.2,18.9,28.3,30.2c2.8,3.8,2.8,3.2-0.7,6.3c-9.7,8.4-20.2,15.7-32.3,20.2c-0.8,0.3-1.7,0.7-2.6,0.8
	c-1.1,0.1-1.1,0.7-0.7,1.4c0.7,1.3,1.5,2.7,2.4,3.9c3,4.3,6,8.5,8.9,12.7c0.4,0.5,0.7,0.8,1.4,0.8c4.8-0.1,9.6,0,14.5-0.2
	c4.9-0.3,9.3-2,13.5-4.2c4.8-2.5,9.1-5.7,13.2-9.1c0.9-0.8,1.9-1.6,2.9-2.2c2.9-1.9,5.3-1.1,7,2.3c0,0.9,0,1.8,0,2.7
	c-0.8,1.4-1.9,2.5-3.1,3.5c-2.9,2.7-6.1,5.2-9.5,7.4c-5.4,3.5-11,6.6-17.3,8.1c-4.2,1-8.6,0.9-12.9,1c-0.4,0-1-0.3-1.3,0.2
	c-0.8,0-1.6,0-2.4,0c-0.1-0.4-0.5-0.3-0.8-0.3c-1.9,0-3.8,0-5.7,0c-8.4,0-16.8,0-25.2,0c-3.1,0-6.1,0-9.2,0c-1.4,0-2.7,0-4.1,0
	c-2.7-0.1-5.4-0.1-8.1-0.6c-1.4-0.3-2.3-1-2.7-2.4c-0.7-2.3,0.5-5.7,3.7-5.9c0.7,0,1.3-0.1,2-0.2c7-0.2,14-0.3,20.9-0.5
	c0.4,0,0.8,0.2,1.1-0.2c-4-4.8-8.1-9.6-12.1-14.4c-0.7-0.9-1.5-1.2-2.6-1.2c-15.3-0.2-30.5,0.6-45.8-1.4c-12-1.6-24-2.6-36-3.9
	c-12-1.3-24-2.6-36-3.9c-11.3-1.3-22.5-2.6-33.8-3.8c-1-0.1-1.5-0.5-1.9-1.5c-4.2-9.4-8.4-18.7-12.5-28.1c-0.9-2-1.9-3.4-4.2-3.6
	c-0.6,0-1.3-0.4-1.9-0.6c-1.5-0.5-2.6-1.6-3.2-3.1c-0.1-0.3-0.1-0.8-0.5-1C119.9,171.7,119.9,170.6,119.9,169.6z M260,157.2
	c-0.5-0.1-1-0.3-1.4-0.3c-3.3-0.5-6.7-1.2-10-1.6c-4.2-0.5-8-1.8-11.4-4.4c-2.1-1.6-4.4-2.8-6.5-4.3c-1.1-0.7-1.6-0.7-2.3,0.6
	c-3.1,5.8-6.1,11.7-9,17.7c-0.6,1.2-1.7,2.4-1.4,3.5c0.3,1.1,1.8,1.6,2.8,2.4c4,3.1,8,6.2,12.2,9.1c1.1,0.8,2,0.9,3.1-0.2
	c7.5-7.1,15.1-14,22.7-21.1C259.2,158.2,259.7,157.9,260,157.2z M227.6,75.2c-0.5,0.6-1.2,0.3-1.7,0.4c-8,2.1-13.1,7.2-15.2,14.9
	c-2.1,8,0.4,14.9,6.6,20.3c6,5.2,13,6.1,20.4,3.3c7.2-2.8,11.3-8.2,12.5-15.8c1.6-10.5-4.8-20-15.1-22.5c-1.1-0.3-2.3-0.2-3.4-0.6
	C230.3,75.2,228.9,75.2,227.6,75.2z M306.8,249.3c8.4,0,16.8,0,25.2,0c0-0.1,0-0.1,0-0.2c-8.4,0-16.8,0-25.2,0
	C306.8,249.2,306.8,249.3,306.8,249.3z M183.5,249.1c-6.3,0-12.6,0-18.9,0c0,0.1,0,0.2,0,0.2c6.3,0,12.6,0,18.9,0
	C183.5,249.3,183.5,249.2,183.5,249.1z M194.9,249.1c0,0.1,0,0.1,0,0.2c4.3,0,8.7,0,13,0c0-0.1,0-0.2,0-0.2
	C203.5,249.1,199.2,249.1,194.9,249.1z M183.5,249.1c0,0.1,0,0.1,0,0.2c3.8,0,7.6,0,11.4,0c0-0.1,0-0.1,0-0.2
	C191.1,249.1,187.3,249.1,183.5,249.1z M297.6,249.1c0,0.1,0,0.1,0,0.2c3.1,0,6.1,0,9.2,0c0-0.1,0-0.2,0-0.2
	C303.8,249.1,300.7,249.1,297.6,249.1z M338.5,249.3c-0.1-0.4-0.5-0.3-0.8-0.3c-1.9,0-3.8,0-5.7,0c0,0.1,0,0.1,0,0.2
	C334.1,249.3,336.3,249.3,338.5,249.3z M160.2,249.1c0,0.1,0,0.2,0,0.2c1.4,0,2.9,0,4.3,0c0-0.1,0-0.2,0-0.2
	C163.1,249.1,161.7,249.1,160.2,249.1z M293.6,249.1c0,0.1,0,0.2,0,0.2c1.4,0,2.7,0,4.1,0c0-0.1,0-0.1,0-0.2
	C296.3,249.1,294.9,249.1,293.6,249.1z M183.5,249.1c3.8,0,7.6,0,11.4,0c4.3,0,8.7,0,13,0c11.2,0,22.4-0.2,33.7-0.1
	c3.4,0,6.2-0.9,9-2.6c4.9-3.1,7.9-7.4,8.7-13.2c0.3-2.1,0.1-2.3-2-2.6c-2.7-0.3-5.5-0.6-8.2-0.9c-8-0.9-16-1.7-24-2.6
	c-8-0.9-15.9-1.7-23.9-2.5c-9.8-1-19.5-2.1-29.3-3.1c-9.3-1-18.5-1.8-27.8-2.9c-1.8-0.2-3,0.4-4,1.8c-2,3.1-3,6.6-3,10.3
	c-0.1,9.8,8.5,18.3,17.1,18.1c2.1-0.1,4.1,0.1,6.2,0.2c1.4,0,2.9,0,4.3,0C170.9,249.1,177.2,249.1,183.5,249.1z"/>
</svg>
