<?xml version="1.0" encoding="utf-8"?>
<!-- Generator: Adobe Illustrator 19.0.0, SVG Export Plug-In . SVG Version: 6.00 Build 0)  -->
<svg version="1.1" id="Layer_1" xmlns="http://www.w3.org/2000/svg" xmlns:xlink="http://www.w3.org/1999/xlink" x="0px" y="0px"
	 viewBox="0 0 512 512" style="enable-background:new 0 0 512 512;" xml:space="preserve">
<style type="text/css">
	.st0{fill:#E65B25;}
	.st1{fill:#FFFFFF;}
</style>
<path class="st0" d="M256,0C161.7,0,85.3,76.4,85.3,170.7S161.7,341.3,256,341.3V512l151.1-262c12.5-23.7,19.6-50.7,19.6-79.4
	C426.7,76.4,350.3,0,256,0z"/>
<path class="st1" d="M409.6,170.7c0,84.8-68.8,153.6-153.6,153.6s-153.6-68.8-153.6-153.6S171.2,17.1,256,17.1
	S409.6,85.8,409.6,170.7z"/>
<path d="M150.8,254.5c3.9-15.3,9-30.4,11.3-46.1c0.1-0.8,0-1.7,0.3-2.4c0.5-1.3,1.1-2.6,2-3.6c2.3-2.4,4.8-4.5,7.1-6.9
	c2.7-3,3.6-6.8,3.7-10.7c0.1-4.5,0-8.9,0-13.6c-0.4,0.3-0.6,0.4-1,0.7c-0.5-3.9-0.3-7.7,1.6-11.8c-0.9,0.7-1.3,1-1.8,1.4
	c-2-6.8,1.8-13.7,10.6-19.1c-0.4-0.2-0.6-0.4-0.9-0.5c-0.1-0.2-0.1-0.4-0.2-0.6c2-0.6,4-1.1,6.1-1.7c-0.2-0.2-0.5-0.4-1-0.9
	c2.4-0.3,4.5-0.6,6.2-0.8c0.6-0.7,1-1.5,1.5-1.7c2.8-1,5.7-0.9,8.7-0.4c3.7,0.7,7.6,0.4,11.4,0.5c4.3-3.3,9.5-0.9,14.1-2.2
	c2.5-0.7,5.1-1.3,7.6-1.9c0.3-0.1,0.6-0.1,0.8-0.3c1.1-1.6,2-3.3,3.3-4.7c0.9-1,2.3-1.7,3.6-2.5c-0.2-0.1-0.6-0.2-1.1-0.4
	c1.5-3.8,5.1-5.6,7.4-8.6c0.2-0.4,0.4-1,0.7-1.3c1.1-1,3-0.6,3.7-2.4c0.1-0.3,0.9-0.4,1.3-0.5c2.6-0.2,5.2-0.4,7.8-0.7
	c0.5-0.1,0.9-0.7,1.4-0.7c1.2,0,2.5,0.1,3.6,0.5c4.2,1.3,8.4,2.2,12.8,1c2.5-0.7,3.4-1.5,5.1-4c-1.1-0.9-2.4-1.7-3.5-2.7
	c-1.2-1.1-2.2-2.4-3.4-3.5c-0.7-0.6-1.5-1.4-2.3-1.5c-6.8-0.8-13.6-1-20.3-2.3c-4.9-0.9-9.8-2.8-14.3-4.9c-4.7-2.3-6.7-6.8-7.4-12.3
	c2.2,2.3,4,4.3,5.9,6.2c1.8,1.6,3.6,1.5,5.1-0.3c-3.9-2.9-6.6-6.7-8.3-11.2c-0.2-0.5-0.1-1.1-0.2-1.7c0.2-0.1,0.4-0.2,0.6-0.3
	c0.7,1,1.5,2,2.2,3c2.4,3.5,5.6,5.6,9.9,6c2.4,0.3,3.6-0.5,3.8-2.9c0.1-1.3-0.2-2.7-0.4-4.1c-0.3-2.4-0.8-4.7-1-7.1
	c-0.1-0.9,0.4-1.8,0.6-2.7c0.2,0,0.4,0,0.6-0.1c0.3,0.6,0.7,1.2,1,1.8c1.1,2.8,2.3,5.6,3.3,8.5c1.5,4.4,4.8,7.1,8.8,9.1
	c1.4,0.7,2,0.2,2-1.3c0.2-4.7,1.8-8.9,4.8-12.5c0.6-0.7,1.4-1.3,2.4-1.8c-3.2,6.8-3,13.3,0.9,19.6c0.7-0.8,1.2-1.9,2-2.1
	c0.9-0.2,2,0.2,2.9,0.6c1.8,0.6,3.6,1.4,5.4,2.1c1.8,0.7,2.8,2,3,4c0.2,1.8,0.9,3.6,1.5,5.3c0.2,0.4,1.4,0.8,1.9,0.6
	c3.3-1.6,6.5-1.1,9.6,0.2c1.9,0.8,2.9,0.1,3.8-1.3c0.5-0.8,1-1.7,1.3-2.6c2.1-5.6,7-7.5,12.1-9c0.3-0.1,0.6-0.1,0.8,0
	c0.2,0,0.5,0.2,1,0.4c1-5.2,1.3-10.2-1.8-14.8c0.1-0.1,0.3-0.3,0.4-0.4c0.7,0.6,1.6,1.1,2.2,1.8c3,3.5,4.6,7.6,4.9,12.3
	c0.1,2.2,0.5,2.5,2.5,1.5c4-2.1,7.1-4.9,8.6-9.3c1.1-3.3,2.5-6.5,3.8-9.8c0.2,0,0.5,0,0.7-0.1c0.3,0.9,0.9,1.8,0.8,2.6
	c-0.2,2.5-0.6,4.9-1.1,7.3c-0.5,2.2-1.1,4.5,0.7,6.2c1.8,1.6,4.1,0.5,6.1-0.1c2.9-1,5.1-2.9,6.7-5.5c0.6-0.9,1.3-1.8,2-2.7
	c0.2,0.1,0.5,0.2,0.7,0.3c-0.3,1.1-0.4,2.4-1,3.3c-2.1,3-4.4,5.8-6.6,8.6c-0.3,0.4-0.8,1-0.7,1.3c0.1,0.4,0.9,0.9,1.2,0.9
	c1.3-0.3,2.9-0.5,3.9-1.3c1.9-1.6,3.5-3.6,5.6-5.8c-0.7,5.5-2.7,9.7-7.2,12.3c-5.2,3-10.8,4.8-16.8,5.4c-7,0.7-14,1.4-21,2.2
	c-5.5,0.6-7.4,3.7-6.3,9.7c0.2,1.2-0.7,2.6-1,3.9c-0.3,1.2-0.5,2.5-0.8,3.6c-1.2,3.8-0.1,7.2,1,10.8c0.9,2.9,0.6,6.1,0.9,9.2
	c0.2,2-1.5,3.8-3.4,3.9c-0.6,0.1-1.6,0.8-1.8,1.4c-0.7,3.2-1.2,6.4-1.7,9.2c-2-0.7-4.4-1.7-7-2.7c0.6-1.5,1.2-3.2,1.9-4.9
	c-0.2-0.1-0.4-0.2-0.7-0.4c-0.5,0.8-1.3,1.5-1.5,2.4c-0.7,3-2.4,5.3-4.8,7.1c-1.9,1.5-2.2,3.7-1.7,5.8c0.9,4.6-0.7,8.6-2.5,12.6
	c-1.4,3.2-2.7,6.4-3.9,9.6c-0.1,0.4-0.1,0.8-0.2,1.2c-0.7,8.8-1.6,17.6-2.1,26.3c-0.2,2.6,0.6,5.3,0.9,7.9c0.3,2.2,0.9,4.3,1,6.4
	c0.2,6.5,0.2,13,0.4,19.4c0,1.1,0.4,2.3,0.8,3.4c2.1,6,4.4,12,8,17.4c1.9,2.8,1.2,4.3-2.3,4.5c-2,0.1-3.9-0.5-5.9-0.8
	c-0.5-0.1-1.2-0.5-1.3-0.9c-0.9-3.7-4.4-6.3-3.9-10.7c0.7-5.3,0.6-10.7-0.9-16c-1.2-4.3-2-8.7-3-13.1c-1.5-6.5-2.9-13-4.8-19.4
	c-1.4-4.6-1.5-9.2-2-13.8c-0.2-2-0.8-4-1.3-6c-0.2-0.7-0.7-1.4-1.1-2c-0.2,0-0.4,0.1-0.5,0.1c-0.3,2.1-0.6,4.1-0.7,6.2
	c-0.6,8.4-1.1,16.9-1.7,25.3c-0.2,2.7-0.7,5.3-1.2,7.9c-2.4,12.2-2.7,24.3,0.7,36.4c0.5,1.7,0.8,3.4,1.3,5c0.8,2.5,0,4.4-2.3,6
	c-0.4-0.3-0.9-0.7-1.4-1.2c-0.4,0.6-0.9,1.1-1.4,1.9c-2.6-1.9-4.6-3.9-4.8-7.3c-0.1-1.8-0.7-3.7-0.7-5.5c0.1-2.9,0.5-5.9,0.8-8.8
	c0.6-7.2,1.2-14.4,1.7-21.6c0.1-1.1-0.6-2.2-0.8-3.4c-0.4-2.3-1.3-4.6-1.1-6.8c0.4-4-0.4-7.8-1.4-11.6c-1.7-6.9-2.4-14-1.9-21.1
	c0-0.3,0-0.7,0-1.1c-2.6-0.4-5.2-0.5-7.1,1.3c-3,2.8-6.6,3.3-10.3,3.6c-5.3,0.5-10.4-0.6-15.5-1.9c-0.7-0.2-1.4-0.4-2.4-0.6
	c-1.5,4.6-3.7,8.7-3.8,13.7c-0.1,7-0.9,13.8-2.5,20.7c-1.9,8-1.3,16.2-0.6,24.3c0.3,2.9,0.6,5.8,1,8.6c0.4,2.9,1.2,5.6,3,8
	c1,1.4,1.5,3.2,2.2,4.8c-0.1,0.1-0.3,0.2-0.4,0.3c-0.6-0.3-1.1-0.6-2.1-1.2c0.6,1,1,1.6,1.9,2.9c-2.6-0.5-4.6-0.8-6.7-1.3
	c-2.7-0.6-3-2.9-3.4-5.1c-1.7,0.7-2.2,0-2.2-1.5c0-0.5,0-1,0.1-1.4c2.8-7.7,0.2-14.9-2.1-22.2c-0.8-2.4-1.8-4.8-3.1-7
	c-1.4-2.5-1.5-5-0.7-7.7c0.9-2.8,1.5-5.7,2-8.6c1.7-9-1.3-17.3-4.3-25.8c-1.5,1.4-2.7,2.7-4.1,3.8c-2.4,1.9-4.9,3.7-7.3,5.7
	c-0.8,0.6-1.6,1.4-2,2.3c-1.3,2.7-3.4,4.7-6,6.1c-4,2.1-6.7,5.4-8.3,9.6c-3.1,8-6.6,15.9-7.8,24.5c-1,7.5-0.1,14.8,1.1,22.2
	c0.1,0.8,0.1,1.6,0.2,2.7c-2.2,0-4.2,0.2-6.2-0.1c-2.7-0.4-3.4-1.3-3.4-4c0.1-2.4,0.4-4.9,0.7-7.4c-0.5,0.4-1,0.7-1.4,1.1
	C150.8,257.2,150.8,255.9,150.8,254.5z"/>
</svg>
