<?xml version="1.0" encoding="utf-8"?>
<!-- Generator: Adobe Illustrator 19.0.0, SVG Export Plug-In . SVG Version: 6.00 Build 0)  -->
<svg version="1.1" id="Layer_1" xmlns="http://www.w3.org/2000/svg" xmlns:xlink="http://www.w3.org/1999/xlink" x="0px" y="0px"
	 viewBox="0 0 512 512" style="enable-background:new 0 0 512 512;" xml:space="preserve">
<style type="text/css">
	.st0{fill:#E65B25;}
	.st1{fill:#FFFFFF;}
	.st2{fill:#010101;}
</style>
<path class="st0" d="M256,0C161.7,0,85.3,76.4,85.3,170.7S161.7,341.3,256,341.3V512l151.1-262c12.5-23.7,19.6-50.7,19.6-79.4
	C426.7,76.4,350.3,0,256,0z"/>
<path class="st1" d="M409.6,170.7c0,84.8-68.8,153.6-153.6,153.6s-153.6-68.8-153.6-153.6S171.2,17.1,256,17.1
	S409.6,85.8,409.6,170.7z"/>
<path class="st2" d="M378.1,141.6c0,0.1,0,0.2,0.1,0.2c0,0.7-0.3,2.2-0.9,2.4c-1.8,0.7-5.1,0.7-5.1-3.8c0-6.1,10-9,14.9-7.1
	s7.2,5.2,8.4,7.9c1.8,4,1.4,13,0.7,15.3c-0.8,2.8-3.3,8.2-8.9,12.5c-5.1,3.9-9.4,5-15.3,6.3c-3.3,0.7-6.8,0.7-10.1,0
	c-3.2-0.7-7.5-1.5-12.8-4.1c-7.3-3.5-16-11.4-20.3-15.8c-1.8-1.8-4.4-2.6-6.9-2.1l-0.3,0.1c0,0-1.3,11.6-5,22
	c-1,2.8-1.5,5.7-1.5,8.7c0.1,4.8,0.6,11.6,2.1,14.9c1.2,2.7,1.7,4.7,1.9,5.7c0.1,0.8,0.3,1.1,0.9,1.8l0,0c1.3,0.9,2.1,2.5,2.1,4.1
	l-0.1,4.4c0,0-2.9,17.6-3,27.1c0,1.1-0.9,1.9-1.9,1.9c-3.4,0-10.5,0-13.9,0c-1.1,0-1.9-0.9-1.9-1.9v-3.7c0-1.1,0.9-1.9,1.9-1.9h3.8
	c1.1,0,2.1-0.7,2.4-1.8c1.1-4,3.5-13.6,2.3-19.5c-1.6-7.5-13.2-20.1-17.9-24.2c0,0-0.2,11.5,1.4,18.2c0.4,1.8,0.3,3.8-0.5,5.5
	c-2.8,6.3-9.2,20.8-11.1,23.6c-0.3,0.5-0.5,1.1-0.5,1.8v3c0,1.3-0.9,2.1-1.9,2.1h-13.9c-1.1,0-1.9-0.9-1.9-1.9v-3.9
	c0-1.1,0.9-1.9,1.9-1.9h4.9c0.9,0,1.8-0.5,2.2-1.3c2.3-4.5,9.5-18.8,10.4-21.5c1-3.1-12.3-23.6-12.3-23.6s-4.7-4.9-4-13.8
	c0.1-1.1-0.8-2.1-2-2.1c-2.8-0.1-7.7,0.3-11.9,3.7c-5.4,4.3-28.2,2.8-33.9,2.3c-0.8-0.1-1.5,0.4-1.8,1.1c-1.6,3.4-6.3,13.3-9.3,18.7
	c-1,1.7-1.5,3.7-1.5,5.7c0,4.8,0,13.7,0,17c0,0.8,0.1,1.6,0.3,2.4c0.9,4.3,3.6,18.6-0.4,21.2l-27.5,1c-0.5,0-1-0.4-1-1l0-6.5
	c0-0.4,0.3-0.8,0.7-0.9c2.6-0.7,10.2-3.3,11.2-6.3c1.3-3.6,4.6-27.2,1.7-33.5c-2.9-6.3-5.9-17.6-6.7-24.7s-13-14.6-13-19.7
	c0-1.6-0.2-2.7-0.6-3.5c-0.6-1.4-2.4-1.6-3.3-0.4l-3.3,4.5c-3.2,4.4-9.7,4.7-13.3,0.5c-0.9-1-1.7-2.2-2.6-3.7
	c-2.9-4.9-4.8-7.8-6-9.6c-1.5-2.2-2.4-4.6-2.7-7.3l-1.1-10.2c0,0-8.8-7.7-10.1-15.3c-0.3-1.6,0.6-3.2,2.1-3.8
	c1.9-0.8,3.5-0.1,7.5,2.5l3.9,2.2c1.1,1,2.5,1.5,3.9,1.5l7.9,0c2.1,0,5.1-0.9,6.8-2.1c2.1-1.5,6.6-3,9.5-3.3
	c1.2-0.1,2.1-1.1,2.1-2.4c0-0.7,0-1.4,0-2.1c0-1.1,0.9-2.1,2.1-2.1h3.4c1.8,0,3.3,1.5,3.3,3.3v1.1c0,1.5,1.3,2.6,2.7,2.4
	c6.1-0.8,21.2-2,28.1,5.1c8.8,9.1,61.8,6,61.8,6s24.2-2.8,35.2,7.2c11,10,12.1,8.6,25.7,25.6s27.5,18.2,31.1,18.2
	c3.6,0,15.2-2.3,20.2-10.5c4.1-6.6,3.7-10.4,3.7-10.4s0.1-4.5-2.1-7.1c-1.8-2.2-5.4-3.9-5.4-3.9s-2.6-0.7-5.1,1
	c-0.5,0.3-1,0.7-0.9,1.3L378.1,141.6z"/>
</svg>
