<?xml version="1.0" encoding="utf-8"?>
<!-- Generator: Adobe Illustrator 19.0.0, SVG Export Plug-In . SVG Version: 6.00 Build 0)  -->
<svg version="1.1" id="Layer_1" xmlns="http://www.w3.org/2000/svg" xmlns:xlink="http://www.w3.org/1999/xlink" x="0px" y="0px"
	 viewBox="0 0 512 512" style="enable-background:new 0 0 512 512;" xml:space="preserve">
<style type="text/css">
	.st0{fill:#E65B25;}
	.st1{fill:#FFFFFF;}
</style>
<g>
	<path class="st0" d="M256,0C161.7,0,85.3,76.4,85.3,170.7S161.7,341.3,256,341.3V512l151.1-262c12.5-23.7,19.6-50.7,19.6-79.4
		C426.7,76.4,350.3,0,256,0z"/>
	<path class="st1" d="M409.6,170.7c0,84.8-68.8,153.6-153.6,153.6s-153.6-68.8-153.6-153.6S171.2,17.1,256,17.1
		S409.6,85.8,409.6,170.7z"/>
</g>
<g>
	<path d="M372,155.2c5.1-2.1,6.1-10.8-0.6-12.6c-5.1-1.3-10.3-1.7-15.5-1.4c11.1-10.3,16.4-18.3,8.2-20.1
		c-7.1-1.5-12.9-4.3-18.1-7.1c1.4-17.6,2.8-43.2-21.6-42.8c-8.5,0.1-8.5,13.4,0,13.2c10.8-0.2,10.3,12.6,9.2,22.6
		c-8.8-4.4-17.5-6-30.5,2.2c-25.7,16.2-73.5,14.7-111.8-2.9c-38.2-17.6-39-4.4-39-4.4s-41.2,58.4-13.2,36
		c10.2-8.2,25.3-7.1,41.9-1.4c-19-3.8-40.7,1.6-57,17.1c-4.1,3.9-1.3,9.4,2.8,10.8c-5.4,7.9-8.6,17.4-8.6,27.8
		c0,27.1,22,49.1,49.1,49.1c26.9,0,48.8-21.7,49.1-48.6c3.6,0.5,7.5-1.6,7.2-6.3c-1-15.5-6.9-27.7-15.7-36.2
		c0.2-0.4,0.4-0.7,0.6-1.1c17.4,9.7,34.3,21.9,47,31.6c-0.2,0.3-0.4,0.6-0.6,0.9c-1.5,2.9-2.9,5.9-4.4,8.8c-1.6,3.2-0.9,7.1,2.4,9
		c2.9,1.7,7.4,0.9,9-2.4l4-8.1c6.8,5.5,10.9,9.2,10.9,9.2s4.2-2.6,10.7-6.9c-0.6,2.9-0.9,5.8-1,8.9c-0.1,6.5,7.5,8,11.2,4.7
		c3.9,23.2,24,40.8,48.3,40.8c27.1,0,49.1-22,49.1-49.1C395,179.2,385.8,163.8,372,155.2L372,155.2z M167.3,228.1
		c-19.7,0-35.8-16.1-35.8-35.8c0-19.8,16.1-35.8,35.8-35.8c6.6,0,12.8,1.8,18.1,5c-6.7,9.8-14.2,19.2-22.2,28.1
		c-5.7,6.3,3.6,15.7,9.4,9.4c8.2-9.2,15.9-18.7,22.9-28.8c4.8,6.1,7.7,13.8,7.7,22.2C203.1,212,187.1,228.1,167.3,228.1L167.3,228.1
		z M338.7,178.1c-3.6-4.1-7.4-8.1-11.3-12c3.2-1.9,6.7-3.4,10.4-4.3C338.1,167.2,338.3,172.7,338.7,178.1L338.7,178.1z M345.9,232.5
		c-19.8,0-35.8-16.1-35.8-35.8c0-8.3,2.8-15.8,7.5-21.9c9.2,9.4,18.2,19,24.2,31c3.7,7.3,13.1,1.7,12.1-5.1
		c-1.9-13.1-2.5-26.3-3.1-39.5c17.4,2.4,30.9,17.4,30.9,35.5C381.8,216.4,365.7,232.5,345.9,232.5L345.9,232.5z M345.9,232.5"/>
</g>
</svg>
