<?xml version="1.0" encoding="utf-8"?>
<!-- Generator: Adobe Illustrator 19.0.0, SVG Export Plug-In . SVG Version: 6.00 Build 0)  -->
<svg version="1.1" id="Layer_1" xmlns="http://www.w3.org/2000/svg" xmlns:xlink="http://www.w3.org/1999/xlink" x="0px" y="0px"
	 viewBox="0 0 512 512" style="enable-background:new 0 0 512 512;" xml:space="preserve">
<style type="text/css">
	.st0{fill:#E65B25;}
	.st1{fill:#FFFFFF;}
</style>
<path class="st0" d="M256,0C161.7,0,85.3,76.4,85.3,170.7S161.7,341.3,256,341.3V512l151.1-262c12.5-23.7,19.6-50.7,19.6-79.4
	C426.7,76.4,350.3,0,256,0z"/>
<path class="st1" d="M409.6,170.7c0,84.8-68.8,153.6-153.6,153.6s-153.6-68.8-153.6-153.6S171.2,17.1,256,17.1
	S409.6,85.8,409.6,170.7z"/>
<path id="XMLID_19_" d="M310.6,218.3c0.4-0.3,0.5-0.9,0.6-1.4c0.3-1,1.3-4.6-0.1-7.6c-0.5-1.2-11.4-22-13.5-26.1
	c-0.8-1.6-2.7-3.7-4.2-3.7c-4.8-0.1-25.3,4.1-28.5,4.1c-0.5,0-1,0.2-1.3,0.6c-1.8,1.8-3.2,3.1-4.4,4.7c-0.5,0.7-0.7,2-0.5,2.9
	c0.9,3.3,11.6,30.9,12.1,32.6c1.9,6.6,2.9,14.5-3.9,20.2c-1,0.8-1.9,2-3,2.1c-3,0.2-6,0.1-9.3,0.1c-1,0-1.8-0.8-1.9-1.8
	c-0.2-3.3-1-6.4,3.8-7.6c0.7-0.2,1.3-3.4,1-5c-1-4.7-4.4-16.3-4.9-17.4c-0.6-1.5-8.1-13.7-9.4-18.5c-1.1-4.1-12.4-10.2-13.8-10.6
	c-3.6-1.1-7.3-1.9-11.1-2.7c-0.4-0.1-1.5,0.9-1.5,1.3c0.3,4.2-1.6,7.2-4.4,9.9c-2.6,2.4-4.9,5.1-7.5,7.5c-2.1,1.9-4.4,3.5-6.7,5.2
	c-3.8,2.9-7.8,5.5-11.3,8.6c-2.3,2-3.9,4.9-6,7.2c-1.9,2.2-3.7,4.6-6.1,6.2c-3.2,2.2-8.1,2.7-10.2,5.5c-4.4,5.7-9.5,3.1-14.5,3.1
	c-0.1,0-0.3-0.2-0.9-0.6v-5c0-0.6,0.3-1.2,0.8-1.6c5.7-3.7,11.2-6.8,16-10.8c3.9-3.3,13.6-14.3,15.1-15.9c3.2-3.5,6-7.3,9.2-10.7
	c0.1-0.1,0.1-0.1,0.2-0.2c2.3-1.6,4-4,4-6.9c0-1.6,0-3.2,0-4.8c0-5.8-5.3-7.9-7.8-11.7c-3.3-5-24.3-14.7-29-19
	c-3.7-3.4-13.7-3.3-17.7-0.1c-1.1,0.8-2.2,1.3-3.5,1.7c-7.4,2.1-10,0.5-17.2-6.1c-0.8-0.8-0.8-2.1,0-2.8c3.7-3.1,7.4-6.1,10.8-9.5
	c1.9-1.8,3.8-4.5,4.1-6.9c0.9-6.9,4-12,9.7-15.8c0.6-0.4,0.6-2,0.6-3c0-2.5-0.4-5.1,0-7.6c0.3-2.5-0.2-7.2,2.5-8.2
	c3.8-1.3,5.2,1.2,10.5,3.6c3.7,1.6,7.1,4.2,10.1,6.9c4.4,4.1,29.4,10.5,31.2,11.2c1.6,0.6,3.3,1.3,4.9,1.4c11,0.2,22.2-1.4,33.1,0.5
	c2,0.4,5.1,1.9,8,2.9c1.5,0.5,3.2,0.7,4.7,1c12.8,2.6,25.6,2,38.5-0.1c1.2-0.2,2.7-0.4,3.9-1c2.2-1.3,4.6-2.2,7.1-2.5
	c28.2-3.9,52,12.1,59.9,27.5c0,0,0,0.1,0,0.1c0.2,0.4,0.5,0.8,0.8,1c1.1,0.8,3.3,3.5,6.2,12.5c1.8,5.7,3.9,8.9,6.5,13.2
	c3.5,5.7,10,8.2,12.5,15.3c1.5,4.2,3.8,8,3.7,12.7c0,1.2-0.2,3.2-0.9,3.5c-6,2.6-4.1,7.9-4.1,12.3c0,3.9,1.2,7.8,2.8,11.3
	c0.2,0.5,0.2,1.1,0,1.6c-0.8,1.7-1.5,3.4-2.5,4.9c-1.8,2.7-8.2,7-11.8,8.5c-0.8,0.3-1.9,0-2.3-0.7c-1.1-2-5.7-3.4-0.7-7.1
	c3.5-2.5,7.7-8,4.7-13.4c-3.7-6.7-2-9.7-14.1-18.5c-3.5-2.6-16.5-10.1-18.2-11c-2.5-1.3-10.4-6.2-12.2-4.1c-2.3,2.6-5,4.7-7,7.4
	c-0.7,1-0.4,3.3,0.2,4.6c2.1,4.8,4.6,8.8,6.5,13.6c0.6,1.6,0.1,2.8-1,3.9c-3.6,3.6-6.6,5.8-10.2,9.4c-3.9,4-7.4,8.3-11.2,12.4
	c-2.9,3.1-5.5,6.8-9.1,8.6c-2.8,1.4-7,0.7-10.5,0.2c-0.8-0.1-2-3.2-1.2-4.7c1.4-2.8,2.5-7.1,7.2-8.5c3.5-1,6.3-4.5,9.3-7
	C304.9,223.5,307.4,221.2,310.6,218.3z"/>
</svg>
