<?xml version="1.0" encoding="utf-8"?>
<!-- Generator: Adobe Illustrator 19.0.0, SVG Export Plug-In . SVG Version: 6.00 Build 0)  -->
<svg version="1.1" id="Layer_1" xmlns="http://www.w3.org/2000/svg" xmlns:xlink="http://www.w3.org/1999/xlink" x="0px" y="0px"
	 viewBox="0 0 512 512" style="enable-background:new 0 0 512 512;" xml:space="preserve">
<style type="text/css">
	.st0{fill:#E65B25;}
	.st1{fill:#FFFFFF;}
</style>
<path class="st0" d="M256,0C161.7,0,85.3,76.4,85.3,170.7S161.7,341.3,256,341.3V512l151.1-262c12.5-23.7,19.6-50.7,19.6-79.4
	C426.7,76.4,350.3,0,256,0z"/>
<path class="st1" d="M409.6,170.7c0,84.8-68.8,153.6-153.6,153.6s-153.6-68.8-153.6-153.6S171.2,17.1,256,17.1
	S409.6,85.8,409.6,170.7z"/>
<path d="M288.8,177.4c-42.7,13.4-85,27.5-132.2,17.4c26.9-15.8,52.4-30.9,78.6-46.3c-4.5-12.2-9.1-24.4-13.8-37.2
	c-12.3,6.1-23.7,11.8-35.1,17.5c-7.5,3.8-15,7.6-22.6,11.3c-7,3.4-13.5,1.4-16.4-4.6c-2.8-5.8-0.4-11.9,6.4-15.3
	c21.6-10.9,43.2-21.8,65-32.5c7.6-3.8,12.8-1.9,18.1,6.3c6.5,10.1,12.7,20.3,19.1,30.5C266.7,142.1,277.7,159.7,288.8,177.4z
	 M301.2,199.2c-14.7,2.3-29.2,6.7-43.6,10.9c-48.2,14.1-95.6,18.2-142.3-8.6c10.3,14.5,22.9,24.8,38.2,32.1
	c26.6,12.6,54.5,11.8,82.3,6.1c22.1-4.5,43.7-11.8,65.8-16.3c27.8-5.7,54.6-2.8,78.9,15.9C365.8,212.5,330.8,194.6,301.2,199.2z
	 M292.6,130.8c0.1,18.4,15.3,33.7,33.7,33.7c18.8,0,33.9-15.2,33.7-34.1c-0.1-18.7-15-33.3-33.9-33.2
	C307.7,97.2,292.6,112.3,292.6,130.8z"/>
</svg>
