<?xml version="1.0" encoding="utf-8"?>
<!-- Generator: Adobe Illustrator 19.0.0, SVG Export Plug-In . SVG Version: 6.00 Build 0)  -->
<svg version="1.1" id="Layer_1" xmlns="http://www.w3.org/2000/svg" xmlns:xlink="http://www.w3.org/1999/xlink" x="0px" y="0px"
	 viewBox="0 0 512 512" style="enable-background:new 0 0 512 512;" xml:space="preserve">
<style type="text/css">
	.st0{fill:#E65B25;}
	.st1{fill:#FFFFFF;}
	.st2{fill:#070909;}
</style>
<path class="st0" d="M256,0C161.7,0,85.3,76.4,85.3,170.7S161.7,341.3,256,341.3V512l151.1-262c12.5-23.7,19.6-50.7,19.6-79.4
	C426.7,76.4,350.3,0,256,0z"/>
<path class="st1" d="M409.6,170.7c0,84.8-68.8,153.6-153.6,153.6s-153.6-68.8-153.6-153.6S171.2,17.1,256,17.1
	S409.6,85.8,409.6,170.7z"/>
<path id="XMLID_8_" class="st2" d="M219.8,249.8c0,0-98.4-41.1-98.6-73c0,0-4.8-20.6,1.7-38.8h5.7l0.4-22l6.7-11.5
	c0,0,4.4-1.3,2.5,21h11.1c0,0,11.5-12.2,16.4-36.5c0,0,6.7-4.8,4,31.7c0,0,12.8,10.5,26.7,0c0,0-3.1-2.3,12.2-26
	c0,0,4.6-3.8,3.4,35.9c0,0,15.1,9,21.8,0.4c0,0,6.7-16.4,12.6-18.7c5.9-2.3,2.5,28.3,2.5,28.3s-11.7,5.9-10.1,16.4
	c0,0-3.8-6.1-15.9-5.9c0,0,0.4-7.3-15.1-4.8c0,0,5.9-7.3-23-5.5c0,0-20.4-10.1-40.1,0l-10.9,0.2c0,0-11.1,11.5-0.2,37.8
	c0,0,5.5,13.4,12.8,0.2c0,0,8-20.1,11.3-23.1c0,0,3.1,7.1,2.9,48.5c0,0,16.8,10.5,20.3-0.4c0,0,4.6-17.8,13.2-22.4
	c0,0,2.7-5,1.9,38.8c0,0,14.9,11.1,21.4,0.2c0,0,12.2-6.7,12.4-10.9c0,0,2.7-3.6,3.1,20.8C232.8,230.3,218.8,245,219.8,249.8z
	 M259.6,177.2c-16.2,0-29.3,3.8-29.3,8.5s13.1,8.5,29.3,8.5s29.3-3.8,29.3-8.5S275.7,177.2,259.6,177.2z M250.8,237.6
	c-4.7,0-8.5,3.8-8.5,8.5s3.8,8.5,8.5,8.5s8.5-3.8,8.5-8.5S255.5,237.6,250.8,237.6z M260.2,150.8c-3.6,0-6.6,3-6.6,6.6
	s3,6.6,6.6,6.6s6.6-3,6.6-6.6S263.9,150.8,260.2,150.8z M245.4,217.2c0,3,3.1,5.3,6.9,5.3c3.8,0,6.9-2.4,6.9-5.3
	c0-3-3.1-5.3-6.9-5.3C248.5,211.8,245.4,214.2,245.4,217.2z M275,249.8c0,0,98.8,0.4,116.4-49.9c0,0,6.9-27.7,0-62.3l-5.7-13.8
	l-4.4,20.8c0,0-11.3,4.4-10.1-3.8l-13.2-34l-4.4,30.2H331l-11.3-30.2l-8.8,30.2c0,0-20.8,10.7-22,0l-8.8-17.6l-5,15.1l-4.4,5.7
	l5.7,4.4l4.4,12.9c0,0,40.9-9.8,46.6-6.6c5.7,3.1,18.9-1.3,29.6,3.1c10.7,4.4,24.5,7.6,27.7,10.1c3.1,2.5,0.6,30.2,0.6,30.2
	l-10.7,10.1l-18.9-26l-5.7,33.6c0,0-3.8,17-22,10.7l-8.8-28.3l-3.8,23l-1.9,11c0,0-16.4,18.3-24.5,0.6l-12-17l-1.9,18.3
	C275,230.1,262.4,227.4,275,249.8z"/>
</svg>
