<?xml version="1.0" encoding="utf-8"?>
<!-- Generator: Adobe Illustrator 19.0.0, SVG Export Plug-In . SVG Version: 6.00 Build 0)  -->
<svg version="1.1" id="Layer_1" xmlns="http://www.w3.org/2000/svg" xmlns:xlink="http://www.w3.org/1999/xlink" x="0px" y="0px"
	 viewBox="0 0 512 512" style="enable-background:new 0 0 512 512;" xml:space="preserve">
<style type="text/css">
	.st0{fill:#E65B25;}
	.st1{fill:#FFFFFF;}
	.st2{fill:#070909;}
</style>
<path class="st0" d="M256,0C161.7,0,85.3,76.4,85.3,170.7S161.7,341.3,256,341.3V512l151.1-262c12.5-23.7,19.6-50.7,19.6-79.4
	C426.7,76.4,350.3,0,256,0z"/>
<path class="st1" d="M409.6,170.7c0,84.8-68.8,153.6-153.6,153.6s-153.6-68.8-153.6-153.6S171.2,17.1,256,17.1
	S409.6,85.8,409.6,170.7z"/>
<path id="XMLID_14_" class="st2" d="M327.8,261.4l0.5-3.2l-23.7-119.4h14.5l0.5-70.5h5.4L257.9,37l-71,30.7l5.4,1.1l1.1,66.7
	l14.5,1.6l-24.2,121.1v4.3h-24.7v11.8h194.2v-12.4L327.8,261.4z M282.1,84.9h20.4v15.6h-20.4V84.9z M251.3,189.3
	c-38.7-28-28.5-49.5-28.5-49.5h60.8C295.4,166.7,251.3,189.3,251.3,189.3z M249.8,84.9h15.1v15.6h-15.1V84.9z M214.3,84.9H231v15.6
	h-16.7V84.9z M217.5,174.8l26.9,29.1l-41.4,36L217.5,174.8z M207.3,259.2l48.5-46.3l46.7,46.3H207.3z M304.7,239.9l-36-38.7
	l25.3-26.4C305.8,202.2,304.7,239.9,304.7,239.9z"/>
</svg>
