<?xml version="1.0" encoding="utf-8"?>
<!-- Generator: Adobe Illustrator 19.0.0, SVG Export Plug-In . SVG Version: 6.00 Build 0)  -->
<svg version="1.1" id="Layer_1" xmlns="http://www.w3.org/2000/svg" xmlns:xlink="http://www.w3.org/1999/xlink" x="0px" y="0px"
	 viewBox="0 0 512 512" style="enable-background:new 0 0 512 512;" xml:space="preserve">
<style type="text/css">
	.st0{fill:#E65B25;}
	.st1{fill:#FFFFFF;}
	.st2{fill:#010101;}
</style>
<path class="st0" d="M256,0C161.7,0,85.3,76.4,85.3,170.7S161.7,341.3,256,341.3V512l151.1-262c12.5-23.7,19.6-50.7,19.6-79.4
	C426.7,76.4,350.3,0,256,0z"/>
<path class="st1" d="M409.6,170.7c0,84.8-68.8,153.6-153.6,153.6s-153.6-68.8-153.6-153.6S171.2,17.1,256,17.1
	S409.6,85.8,409.6,170.7z"/>
<path class="st2" d="M130.6,216.8c0.4-2.1,0.9-4.2,1.3-6.3c3-14.9,11.3-26.6,21.7-37.2c0.2-0.2,0.5-0.2,1-0.4
	c1.5,2.7,2.9,5.5,4.5,8.1c12.4,20.4,30.8,32.5,53.3,39c17.1,4.9,34.5,5.5,52.2,4.4c12.5-0.8,24.8-2.4,36.7-6.1
	c23.5-7.2,42-20.5,52.9-43.1c0.3-0.6,0.7-1.2,1-1.8c0.2-0.3,0.3-0.5,0.6-0.9c0.7,0.4,1.4,0.6,1.8,1c11.5,10.6,20.4,22.9,23,38.6
	c1.9,11.4-0.4,22.1-8.6,30.9c-19,20.4-42.7,32.6-69.5,38.8c-9.4,2.1-19,3-28.6,4.4c-0.8,0.1-1.7,0.5-2.5,0.7c-8.8,0-17.6,0-26.4,0
	c-0.8-0.3-1.7-0.7-2.5-0.7c-15.1-0.9-29.8-3.6-44.3-7.8c-16.8-4.9-32.8-11.4-46.7-22.3c-9.9-7.7-17.5-17.2-20-29.9
	c-0.4-1.9-0.7-3.9-1.1-5.8C130.6,219.2,130.6,218,130.6,216.8z M179.6,139.9c-2.2,2.5-4.2,5.4-5.9,8.3c-7.1,12-5.9,23.8,3.9,33.3
	c23.6,22.8,51.6,33.5,84.6,31.1c16-1.2,31.2-5.4,45.7-12.1c12.3-5.7,23.7-12.8,33-22.9c4.7-5.1,7.5-11.1,7.2-18.1
	c-0.1-2.2-0.5-4.4-1.1-6.4c-3.9-12.3-12.8-20.6-22.6-28.2c-0.5,0.5-0.8,0.6-1,0.9c-7.2,11.2-17.7,18.3-29.9,22.9
	c-19.7,7.4-40,7.9-60.4,3.9c-16.7-3.3-31.1-10.5-41-25.8C187.8,131.2,183.5,135.4,179.6,139.9z M266.4,39.1
	c-2.1,8.1-6,15.4-10.9,22.2C244.7,76.4,230.1,87,213.5,95c-5.2,2.5-8.7,6.4-11.2,11.2c-3.3,6.2-2.7,12.3,1.7,17.9
	c4.4,5.6,10.5,8.9,16.9,11.5c7.7,3.2,15.9,4.4,24.2,5c14,0.9,27.9,1.3,41.6-2.1c9-2.3,17.7-5.7,23.2-13.7c7.8-11.3,8.2-24.5-5.7-33
	c-3.9-2.4-8.1-4.3-12.3-6.1c-1.8-0.8-2.6-1.6-2.7-3.7c-0.2-4.2-0.5-8.4-1.2-12.5c-1.6-9.4-4.1-18.5-10.3-26.1c-2.7-3.3-6-5.7-10.3-7
	C267,37.4,266.7,38.2,266.4,39.1z"/>
</svg>
