<?xml version="1.0" encoding="utf-8"?>
<!-- Generator: Adobe Illustrator 19.0.0, SVG Export Plug-In . SVG Version: 6.00 Build 0)  -->
<svg version="1.1" id="Layer_1" xmlns="http://www.w3.org/2000/svg" xmlns:xlink="http://www.w3.org/1999/xlink" x="0px" y="0px"
	 viewBox="0 0 512 512" style="enable-background:new 0 0 512 512;" xml:space="preserve">
<style type="text/css">
	.st0{fill:#E65B25;}
	.st1{fill:#FFFFFF;}
</style>
<path class="st0" d="M256,0C161.7,0,85.3,76.4,85.3,170.7S161.7,341.3,256,341.3V512l151.1-262c12.5-23.7,19.6-50.7,19.6-79.4
	C426.7,76.4,350.3,0,256,0z"/>
<path class="st1" d="M409.6,170.7c0,84.8-68.8,153.6-153.6,153.6s-153.6-68.8-153.6-153.6S171.2,17.1,256,17.1
	S409.6,85.8,409.6,170.7z"/>
<path d="M356.4,90.7c-0.5-0.9-1.8-1.6-2.2-2.4c-2-3.9-5.3-6.4-6.6-11c-0.2-1-1.1-2.2-2-2.7c-6-3.9-8.3-11.6-17.4-12.6
	c-1-0.1-1.3-1.3-2.3-1.7h-0.2c-1-0.2-2.3,0.4-2.6,1.2c-0.2,0.9-1.7,1-2.7,1.1c-5.6,0.7-8.4,4.2-11.6,7.3c-0.7,0.7-1.7,2.1-2.1,2.9
	c-1.6,3.8-2.7,8.1-2.2,13.9c0.4,4.8,3.2,11.2,5.1,16.4c3.9,9.7,8.8,18.8,9.8,31.6c0.2,2.4,0.2,5.5-0.7,7.9c-0.4,1-1.7,1.3-2.4,0.7
	c-1.3-1.2-2-3.1-3.1-4.5c-2.9-3.7-7.3-7.1-11.7-10.4c-5.6-4.4-10.5-8.1-17.2-10.9c-2.7-1.1-4.6-0.9-8.2-1.3
	c-4.6-0.6-9.8-2.6-15.3-3.5c-4.3-0.7-9.9-1.2-14.2-1.3c-3.7-0.1-9.7,1.6-12.6,0.2c-1.6-0.7-1.5-2.9-2.4-5.5c-1-2.7-3.4-7.7-4.6-9.8
	c-1.2-2.3-3.3-5.1-5.1-7.9c-3.4-4.9-7.5-9.7-11.7-13.9c-2.2-2.2-4.2-5-6.2-6.6c-0.9-0.6-4-2.4-5.5-2.4c-3.9,0-5.3,3.1-7.1,5.9
	c-0.6,0.9-1.8,1.2-2.9,1.2c-3.4-0.4-7,1-9.2,3.1c-1.3,1.3-2,3.8-3.5,5.1c-0.9,0.7-2.1,0.7-3.1,1.3c-3.8,2.7-4.5,7.1-6.5,10.8
	c-0.5,0.9-1.7,1.6-2.8,1.8c-2.4,0.5-4.2,1.7-5.5,3.2c-0.6,0.7-1.3,2.3-1.6,3.2c-1.5,4-4.4,6.8-4,12.2c0.1,1-0.5,2.3-1.2,2.9
	c-4.2,3.2-7.2,7-7.6,13.1c-0.1,1.8,1,3.7,0.9,5.5c0,0.5-0.1,1.1-0.4,1.6c-0.2,0.9-1.3,2-2.1,2.6c-3.4,3.2-5.6,7.3-5.7,12.7
	c0.1,5.1,2.6,9.4,6,13c0.7,0.7,0.7,1.8,0.1,2.6c-3.8,5-3.3,13.1,1.5,17.4c0.7,0.6,1.5,1.7,1.6,2.4c0.1,0.7,0.2,1.5,0.2,1.6v0.2
	c0,0.1,0,0.2,0.1,0.2c0,0.1,0.4,1.1,0.7,2c0.1,0.4,0.4,0.7,0.6,1c0.5,0.9,0.6,2.1,0.1,3.1c-2.6,4.9-2,11.5,2.1,15.4
	c0.7,0.7,1.5,1.2,1.5,1.3c0,0.1-0.2,1-0.4,2v0.1c-0.1,1-0.2,2.2-0.2,2.7v0.9c0.1,0.5,0.1,1,0.2,1.5c0.2,0.7,0.7,2.1,1.2,3.1
	c0.9,1.7,2.2,3.2,3.9,4.3c0.9,0.5,1.6,1.7,1.8,2.7c0,0.2,0.1,0.4,0.1,0.6c0.2,1,0.6,2.1,0.7,2.6l0.4,0.7c0,0,0,0.1,0.1,0.1
	c0,0,0.5,0.9,1.1,1.6c1.2,1.5,2.7,2.7,4.6,3.4c1,0.4,2,1.3,2.4,2.2c1.8,3.5,5.3,6.1,10.4,6.1h0.4c0.2,0,0.9,0.7,1.5,1.5
	c2,2.3,4.9,3.9,8.9,3.9c1.6,0,2.9-0.2,4.2-0.7c1-0.4,2.3-0.7,2.9-0.7h1.3c1,0.1,2.1,1.2,1.3,2l-0.1,0.1c-0.7,0.7-0.5,2.2,0.2,2.7
	c0.9,0.5,0.6,1.8-0.1,2.7c-1.7,2-3.5,3.7-4.4,6.4c-0.4,1,0,2.7,0.9,3.1c1.1,0.4,2.6,0,4,0c1,0,1.8,1.1,1.2,2
	c-1.6,2.4-6.1,2.8-5.4,6.2c0.2,1.3,2,2.1,3.5,2.2c1.6,0.1,3.1-1.1,4.4-1.1c1.2,0,1.7,1.1,3.1,1.6c0.6,0.2,1.5,0,2,0.2
	c1.2,0.6,2.1,2.2,3.5,2.4c3.9,0.7,6.7-3.2,9.8-4.6c0.9-0.5,2,0.4,1.3,1.2c-0.4,0.6-1,1-1.5,1.5c-0.7,0.7,0.1,2.4,1.1,2.7
	c1.3,0.2,2.9-0.4,4-0.7c2.7-1,5-3.1,7.3-4c2.6-1.1,5.7-0.4,8.4-1.2c1-0.2,2.6-0.4,2.7,0.7c0,0.6-0.1,1.2-0.2,1.8
	c-0.4,1-0.6,2.6,0.1,3.2c0.7,0.5,1.6,0.9,1.8,2c0.4,1.2-0.2,2.6-0.2,3.9c0,1,1,2.3,1.8,2.8c2.8,1.5,7.2,2.6,11.6,2.8
	c2.4,0.1,5.1-0.4,6.4,0.9c0.7,0.7,1.6,1.6,2.6,1.6h3.7c1,0,1.8-0.7,1.8-1.6c0-0.9,0.5-2.4,1.3-2.7c0.9-0.2,2-0.4,2.4-1.1
	c0.4-0.5,0.2-1,0.1-1.5c-0.1-0.9,1-1.8,2-2c1.8-0.2,3.7,0.1,5.6,0c2.6-0.1,5-1.2,7.3-0.9c3.1,0.5,5.1,4,8.3,4.8
	c1,0.2,2.4-0.5,2.6-1.5c0.1-1,0.2-2.1,0.9-2.4c0.7-0.6,2.1-0.2,3.2-0.1c1,0.1,1.6-1.2,1.1-2.1c-1-1.5-2.8-2.7-4.3-3.2
	c-6-2.1-16.5-0.4-21.3-4.4c-4.8-4-5.7-14.1-5.1-22.4c0.1-1.7,0.6-3.5,1.5-5c0.6-0.9,2.1-1.3,3.1-1.2c11.7,0.2,19.6-1.5,29.8-2.8
	c3.8-0.5,7.7-2.4,10.9-4.4c3.2-2,5.6-5,8.4-6.6c2.6-1.3,6.1-2.3,7.9-3.8c6.4-5.3,8.6-14.5,11.7-23.2c2-5.3,3.8-7.6,4-14.8
	c0.4-8.7,0.5-19.2-0.5-27.3c-0.4-2.7-1.6-4.9-2-7.3c-0.4-2.4,0.2-4.6,0-6.6c-0.4-3.2-1.6-6.7-2.7-9.5c-0.4-1-1.5-1.7-2-2.7
	c-0.5-1-0.4-2.3-0.9-3.3c-0.6-1.3-2.1-2.4-2.2-4c-0.1-1.8,1.7-2.7,2.4-5.5c0.5-1.7,0-3.9,0.2-5.5c0.2-1.2,1.2-2.3,1.3-3.3
	c0.7-5-2.8-9.8-3.5-14.8c-0.6-4.3-0.9-11.7,3.3-12.6c2.6-0.5,4.5,1.2,6.5,2.2c0.9,0.5,2.1-0.4,1.7-1.2V90.7z M272.5,284.4
	c-1.8,0.9-2.9,0-5.5,0c-2.1,0-4.2,0.9-5.7,0.9c-2.8-0.1-7.7-1.8-9-3.1c-1.6-1.3-4.2-7.5-3.3-10.9c0.4-1.5,2.8-2.4,4-3.8
	c3.8-4,6.5-8.1,9.3-12.1c0.6-0.9,1.2-1.5,1.5-1.5c0.2,0,0.9,0.7,1.3,1.6c3.7,5.9,8.3,11.7,8.8,20c0.1,1,0.7,2.3,1.1,3.3
	C275.9,280.7,274.4,283.5,272.5,284.4L272.5,284.4z M272.5,284.4"/>
</svg>
