<?xml version="1.0" encoding="utf-8"?>
<!-- Generator: Adobe Illustrator 19.0.0, SVG Export Plug-In . SVG Version: 6.00 Build 0)  -->
<svg version="1.1" id="Layer_1" xmlns="http://www.w3.org/2000/svg" xmlns:xlink="http://www.w3.org/1999/xlink" x="0px" y="0px"
	 viewBox="0 0 512 512" style="enable-background:new 0 0 512 512;" xml:space="preserve">
<style type="text/css">
	.st0{fill:#E65B25;}
	.st1{fill:#FFFFFF;}
</style>
<g>
	<path class="st0" d="M256,0C161.7,0,85.3,76.4,85.3,170.7S161.7,341.3,256,341.3V512l151.1-262c12.5-23.7,19.6-50.7,19.6-79.4
		C426.7,76.4,350.3,0,256,0z"/>
	<path class="st1" d="M409.6,170.7c0,84.8-68.8,153.6-153.6,153.6s-153.6-68.8-153.6-153.6S171.2,17.1,256,17.1
		S409.6,85.8,409.6,170.7z"/>
</g>
<path d="M389.6,195.1c-3.4-13.9-11.3-24.9-23.3-32.7c-13.6-8.9-28.4-11.1-44.3-7.4c-0.2-0.8-0.8-1.6-0.6-2.3
	c0.3-1.3-0.8-1.8-1.4-2.3c-0.3-0.4-0.8-0.6-0.9-1.2c-1.1-3.2-2.1-6.4-3.2-9.6c-1.1-3.4-2.3-6.9-3.4-10.4c3,0.4,5.9,0.8,8.9,1.2
	c0-0.5,0.1-0.9,0.1-1.3c3.2,0.4,6.3,0.7,9.4,1.1c-0.1,0.3-0.1,0.4-0.2,0.6c-0.9,1.4-2.3,2.3-3.9,2.8c-1.4,0.4-1.8,1.2-1.4,2.4
	c0.3,0.8,1.3,1.2,2.4,0.9c2.4-0.7,4.4-2.1,5.8-4.3c0.4-0.7,0.7-1.5,1.3-2c0.7-0.6,1-1.1,1.1-2c0-0.4,0.2-0.9,0.5-1.2
	c1.1-1.1,0.7-2-0.2-2.9c-0.7-0.8-1.3-1.6-2.1-2.6c2.2,0.2,4.1,0.5,5.9,0.6c1.1,0.1,1.6,0.5,1.6,1.6c0.1,3.2-1.6,6.2-5.3,7.4
	c-1.1,0.4-1.6,1.1-1.3,2.1c0.3,1,1.1,1.4,1.9,1.1c1.4-0.5,2.9-1.1,4.1-2c3-2.3,4.2-5.5,3.9-9.2c-0.2-1.7-0.4-3.1,0.9-4.5
	c0.2-0.2,0.1-0.8,0-1.1c-1.2-2.2-3.9-4.7-7.2-3.9c-0.8,0.2-1.7,0.1-2.5,0.1c-1.1,0-2.4-0.2-3.4,0.1c-2.1,0.6-4,0.4-6-0.2
	c-7.5-2.3-14.9-4.5-22.4-6.7c-0.5-0.2-1.1-0.5-1.4-1c-1.1-1.8-2.1-3.7-3.1-5.6c-3.3-6.1-6.6-12.3-9.8-18.3c1.8-2.9,3.6-5.7,5.3-8.4
	c0.5,0.2,1,0.5,1.6,0.7c0.9,0.3,1.8,0.6,2.6,1c1.9,0.9,3.7,2,5.7,2.8c1.9,0.8,3.8,1,5.4-0.6c0.9-0.9,1.6-2.1,2-3.4
	c1.4-4,1.9-8.1,2.4-12.3c0.2-1.5,0.1-3.1,2.1-3.7c0.5-0.2,1.1-1.5,1-2.2c-0.3-2.5-0.6-4.9-1.4-7.3c-1.6-5.1-4.5-9.2-9.4-11.6
	c-2.2-1.1-4.6-1.4-7-1.7c-4.8-0.6-9.5-1.4-14.2-1.9c-1-0.1-2.3,0.1-3.1,0.7c-1,0.7,0,1.6,0.3,2.4c0.6,1.3,0.8,2.5,0,3.9
	c-0.3,0.6-0.4,1.4-0.4,2.1c0,2.1,0.1,4.1,0.2,6.2c0.1,1,0.2,2.1,0.4,3.1c0.3,1.1,1.1,2.1,1.3,3.2c0.2,1.4,0.1,2.9,0.1,4.5
	c-3.3,0.5-6.5,1-9.8,1.4c-4.1,0.5-8.1,0.7-12.2,1.2c-3.3,0.4-6.6,0.7-9.8,1.4c-4.8,1-9.6,2.2-14.3,3.6c-7.4,2.2-14.4,5.3-20.8,9.5
	c-4.8,3.2-9,7-12.6,11.5c-3.2,4-5.8,8.4-7.3,13.3c-1.5,4.8-1.9,9.7-0.5,14.5c0.7,2.4,1.8,4.8,2.7,7.3c-1.4,1.2-1,3-0.5,4.7
	c1.2,4,4.2,7.3,9,6.9c1.5-0.1,2.9-0.7,4.4-1c0.4-0.1,0.8-0.3,1.1-0.1c1.4,0.5,2.8,1.2,2.8,3c0,0.3-0.2,0.7-0.3,1
	c-0.2,0.5-0.6,1.1-0.5,1.5c0.3,0.8,0.1,1.4-0.3,2c-2.5,4.6-4.9,9.2-7.4,13.8c-1.4,2.7-2.9,5.4-4.4,8.1c-1.5-0.6-3-1.3-4.5-1.9
	c-5.5-2.2-11.2-3.3-17-3.7c-2.3-0.2-4.7,0-7,0.2c-3.2,0.4-6.5,0.8-9.7,1.5c-4.3,1-8.4,2.7-12.4,4.8c-6.5,3.4-12,8-16.6,13.6
	c-3.4,4.1-6.2,8.7-8.3,13.7c-2.4,5.7-3.8,11.6-4.2,17.7c-0.3,4.6,0,9.2,0.8,13.8c1.4,7.9,4.5,15.2,9.1,21.8c2.7,4,5.9,7.6,9.7,10.5
	c3,2.3,6,4.5,9.3,6.4c6.7,3.8,14,5.9,21.7,6.5c4.3,0.3,8.5,0.3,12.7-0.4c3.8-0.6,7.5-1.6,11.1-2.9c5.6-1.9,10.7-4.9,15.4-8.7
	c3.5-2.8,6.6-5.9,9.3-9.4c3.3-4.3,5.9-9.1,7.9-14.2c0.3-0.8,0.4-2.1,1.8-1c0.1,0.1,0.3,0,0.4,0c0.7,0,1.4,0,2.1,0.1
	c1.4,0.1,2.8,0.4,4.3,0.4c0.7,0,1.4-0.2,2.1-0.3c1.5-0.2,3.1-0.4,4.6-0.7c0.7-0.1,1.4-0.4,2.1-0.7c1.3-0.5,2.7-0.9,3.8-1.7
	c1.1-0.8,2-1.9,2.9-2.9c0.3-0.4,0.4-1,0.7-1.3c1.4-1.2,1.3-3,1.9-4.6c1.8,0.2,3.7,0.4,5.5,0.7c0.2,1.9,1,2.5,2.8,2.5
	c3.5-0.1,6.9-0.2,10.4-0.4c1.7-0.1,3.6,0.6,5.1-1.1c4.2,15.4,12.9,27.2,26.7,35c13.9,7.8,28.6,9.3,43.7,4.6
	C380.1,252.9,396.9,224.5,389.6,195.1z M326.8,122.4c-2.3,0.9-4.5,1.2-6.6-0.2C321.4,121.4,324.4,121.5,326.8,122.4z M381.3,192.9
	c0.2,0.6-0.1,0.8-0.6,0.9c-9.7,3.1-19.3,6.2-29,9.4c-2.5,0.8-5,1.6-7.5,2.5c-1.3,0.5-2.6,0.3-3.9,0.2c-0.6-0.1-0.9-0.6-0.3-1.1
	c0.8-0.7,1.7-1.5,2.7-2.1c4.6-2.6,9.3-5.1,14-7.6c5.2-2.8,10.5-5.6,15.7-8.4c1.6-0.8,3.1-1.7,5-2.7
	C378.8,187,380.1,189.9,381.3,192.9z M376.9,183.5c-11.2,6-22.3,12-33.4,17.9c-0.1-0.1-0.1-0.2-0.2-0.3c8.3-9.3,16.5-18.6,24.9-28
	C371.7,176.1,374.4,179.6,376.9,183.5z M367.7,172.3c-1,1.2-2,2.3-2.9,3.3c-3.4,3.8-6.7,7.6-10.1,11.4c-2.6,3-5.3,5.9-8,8.9
	c-1.9,2.2-3.8,4.3-5.8,6.4c-0.7,0.7-1.7,1.2-2.6,1.8c-0.9-1.2-0.7-2.2-0.1-3.2c1.6-2.8,3.3-5.5,5-8.2c4.3-7.1,8.6-14.1,13-21.2
	c1-1.6,1.9-3.2,3.1-5.2C362.1,168.4,364.8,170.3,367.7,172.3z M347.5,162c2.2,0.7,4.4,1.4,6.6,2.2c1.4,0.5,2.8,1.2,4.4,1.9
	c-6.7,11-13.2,21.7-19.7,32.4c0,0-0.1-0.1-0.1-0.1c1-4.8,1.9-9.6,3-14.4c1.1-5.3,2.3-10.6,3.4-15.9c0.4-1.8,0.9-3.5,1.1-5.3
	C346.2,161.7,346.8,161.8,347.5,162z M334.7,185.4c0.1-4.2,0.1-8.5,0.3-12.7c0.1-4,0.3-8.1,0.5-12.4c3.4,0.3,6.7,0.7,10.2,1
	c-2.8,13.3-5.5,26.3-8.3,39.4c-0.1,0-0.2,0-0.3,0c-0.7-2.2-1.4-4.3-2.1-6.5c-0.9-2.6-0.4-5.2-0.4-7.8
	C334.6,186.2,334.7,185.8,334.7,185.4z M334.5,160.4c-0.3,9.9-0.6,19.6-0.8,29.4c-0.1,0-0.2,0-0.3,0c-3-9.2-6-18.4-9.2-27.9
	C327.7,161.4,331,160.9,334.5,160.4z M325.2,204.5c-4.5-2.7-9-5.5-13.5-8.2c-4.7-2.9-9.4-5.8-14.2-8.6c-1.2-0.7-2.4-1.4-3.8-2.3
	c2-2.8,3.9-5.5,5.9-8.4c1.2,1.1,2.3,2,3.4,3c3.8,3.4,7.7,6.8,11.5,10.2c3,2.6,5.9,5.3,8.8,7.9c2.2,1.9,4.4,3.8,6.4,5.8
	c0.7,0.7,1.2,1.6,1.5,2.6c0.2,0.6-0.3,0.8-1,0.7C328.4,206.7,326.8,205.5,325.2,204.5z M325.7,205.7c0,0.1-0.1,0.2-0.1,0.2
	c-12.2-2.5-24.3-5.1-36.6-7.7c0.9-4.3,2.4-8.2,4.5-12.2C304.2,192.7,315,199.2,325.7,205.7z M300.3,176.4c3.1-3.4,7.9-7.3,10.5-8.5
	c6,11.2,12.1,22.5,18.1,33.7c0,0-0.1,0.1-0.1,0.1C319.3,193.2,309.8,184.8,300.3,176.4z M317.6,164.1c4.1,12.4,8.1,24.5,12,36.7
	c-0.1,0-0.1,0.1-0.2,0.1c-6-11.1-12-22.2-18.1-33.6C313.5,166.2,315.5,165.2,317.6,164.1z M311.6,142.8c0.1,0.4,0,1.1-0.3,1.3
	c-2.4,2.3-4.9,4.6-7.4,6.8c-2.4,2.2-4.8,4.4-7.2,6.6c-4.6,4.3-9.3,8.6-13.9,12.8c-2.2,2.1-4.5,4.1-6.7,6.2c-0.3,0.3-0.5,0.5-1,0.9
	c0.3-1.9,0.5-3.5,0.7-5.2c0.5-3,1-6.1,1.6-9.1c0.5-2.7,1-5.5,1.3-8.2c0.4-4.1,1-8.2-0.1-12.2c-0.3-1.2-1-2.4-1.5-3.9
	c11-0.3,22-0.6,33-1C310.6,139.7,311.1,141.2,311.6,142.8z M223.6,141.5c1,1.5,2.1,3.1,3.1,4.6c0.4,0.7,0.9,1.2,1.8,0.9
	c0.2-0.1,0.4-0.1,0.5,0c2.3,1.3,2.4,4.5,0.2,5.9c-0.7,0.4-1.4,0.8-2.2,1.3c-0.9-3-1.7-6-2.7-9c-0.1-0.4-0.5-0.8-0.9-1.1
	C222.9,143.5,222.9,141.9,223.6,141.5z M221.6,203.8c1.3-0.1,2.4-0.1,3.3-0.4c2-0.6,2.1,0.8,2.3,2.1c0.2,2.1,0.4,4.2,0.6,6.2
	c-1.7,0-3.1,0-4.5,0c-0.3-0.7-0.6-1.4-0.9-2.1c1.2-0.5,2.4-1,2.4-2.8C224.7,205,223.1,204.7,221.6,203.8z M225.4,202.1
	c-1.4,0-2.9,0.5-4.3,0.6c-2.1,0.1-4.2,0-6.3,0c0-0.1,0-0.3,0-0.4c3.5-1.2,7.1-2.3,10.8-3.5c0.3,0.8,0.6,1.5,0.7,2.3
	C226.4,201.7,226.2,202.1,225.4,202.1z M224.4,198.4c-3.8,1.2-7.7,2.5-11.5,3.7c-1.3,0.4-2.9-1.1-2.6-2.4c0.9-3.6,2.7-6.6,6.1-8.5
	c1.5-0.8,3.1-1.7,4.9-2.6c1.3,2.9,2.5,5.8,3.7,8.6C225.4,197.9,225.1,198.1,224.4,198.4z M216.5,190c1-1.2,2-2.3,3.1-3.5
	c0.3,0.5,0.7,0.9,1.1,1.5c-1.5,0.8-2.8,1.5-4.1,2.2C216.6,190.1,216.6,190.1,216.5,190z M218.6,143.6c0.2,0,0.3,0.1,0.5,0.1
	c-0.1,0.7-0.3,1.3-0.3,1.9c0,0.7,0.2,1.5,0.5,2.2c1,3.2,1.9,6.3,2.9,9.4c0.1,0.3,0.1,0.8-0.1,1c-3.2,3.5-5.4,7.6-7.4,11.8
	c-2.5-1.7-4.9-3.4-7.4-5.1C211,157.8,214.8,150.7,218.6,143.6z M211.5,176.9c-8.7,9.8-17.2,19.4-25.7,29c-0.1-0.1-0.1-0.1-0.2-0.2
	c6.1-11.4,12.1-22.8,18.3-34.4C206.4,173.3,208.9,175,211.5,176.9z M203.1,211c-0.5-0.2-1.1,0-1.6,0c-3.9,0-7.9,0-11.8,0
	c0-0.1,0-0.3,0-0.4c3.2-1.1,6.4-2.1,9.7-3.2c1-0.3,1.9-0.4,2.9,0.2c1.3,0.7,2.7,1.3,4.1,2C205.4,210.6,204.6,211.5,203.1,211z
	 M204.7,211.9c0,0.1,0,0.3,0,0.4c-3.7-0.2-7.4-0.4-11.1-0.6c0-0.1,0-0.1,0-0.2C197.3,211.7,201,211.8,204.7,211.9z M192.3,206.6
	c1.8-0.2,3.6-0.2,5.4-0.3c0.6,0,1.1-0.2,1.7-0.4c0,0.2,0,0.3,0.1,0.5c-4.1,1.3-8.2,2.7-12.3,4c-0.8,0.3-1.8,0.1-2.7,0
	c-0.3,0-0.6-0.4-0.9-0.6c1.1-1.8,2.5-2.5,4.5-2.6C189.4,207.2,190.8,206.8,192.3,206.6z M189.8,205.5c1.2-0.6,2.4-1.3,3.5-1.9
	c0.2-0.1,0.6-0.1,0.8,0c0.8,0.3,1.5,0.7,2.2,1.1c0,0.1,0,0.2,0.1,0.3c-2.2,0.2-4.4,0.4-6.6,0.6C189.8,205.7,189.8,205.6,189.8,205.5
	z M183.5,217.4c0.8,0.7,1.4,1.5,2.1,2.2c-0.1,0.1-0.2,0.1-0.3,0.2c-1-0.2-1.9-0.5-3.1-0.7c0-0.3,0-0.7,0-1.1
	C182.4,217.2,183,216.9,183.5,217.4z M184.5,216.2c-0.1-0.1-0.1-0.2-0.1-0.3c0-0.1,0-0.1,0-0.3c1.7-0.2,3.3,0.1,4.8,1
	c3.3,2.1,6.7,4.1,10.1,6.2c0.2,0.1,0.4,0.2,0.8,0.6c-1.5-0.4-2.8-0.7-4-1c-1.4-0.3-2.9-0.6-4.3-0.9c-0.5-0.1-1-0.3-1.6-0.5
	C187.5,220.4,185.8,218.6,184.5,216.2z M205,187.7c-2.6,3.2-5.6,6.2-8.3,9.4c-1.1,1.3-1.7,3-2.6,4.5c-0.2,0.4-0.5,0.9-0.9,1.2
	c-2,1.2-4.1,2.3-6.3,3.2c7.6-8.6,15.2-17.2,22.8-25.7c0.1,0.1,0.2,0.1,0.3,0.2C208.3,182.8,206.8,185.4,205,187.7z M200.9,169.8
	c-6.2,11.4-12.2,22.5-18.2,33.6c-0.1-0.1-0.3-0.1-0.4-0.2c2.6-12.3,5.2-24.6,7.8-37.1C193.8,167.3,197.2,168.5,200.9,169.8z
	 M178.9,169.4c0-1.4,0.2-2.7,0.3-4.2c3.4-0.2,6.7,0.2,10.1,1c-0.4,1.8-0.7,3.6-1.1,5.3c-1.2,5.7-2.4,11.5-3.6,17.2
	c-1.2,5.5-2.3,11-3.5,16.5c-0.3,1.4-1.4,2.2-2.9,2c-0.1-0.6-0.3-1.2-0.2-1.8c0.1-6.9,0.3-13.8,0.5-20.7
	C178.6,179.6,178.7,174.5,178.9,169.4z M178.1,165.2c0,2.1,0,4.1,0,6.1c0,0.3-0.1,0.5-0.1,0.8c-0.1,4.4-0.1,8.8-0.2,13.2
	c-0.2,5.9-0.4,11.9-0.7,17.9c-3.9-11.9-7.8-23.9-11.7-35.8C167.9,166.3,176.2,164.8,178.1,165.2z M164.5,167.4
	c0.9,2.8,1.7,5.3,2.6,7.8c1.7,5.2,3.4,10.4,5.1,15.6c1.6,4.8,3.1,9.5,4.7,14.3c0.4,1.1,0.6,2.2-0.2,3.3c-0.5,0.7-1,0.8-1.4,0.1
	c-0.9-1.3-1.8-2.7-2.5-4.1c-2.5-4.6-5-9.2-7.4-13.9c-3.3-6.2-6.6-12.3-10.1-18.8C158.2,170.2,161.3,168.8,164.5,167.4z M154.5,172.2
	c6,11.2,12,22.3,18,33.5c-0.1,0.1-0.1,0.1-0.2,0.2c-9.4-8.3-18.8-16.6-28.3-25C147.2,177.5,150.6,174.6,154.5,172.2z M143.4,181.4
	c1.7,1.5,3.2,2.8,4.6,4.1c3.7,3.2,7.4,6.4,11,9.7c2.3,2,4.6,4.1,6.9,6.2c2.4,2.2,4.9,4.3,7.3,6.5c0.6,0.5,1.1,1.2,1.4,1.9
	c0.2,0.4-0.3,1.1-0.5,1.8c-0.7-0.2-1.5-0.3-2.1-0.7c-9.3-5.6-18.5-11.2-27.7-16.8c-2.2-1.3-4.4-2.7-6.9-4.2
	C139.5,187,141.4,184.2,143.4,181.4z M132.9,201.9c1-3.8,2.3-7.4,4.1-10.9c0.1-0.1,0.1-0.2,0.2-0.3c10.8,6.6,21.6,13.1,32.4,19.7
	c0,0-0.1,0.1-0.1,0.1c-5.8-1.2-11.7-2.4-17.5-3.6c-6.1-1.3-12.2-2.6-18.3-3.9C133.1,202.8,132.7,202.7,132.9,201.9z M131.8,208.8
	c0.1-1.4,0.4-2.8,0.6-4.3c0.1-0.8,0.3-1,1.1-0.8c8.6,1.8,17.3,3.6,25.9,5.4c4,0.8,8,1.7,12,2.5c0.4,0.1,0.7,0.2,1.1,0.4
	c0.9,0.4,1.7,0.8,1.3,2c-0.1,0.1,0.1,0.4,0.2,0.8c-14.1,0-28-0.8-42.1-1C131.7,212,131.7,210.4,131.8,208.8z M133.6,227
	c-1.1-4-2-8-1.9-12.4c12.6,0.3,25.2,0.7,37.8,1c0,0.1,0,0.2,0,0.3c-1.8,0.6-3.7,1.2-5.5,1.8c-7.2,2.3-14.4,4.7-21.6,7
	c-2.6,0.8-5.2,1.7-7.8,2.5C134.3,227.3,133.7,227.2,133.6,227z M133.9,228.4c3.8-1.2,7.3-2.3,10.8-3.5c7.3-2.4,14.5-4.8,21.8-7.1
	c1.9-0.6,3.7-1.2,5.6-1.8c0.5-0.1,1-0.3,1.4-0.2c0.6,0.2,1.2,0.7,1.5,1.2c0.4,0.7-0.3,1.1-0.8,1.3c-5,2.7-10,5.4-15,8.1
	c-6.6,3.5-13.2,7.1-19.8,10.6c-0.3,0.2-0.7,0.3-1.2,0.6C136.7,234.5,135.3,231.5,133.9,228.4z M138.7,238.4
	c11.2-6,22.4-12,33.6-18.1c0.1,0.1,0.1,0.1,0.2,0.2c-8.3,9.4-16.7,18.8-25,28.2C144,245.7,141.2,242.2,138.7,238.4z M147.9,249.5
	c1.1-1.3,2.1-2.5,3.1-3.6c2.7-3.1,5.5-6.1,8.2-9.2c3.8-4.3,7.6-8.7,11.4-13c1.4-1.5,2.7-3,4.1-4.6c0.7-0.8,2-1,2.7-0.3
	c0.7,0.7,0.2,1.5-0.2,2.2c-4.9,8.1-9.9,16.2-14.8,24.3c-2,3.3-4,6.6-6.1,10.1C153.5,253.4,150.8,251.5,147.9,249.5z M168.6,259.9
	c-4-1-7.8-2.3-11.5-4.3c6.6-10.8,13.2-21.6,19.7-32.4c0,0,0.1,0,0.1,0.1c-0.4,2.2-0.9,4.4-1.3,6.6c-1.2,5.8-2.4,11.5-3.6,17.3
	c-0.8,4-1.7,8.1-2.6,12.1C169.4,259.5,168.8,260,168.6,259.9z M173.4,260.8c-0.8-0.1-1.6-0.3-2.3-0.3c-0.9,0-1-0.5-0.9-1.2
	c0.7-3.4,1.5-6.7,2.2-10.1c1.2-5.6,2.3-11.2,3.5-16.9c0.8-3.7,1.5-7.4,2.3-11.1c0.1-0.6,0.5-1.1,0.8-1.7c0.9,0.2,1.6,0.5,2.5,0.7
	c-0.4,13.6-0.8,27.2-1.2,41C177.9,261.1,175.7,261,173.4,260.8z M181.1,261c0.4-12.5,0.7-25,1.1-37.6c0.1,0,0.2,0,0.3,0
	c3.9,11.8,7.7,23.7,11.6,35.5C191.9,260.1,183.8,261.4,181.1,261z M194.8,258.7c-4.2-12.9-8.4-25.7-12.5-38.5
	c0.8,0.2,1.5,0.6,2.2,0.5c1.1-0.2,1.7,0.5,2.1,1.2c1.7,3,3.3,6.2,5,9.2c2.2,4.1,4.4,8.2,6.6,12.3c2,3.6,3.9,7.3,5.9,11
	C201.2,256.3,198.2,257.7,194.8,258.7z M211.2,249.5c-2,1.6-4.1,3.1-6.3,4.7c-0.9-1.6-1.7-3-2.5-4.4c-4.7-8.8-9.5-17.7-14.2-26.5
	c-0.1-0.2-0.3-0.4-0.4-0.7c-0.1-0.3-0.1-0.7-0.1-1c0.3,0.1,0.7,0.1,1,0.4c2.9,2.5,5.7,5.1,8.6,7.6c4.3,3.8,8.7,7.6,13,11.4
	c1.6,1.4,3.2,2.9,4.9,4.5C214,246.9,212.7,248.3,211.2,249.5z M216,245c-8.5-7.5-16.9-15-25.5-22.6c0.5,0,0.9-0.1,1.2,0
	c0.9,0.2,1.8,0.4,2.7,0.6c0.6,0.1,1.1,0.4,1.7,0.6c1.2,0.4,2.4,0.8,3.6,1.1c0.7,0.2,1.4,0.4,2.1,0.4c2.6,0.1,4.4,1.9,6.5,3.1
	c4.1,2.4,8.2,4.9,12.3,7.4c0.4,0.2,0.8,0.5,1.4,0.9C219.9,239.4,218,242.2,216,245z M222.2,235.8c-5.3-3.2-10.4-6.4-15.8-9.6
	c6.1,1.4,12,2.7,18.2,4.1C223.9,232,223.1,233.8,222.2,235.8z M226.5,224.4c-0.5,1.5-0.9,3.1-1.4,4.6c-1.8-0.3-3.5-0.5-5.1-0.9
	c-1.6-0.3-3.1-0.8-4.7-1.1c-1.6-0.3-3.2-0.6-4.7-0.9c-0.4-0.1-0.8-0.3-1.2-0.5c-1.3-0.4-2.6-0.7-3.9-1c-4.6-0.9-7.9-4.2-11.9-6.3
	c-1.3-0.7-2.6-1.5-3.8-2.5c4.7,1,9.5,2,14.2,3c6.5,1.4,13,2.7,19.5,4.1c0.8,0.2,1.5,0.3,2.3,0.5
	C226.3,223.5,226.7,223.7,226.5,224.4z M226.9,222.1c-0.1,0.2-0.8,0.5-1.2,0.5c-2.6-0.5-5.2-1.1-7.8-1.6c-6.1-1.3-12.1-2.5-18.2-3.8
	c-1.2-0.2-2.3-0.5-3.5-0.8c0-0.1,0-0.2,0-0.2c2.7,0.2,5.4,0.3,8.2,0.5c1.7,0.1,3.3,0.2,5,0.3c2.4,0.1,4.9,0.1,7.3,0.2
	c3.3,0.1,6.6,0.3,9.9,0.5c0.3,0,0.8,0.5,0.7,0.8C227.3,219.7,227.2,220.9,226.9,222.1z M227.3,213.4c-1.4-0.1-2.8-0.3-4.1-0.4
	c0-0.1,0-0.3,0-0.4c1.5,0,2.9,0,4.7,0C227.6,213,227.4,213.5,227.3,213.4z M231.7,194.1c-1.7-4.5-3.8-8.8-6.7-12.7
	c-0.4-0.5-0.4-0.9,0-1.3c0.9-1,1.9-2.1,3-3.3c2.5,8.3,4.9,16.3,7.2,24.3c-0.5,0.1-0.9,0.2-1.3,0.3
	C233.2,198.8,232.5,196.4,231.7,194.1z M235.1,214.1c0-0.9,0-1.5,0-2.4c0.6,0.5,1.1,0.9,1.7,1.4
	C236.2,213.5,235.7,213.8,235.1,214.1z M237.9,218.3c-1,1.1-2.1,2.5-3.2,3.8c-0.1-0.1-0.2-0.1-0.2-0.2c0.1-1.2,0.3-2.4,0.4-3.8
	C236,218.2,237.1,218.3,237.9,218.3z M234.8,204.2c-0.1,0-0.2-0.1-0.3-0.1c-0.1-0.5-0.3-1.1-0.4-1.6c0.6,0,1-0.1,1.7-0.1
	C235.3,203,235,203.6,234.8,204.2z M235.1,230.7c-0.9-0.1-1.7-0.2-2.7-0.3c0.4-0.7,0-1.9,1.3-2c0.4,0,0.8,0.6,1.3,1
	c0.7-0.4,1.1,0.1,1.3,1.1c0.6-0.4,1.3-0.9,1.5,0.5C236.8,230.8,236,230.7,235.1,230.7z M246.9,227.2c-1.6,0.5-3.3,0.7-4.6,0.9
	c-1.3-0.3-2.2-0.4-3.1-0.7c-1.6-0.5-2.2-1.9-1.1-3.3c1.1-1.4,2.4-2.6,3.6-3.9c0.8-0.8,1.7-0.8,2.4-0.1c1.4,1.2,2.7,2.4,3.9,3.8
	C249,225.2,248.4,226.8,246.9,227.2z M242.2,204.7c1,0.1,1.9,0.2,2.8,0.2c-0.7,0.8-1.4,1.5-2.1,2.3
	C242.7,206.4,242.5,205.7,242.2,204.7z M250.5,221.3c-0.1-0.1-0.2-0.2-0.4-0.3c-0.7-0.6-1.4-1.2-2.2-2c2.1,0.3,3.9,0.5,5.8,0.7
	C253.4,221.5,252,222.2,250.5,221.3z M254.1,216.7c-2.6-0.3-5.2-0.7-7.9-1c-0.1-0.1-0.1-0.3-0.2-0.4c1.5-1.5,3-3.1,4.6-4.5
	c0.8-0.7,2.3,0,2.7,1.2c0.5,1.4,0.7,2.9,1.1,4.4C254.4,216.6,254.2,216.7,254.1,216.7z M261.7,203c-0.4,2.6-0.9,5.1-1.2,7.7
	c-0.2,2.3,0,4.7,1.2,7c-1.2-0.1-2.1-0.2-2.7-0.3c-0.4-2.4-0.6-4.7-1.1-6.9c-0.6-2.3-2-4.1-3.8-5.7c2.6-2.5,5.3-5,8-7.5
	c0.1,0.1,0.2,0.1,0.3,0.2C262.1,199.2,262,201.1,261.7,203z M263.1,156.9c-2.9,5.1-3.7,10.8-3.3,16.5c0.2,3.2,0.9,6.3,1.3,9.5
	c0.3,2,0.5,4,0.7,5.9c0,0.4-0.2,1-0.5,1.3c-4,3.8-8.1,7.5-12.1,11.2c-0.9,0.8-1.8-0.1-2.7-0.1c-0.9,0-1.8-0.2-2.7-0.3
	c-0.8-0.1-1.5-0.3-2.3-0.4c-1.1-0.2-0.9-1.2-1.1-1.9c-2.6-8.7-5.3-17.5-7.8-26.3c-0.1-0.4,0-1,0.3-1.3c1.7-1.9,3.4-3.7,5.1-5.5
	c4.1-4.3,8.1-8.6,11-13.8c0.6-1.1,1-2.4,1.5-3.7c2.8,1.2,5.6,2.3,8.4,3.5c0.8,0.3,1.6,0.6,2.5,0.8
	C263,153.1,264.2,154.9,263.1,156.9z M261.1,128.9c0.2-0.3,0.3-0.5,0.5-0.8c-3.8-2.1-7.7-4.2-11.5-6.3c-4.9-2.6-9.8-5.2-14.7-7.8
	c-0.8-0.4-1.5-1-2.1-1.7c-1.2-1.2-1.2-2.5-0.1-3.8c2.9-3,6.3-5.1,10.4-5.9c3.6-0.7,7.2-1.1,10.8-1.6c4-0.6,8-1.2,12.2-1.8
	c1.4,2.4,2.8,4.9,4.3,7.5c2.3,4,4.5,8,6.7,12c1,1.7,2.5,2.8,4.2,3.7c3.7,2.1,7.8,3.1,11.9,3.8c3.7,0.6,7.3,1.2,11,1.8
	c0.7,0.1,1.4,0.2,2.2,0.3c-0.3,1-0.7,1.8,0.6,2.2c0.2,0.1,0.3,0.6,0.4,1c0.3,1,0.7,2.1,1,3.1c-0.3,0-0.4,0.1-0.6,0.1
	c-4,0.1-8,0.1-12,0.2c-5.4,0.1-10.8,0.3-16.2,0.5c-0.6,0-1.3,0.1-1.9,0.2c-2.7,0.3-5.1-0.3-7.5-1.7
	C267.6,132,264.4,130.5,261.1,128.9z M280.4,209.6c-2-0.3-4.1-0.6-5.9-1.7c-1.4-0.9-1.7-2.3-1.9-3.8c-0.3-3.4,0.2-6.8,0.7-10.2
	c0.3-2.2,0.6-4.5,0.7-6.8c0-1,0.6-1.4,1.2-1.9c1.9-1.7,3.7-3.5,5.6-5.2c4.6-4.3,9.3-8.5,13.9-12.8c2.6-2.4,5.1-4.8,7.7-7.2
	c3.8-3.5,7.6-6.9,11.5-10.5c0.2,0.6,0.5,1.2,0.7,1.8c0.1,0.2,0,0.5-0.1,0.6c-0.7,1.2-0.6,1.8,0.3,3.1c0.3,0.5,0.4,1.3,0.6,1.9
	C292.9,167.5,281.1,184.8,280.4,209.6z M287.8,208.3c0.3-2.9,0.5-5.7,0.8-8.6c0-0.2,0.6-0.5,0.8-0.5c5,1,10.1,2.1,15.1,3.1
	c7.6,1.6,15.2,3.1,22.7,4.8c1.2,0.3,2.3,1,3.4,1.6c0.2,0.1,0.3,0.6,0.6,1.2c-1.6,0.1-3,0.3-4.3,0.3c-2.7,0-5.4-0.2-8.1-0.2
	c-4.9-0.1-9.8-0.1-14.8-0.3c-3.2-0.1-6.4-0.3-9.5-0.4c-1.9-0.1-3.7-0.1-5.6,0C288.1,209.4,287.8,209.1,287.8,208.3z M288.9,218.7
	c0.5-0.5,0.9-0.8,1.1-1.2c1-2.1,0.6-4-1.2-5.4c-0.7-0.5-1-1.1-0.7-2.1c12.5,0.4,25.1,0.8,37.7,1.1c0,0.1,0,0.1,0,0.2
	c-2.5,0.8-5,1.6-7.4,2.4c-8.9,2.9-17.9,5.8-26.8,8.7c-1.6,0.5-1.6,0.5-2-1.2C289.3,220.4,289,219.4,288.9,218.7z M293.9,232.1
	c-1.2-2.7-2.5-5.4-3.9-8.2c1.2-0.4,2.2-0.7,3.3-1.1c5.1-1.7,10.2-3.3,15.3-5c6.5-2.1,13-4.3,19.6-6.3c1-0.3,2.1-0.1,3.1-0.1
	c0.3,0,0.6,0.4,0.9,0.5c-1.3,2.1-3.5,2.8-5.3,3.8c-6.5,3.5-13,7-19.5,10.5c-3.9,2.1-7.9,4.2-11.8,6.4
	C294.7,233.1,294.3,233,293.9,232.1z M295,233.8c11.2-6,22.3-12,33.5-18c0.1,0.1,0.1,0.1,0.2,0.2c-8.4,9.4-16.7,18.9-25.1,28.3
	C300.8,242,296.1,236.3,295,233.8z M312.5,250.7c-1.8-1.1-3.5-2.2-5.2-3.4c-1.1-0.7-2-1.6-3-2.5c2.6-2.9,5.1-5.8,7.7-8.6
	c2.8-3.2,5.6-6.4,8.4-9.6c2.6-3,5.3-5.9,8-8.9c0.8-0.9,1.4-1.8,2.3-2.6c0.9-0.8,1.8-1.4,2.9-1.9c0.7-0.3,1,0.3,0.8,0.9
	c-0.4,1.2-0.7,2.4-1.4,3.4c-2.9,4.9-5.8,9.7-8.8,14.5c-3.7,6-7.3,12-11,18.1C312.9,250.2,312.7,250.4,312.5,250.7z M313.4,251
	c6.5-10.7,13-21.3,19.5-32c0.1,0,0.2,0.1,0.3,0.1c-2.5,12.1-5.1,24.1-7.6,36.1C323.8,255.6,315.9,252.8,313.4,251z M336.7,251.6
	c-0.1,1.7-0.2,3.4-0.3,5.3c-3.4-0.3-6.7-0.7-10.2-1c0.3-1.7,0.6-3.2,0.9-4.7c1.2-5.7,2.4-11.5,3.6-17.2c0.7-3.4,1.5-6.7,2.2-10.1
	c0.5-2.4,1-4.8,1.5-7.2c0.2-1.1,1.5-2.9,2.4-3.3c1.3,2.4,0.8,4.9,0.7,7.4c0,0.3-0.1,0.7-0.1,1c-0.1,4.2-0.2,8.3-0.3,12.5
	C337.1,240.2,336.9,245.9,336.7,251.6z M337.3,256.7c0.2-5.2,0.4-10.4,0.5-15.6c0-0.2,0-0.4,0-0.6c0.1-4.6,0.2-9.1,0.2-13.7
	c0-2.7,0-5.4,0-8.2c0.1,0,0.3,0,0.4,0c3.9,11.9,7.8,23.9,11.7,36C346.1,255.8,341.9,256.6,337.3,256.7z M351.1,254.4
	c-2.2-6.6-4.2-13-6.3-19.4c-2-6.1-4-12.1-5.9-18.2c-0.3-1.1-0.2-2.4-0.3-3.6c0-0.2,0.2-0.6,0.4-0.6c0.3,0,0.7,0,0.9,0.2
	c0.7,0.9,1.5,1.8,2.1,2.8c3.9,7.1,7.8,14.3,11.6,21.5c2.3,4.2,4.5,8.5,6.9,13C357.3,251.6,354.3,253,351.1,254.4z M361.1,249.6
	c-6.1-11.3-12.1-22.5-18.1-33.6c0,0,0.1-0.1,0.1-0.1c9.4,8.3,18.8,16.7,28.4,25.1C368.4,244.3,365,247.2,361.1,249.6z M372.2,240.4
	c-0.9-0.7-1.7-1.3-2.4-2c-3.8-3.4-7.6-6.9-11.5-10.3c-4.1-3.6-8.3-7.2-12.4-10.9c-1.7-1.5-3.3-3.2-4.9-4.8c0,0-0.1-0.1-0.1-0.1
	c-0.2-0.6-0.3-1.2-0.5-1.8c0.6,0,1.2-0.2,1.7,0c1.6,0.7,3.1,1.5,4.6,2.4c7.8,4.7,15.5,9.5,23.3,14.3c2.6,1.6,5.2,3.1,8,4.8
	C376.2,234.8,374.2,237.6,372.2,240.4z M378.4,231.2c-10.8-6.6-21.5-13.1-32.3-19.6c0-0.1,0.1-0.1,0.1-0.2
	c12.2,2.6,24.3,5.1,36.6,7.7C381.9,223.3,380.4,227.3,378.4,231.2z M383,218.3c-9-1.9-17.9-3.9-26.8-5.7c-4.1-0.9-8.2-1.6-12.3-2.6
	c-1-0.2-1.9-0.9-2.7-1.5c-0.4-0.3-0.4-0.8,0.3-1c1.2-0.4,2.3-0.8,3.6-0.5c0.3,0.1,0.7,0.1,1,0.1c4.4,0.1,8.8,0.1,13.2,0.2
	c6,0.1,12,0.3,18,0.5c2.2,0.1,4.4,0.2,6.7,0.3C384.1,211.5,383.7,214.9,383,218.3z M346,206.1c0-0.1,0-0.1,0-0.2
	c11.9-3.9,23.8-7.8,35.9-11.7c1.2,4.3,2.1,8.5,2.2,13C371.2,206.9,358.6,206.5,346,206.1z"/>
</svg>
