<?xml version="1.0" encoding="utf-8"?>
<!-- Generator: Adobe Illustrator 19.0.0, SVG Export Plug-In . SVG Version: 6.00 Build 0)  -->
<svg version="1.1" id="Layer_1" xmlns="http://www.w3.org/2000/svg" xmlns:xlink="http://www.w3.org/1999/xlink" x="0px" y="0px"
	 viewBox="0 0 512 512" style="enable-background:new 0 0 512 512;" xml:space="preserve">
<style type="text/css">
	.st0{fill:#E65B25;}
	.st1{fill:#FFFFFF;}
</style>
<path class="st0" d="M256,0C161.7,0,85.3,76.4,85.3,170.7S161.7,341.3,256,341.3V512l151.1-262c12.5-23.7,19.6-50.7,19.6-79.4
	C426.7,76.4,350.3,0,256,0z"/>
<path class="st1" d="M409.6,170.7c0,84.8-68.8,153.6-153.6,153.6s-153.6-68.8-153.6-153.6S171.2,17.1,256,17.1
	S409.6,85.8,409.6,170.7z"/>
<g>
	<path d="M387.3,131.4c-0.4-0.2-0.8-0.4-1.1-0.7c-2.3-2.2-5-2.3-7.6-0.5c-1.5,1.1-3.2,2.1-4.9,2.7c-1.4,0.5-2,1.2-2.2,2.4
		c-0.9,4.9-1.4,9.9-2.8,14.7c-3.6,12.5-8,24.6-16.8,34.5c-2.4,2.7-5.7,4.7-8.7,6.8c-3.2,2.2-6.5,4-9.9,6.1c-0.1-0.1-0.3-0.5-0.5-1
		c-2.6,1.7-5.6,2.9-7.7,5.1c-3.8,4-2.8,9-1.3,13.7c0.7,2.2,1.8,4.3,2.9,6.4c0.3,0.5,1.2,1,1.9,1c1.8,0.1,3.6,0,6.1,0
		c-1.2,0.6-1.8,0.9-2.4,1.2c0,0.2,0,0.5,0,0.7c3.6,0,7.3,0,10.9,0c-4.7,3.8-9.7,1.9-14.7,1.4c1.4,2.2,5.2,1.4,5.7,4.8
		c-4.3-1.6-8.4-3.1-11-7.3c-0.9,0.9-1.8,1.9-3.1,3.2c0.6-3.3,1-6.1,1.6-9.3c-1.3,0.4-1.8,0.6-2.4,0.8c-0.1-0.4-0.2-0.6-0.1-0.9
		c1.1-5.6,0.1-8.2-4.7-11.2c-0.6-0.4-2.6,0.1-3,0.7c-0.8,1.3-1.2,2.9-1.2,4.4c0,3.2,0.1,6.3,0.6,9.5c0.2,1.1,1.4,2.3,2.3,3.1
		c1.1,0.9,2.4,1.5,3.6,2.5c-0.8-0.1-1.5-0.2-2.5-0.4c2.3,3.3,7,2.6,8.7,6.4c-2.1-0.7-4.3-1.3-6.3-2.3c-2-1-3.9-2.5-5.9-3.8
		c-0.1,2.3,4,2.9,2,6.1c-1.2-1.7-2.2-3.2-3.2-4.6c-0.9-1.3-2-2.4-2.8-3.7c-0.5-0.9-0.6-2.1-0.8-3.1c-2.4,0.8-4.8,1.6-7.2,2.5
		c-0.2-0.2-0.3-0.5-0.5-0.7c2.9-2.2,5.8-4.4,8.7-6.6c-0.1-0.2-0.3-0.5-0.4-0.7c-0.9-0.3-1.8-0.5-3-0.9c1.5-1.9,4.6-2.8,3.2-6
		c-3.6,0.8-5.1-1.8-6.9-4.1c-0.5-0.7-1.1-1.5-1.9-1.9c-2.8-1.3-4.7-3.4-6.5-5.8c-1.6-2.2-3-2.5-5.5-1.5c-1.5,0.6-2.9,1.3-4.7,2.1
		c0.3-1,0.5-1.5,0.9-2.8c-1.7,0.7-2.8,1.2-3.8,1.7c-0.6-0.6-1.2-1.1-1.9-1.7c-0.2,0-0.5,0.1-0.7,0.1c0.6-2.1,1-4.2,1.7-6.2
		c0.7-2.2,0.1-3.5-2.1-3.5c-3.2,0-5-2.3-6.9-4.1c-1.3-1.3-2.5-2.2-4.2-2.7c-1.2-0.3-2.7-1.1-3.2-2.1c-0.9-1.6-2.2-2.3-3.8-2.4
		c-4.1-0.1-8.3-0.2-12.4,0.1c-8.6,0.5-17.2,1.3-25.8,1.6c-21,0.9-42,1-62.9,3.7c-11,1.4-21.8,3.8-32.4,7.2c-2.1,0.7-4.3,1.1-7,1.7
		c1.8-3.4,4.3-4.9,7-5.7c5.1-1.5,10.4-2.6,15.6-3.8c7.1-1.6,14.3-3.1,21.4-4.8c-3.5,0.3-7,0.5-10.5,0.9c-3.6,0.4-7.2,1-10.8,1.6
		c-3.5,0.6-7,1.4-10.4,2.2c-3.5,0.8-6.9,1.9-10.5,2.7c2.7-2.5,5.6-4.8,9.2-5.6c7.6-1.6,15.2-3.2,22.9-4.2c12.8-1.6,25.7-2.9,38.5-4
		c14.7-1.2,29.4-1.9,44.1-3c8.1-0.6,16.1-1.4,24.1-2.4c6.9-0.9,12.7-4.6,18.8-7.6c10.3-5,20.5-10.2,31.8-12.3
		c7.6-1.4,15.4-2.1,23.1-3.1c4.9-0.7,9.9-1.3,14.7-2.4c1.7-0.4,3.4-1.6,4.6-3c1.7-1.9,2.8-4.3,4.3-6.4c1.3-1.9,2.9-3.6,4.2-5.5
		c0.7-0.9,2-1.7,1.1-3.3c-0.1-0.1,0.9-1.2,1.3-1.2c2.8,0.4,5.1-0.9,7.6-1.8c1.8,0,3.6,0,5.4,0c0.1,0.1,0.2,0.2,0.4,0.3
		c3.9,1,7,2.8,7.9,7.1c0.1,0.5,0.5,0.9,0.8,1.3c1.4,1.9,2.7,3.9,4.1,5.8C387.3,130.2,387.3,130.8,387.3,131.4z M371.3,120.4
		c-0.8,1.2-1.6,1.9-1.5,2.5c0.1,0.6,1.1,1.5,1.7,1.5c0.6,0,1.5-1,1.6-1.7C373.1,122.1,372.2,121.5,371.3,120.4z"/>
</g>
</svg>
