<?xml version="1.0" encoding="utf-8"?>
<!-- Generator: Adobe Illustrator 19.0.0, SVG Export Plug-In . SVG Version: 6.00 Build 0)  -->
<svg version="1.1" id="Layer_1" xmlns="http://www.w3.org/2000/svg" xmlns:xlink="http://www.w3.org/1999/xlink" x="0px" y="0px"
	 viewBox="0 0 512 512" style="enable-background:new 0 0 512 512;" xml:space="preserve">
<style type="text/css">
	.st0{fill:#E65B25;}
	.st1{fill:#FFFFFF;}
	.st2{fill:#010101;}
</style>
<g>
	<path class="st0" d="M256,0C161.7,0,85.3,76.4,85.3,170.7S161.7,341.3,256,341.3V512l151.1-262c12.5-23.7,19.6-50.7,19.6-79.4
		C426.7,76.4,350.3,0,256,0z"/>
	<path class="st1" d="M409.6,170.7c0,84.8-68.8,153.6-153.6,153.6s-153.6-68.8-153.6-153.6S171.2,17.1,256,17.1
		S409.6,85.8,409.6,170.7z"/>
</g>
<path class="st2" d="M249.5,84.7L260,74.2c1.4-1.4,3.7-1.6,5.3-0.3l53.8,42.7c1.9,1.5,2,4.2,0.3,5.9l-7,7c0,0,52.7,46.3,57.9,54.2
	c8.1,12.5,15.2,32.5,5.8,51.3c-8.9,18-16.6,28.2-37.6,32.5c-21,4.3-62.2-7.2-62.2-7.2l-96.9-29.7c0,0-49.2-18.1-57.9-50.6
	s21-70.9,21-70.9s28.2-39.8,52.1-48.5S249.5,84.7,249.5,84.7z M234.9,105l-21.2-14.4c0,0-10.5-8-20.3,2.5s-38,38-44.8,68.3
	s33.3,41.9,33.3,41.9s98.7,35.4,123.7,39.1s43-2.9,47.7-15.5c4.7-12.7,3.3-17-6.5-30C337,183.8,295,152,295,152l-7.3,7.3
	c-1.4,1.4-3.6,1.6-5.2,0.4l-55-41.1c-1.9-1.5-2.1-4.3-0.4-6L234.9,105z"/>
</svg>
