<?xml version="1.0" encoding="utf-8"?>
<!-- Generator: Adobe Illustrator 19.0.0, SVG Export Plug-In . SVG Version: 6.00 Build 0)  -->
<svg version="1.1" id="Layer_1" xmlns="http://www.w3.org/2000/svg" xmlns:xlink="http://www.w3.org/1999/xlink" x="0px" y="0px"
	 viewBox="0 0 512 512" style="enable-background:new 0 0 512 512;" xml:space="preserve">
<style type="text/css">
	.st0{fill:#E65B25;}
	.st1{fill:#FFFFFF;}
	.st2{fill:#010101;}
</style>
<path class="st0" d="M256,0C161.7,0,85.3,76.4,85.3,170.7S161.7,341.3,256,341.3V512l151.1-262c12.5-23.7,19.6-50.7,19.6-79.4
	C426.7,76.4,350.3,0,256,0z"/>
<path class="st1" d="M409.6,170.7c0,84.8-68.8,153.6-153.6,153.6s-153.6-68.8-153.6-153.6S171.2,17.1,256,17.1
	S409.6,85.8,409.6,170.7z"/>
<g>
	<path class="st2" d="M191.8,72.6c0,0,15.7-36.5,64.6-35.2s60.1,32.7,60.1,32.7v64.2c0,0,7.5,9.9,13.7,9.5c6.2-0.4,24,0.4,24,9.5
		s-0.8,17.8-26.1,33.6c0,0-11.6,7.5-11.2,30.2c0.4,22.8,0.8,56.4,0.8,56.4s-15.3,41.4-83.3,30.7l-4.1-54.3c0,0-11.2-9.9-13.7,0.8
		l-0.8,48.1c0,0-14.1-4.6-26.1-26.1V75.5L191.8,72.6z"/>
	<path class="st1" d="M220.4,83.9c0,0-10.6,5.2-9.9-2.9c0.6-8.1,16.2-22.5,30.3-24.1c6.6-0.7,18.5-2.4,35.9,3.7s25.2,16.2,13.7,25
		c-11.5,8.7-15.8,9.3-33.9,9.6c-18,0.3-25.2-11.2-25.2-15v-1.3c0-1.6,0.9-3.1,2.4-3.9c0,0,0,0,0.1,0c1.9-1,3.1-2.9,3.1-4.9v-0.1
		c0-1.8-1.9-3-3.7-2.3C228.6,69.4,221.1,73.8,220.4,83.9z M266.2,67c-8.8,0-16,4.2-16,9.3c0,5.1,7.1,9.3,16,9.3s16-4.2,16-9.3
		C282.2,71.2,275,67,266.2,67z"/>
	<path class="st1" d="M250.2,130.2c0,0,10.6-9.3,11.8-3.7c1.2,5.6-16.8,41-20.5,44.8s-5.6,24.2-5.6,24.2h-6.8v-9.9h-13.1v-9.9
		C216.1,175.6,239.7,154.4,250.2,130.2z"/>
	<path class="st1" d="M282.4,141.2l2.4,2.1c1.3,1.1,1.7,2.9,1.1,4.5L251.5,237c-0.7,1.8-2.6,2.9-4.6,2.5l-6.8-1.4
		c-2.5-0.5-3.9-3.2-2.9-5.5l38.8-89.9C277.1,140.2,280.3,139.4,282.4,141.2z"/>
	<path class="st1" d="M302.9,148.6l2.6,0.8c2.2,0.7,3.4,2.9,3,5.1l-23.8,113.6c0,0-7,12.4-18.4,14.3c0,0,7.4-33,12-49.1
		c5-17.5,15.7-66,19-81.5C297.8,149.3,300.4,147.8,302.9,148.6z"/>
</g>
</svg>
