<?xml version="1.0" encoding="utf-8"?>
<!-- Generator: Adobe Illustrator 19.0.0, SVG Export Plug-In . SVG Version: 6.00 Build 0)  -->
<svg version="1.1" id="Layer_1" xmlns="http://www.w3.org/2000/svg" xmlns:xlink="http://www.w3.org/1999/xlink" x="0px" y="0px"
	 viewBox="0 0 512 512" style="enable-background:new 0 0 512 512;" xml:space="preserve">
<style type="text/css">
	.st0{fill:#E65B25;}
	.st1{fill:#FFFFFF;}
</style>
<g>
	<path class="st0" d="M256,0C161.7,0,85.3,76.4,85.3,170.7S161.7,341.3,256,341.3V512l151.1-262c12.5-23.7,19.6-50.7,19.6-79.4
		C426.7,76.4,350.3,0,256,0z"/>
	<path class="st1" d="M409.6,170.7c0,84.8-68.8,153.6-153.6,153.6s-153.6-68.8-153.6-153.6S171.2,17.1,256,17.1
		S409.6,85.8,409.6,170.7z"/>
</g>
<g>
	<path d="M367.6,138.1c-0.4,0.4-0.9,0.7-1.2,1.1c-0.5,0.7-0.9,1.6-1.5,2.3c-3.9,4.1-7.9,8.2-11.8,12.4c-2.3,2.5-5.3,3.4-8.5,3.4
		c-0.6,0-1.3-0.2-1.9-0.3c0.3-0.6,0.6-1.2,1-1.7c5.1-5.2,9.2-11.1,12.6-17.5c4.3-8.1,7.6-16.5,9.5-25.4c1.2-5.5,1.9-11.1,0.6-16.7
		c-0.4-1.6-1-3.1-1.6-4.6c-0.1-0.3-0.7-0.5-1.1-0.7c-0.2,0.4-0.5,0.7-0.6,1.1c-0.1,1.1-0.2,2.2-0.1,3.4c0.4,6.6,0.1,13.2-2,19.6
		c-2.9,9.1-7.4,17.4-13.4,24.8c-4.2,5.2-8.7,10-13.7,14.3c-2.8,2.3-5.8,3.8-9.6,3.7c-0.3,0-0.6,0.1-1,0.2c-0.4-0.1-0.9-0.3-1.4-0.4
		c0.2-0.6,0.4-1,0.5-1.5c0.9-2.8,1.9-5.5,2.6-8.3c1.4-5.8,3.3-11.3,6.6-16.3c4-6,7.6-12.4,11.2-18.7c3.5-6.1,6.8-12.3,10-18.6
		c0.8-1.5,0.7-3.3-0.2-4.8c-0.1,0-0.3,0-0.4,0l0,0c0.1,0,0.3,0,0.4,0c0.2-0.7,0.6-1.4,0.5-2.1c-0.2-3.4-0.4-6.7-0.8-10.1
		c-0.5-4.6-1.6-9.2-3.6-13.4c-0.6-1.2-1.3-2.3-3.2-2.7c0.3,1.5,0.4,2.7,0.7,3.9c1.8,5.6,2.3,11.3,1.9,17.1c-0.1,1.1-0.1,2.1-0.1,3.2
		c-0.3,1.5-0.6,3.1-0.9,4.6c-0.4,1.9-0.9,3.8-1.3,5.7c-1.4,2.7-2.6,5.6-4.3,8.1c-3.1,4.9-6.4,9.6-9.8,14.4c-0.7,1.1-1.8,1.9-3,3
		c-0.2-0.8-0.3-1.1-0.3-1.5c-0.3-2.6-0.5-5.1-1-7.7c-0.7-4-1.3-8-2.2-12c-1.4-6.2-2.7-12.5-4.5-18.6c-1.2-4-3.1-7.9-5-11.6
		c-2.4-4.5-5.1-8.8-7.8-13.2c-0.5-0.8-1.4-1.5-2.2-2.1c-0.3-0.3-1-0.1-1.4-0.2c0.1,0.5,0.1,1,0.3,1.4c1.2,2.4,2.7,4.7,3.8,7.2
		c3.1,7.2,5.4,14.8,7.3,22.4c2,7.8,3.7,15.7,4.2,23.7c0.3,5.3,0.4,10.6,0.2,15.8c-0.2,5.7-0.5,11.3-1.4,16.9
		c-0.8,5.6-3.3,10.7-7.1,15c-1.4,1.5-3,2.6-5.1,3c-3,0.6-6,1.4-9,2c-4,0.8-8,1.6-12,2.2c-2.7,0.4-3.4-0.3-3.6-3
		c-0.1-1.3-0.2-2.7-0.6-4c-0.2-0.8-0.8-1.4-1.1-2.2c-0.5,0.7-1.2,1.3-1.5,2c-1,3.5-3.1,6.4-5.4,9.1c-2.6,3.1-5.6,6-8.5,8.9
		c-0.4,0.4-1.2,0.7-1.8,0.7c-5,0.1-10,0-15.1,0c-0.4,0-0.8-0.2-1.1-0.4c-4.5-4.4-8.4-9.3-11.6-14.6c-0.8-1.4-1.5-2.9-2.3-4.4
		c-0.2-0.4-0.7-0.7-1.1-1c-0.3,0.4-0.8,0.9-0.8,1.3c-0.3,1.7-0.4,3.3-0.5,5c-0.2,1.9-0.5,2.4-2.4,2.5c-1.2,0-2.4,0-3.6-0.2
		c-6.2-1.3-12.3-2.7-18.5-3.9c-2.7-0.5-4.7-1.9-6.2-4.1c-2.4-3.4-4.2-7.1-5.4-11.1c-1.8-6.5-2.1-13.1-2.3-19.8
		c-0.4-13,1.2-25.9,4.2-38.6c2.3-9.9,5.3-19.6,10.3-28.6c0.7-1.2,1.2-2.4,1.7-3.6c-0.1-0.1-0.2-0.2-0.2-0.3
		c-0.5,0.2-1.1,0.2-1.4,0.5c-1,1-2.1,2-2.9,3.1c-1.7,2.4-3.3,4.9-4.7,7.4c-2.9,5-5.5,10.2-7.2,15.8c-3.6,11.5-5.7,23.4-7.5,35.3
		c-0.3,1.8-0.5,3.5-0.8,5.6c-0.4-0.5-0.6-0.7-0.8-0.9c-3.7-5.2-7.5-10.3-11-15.6c-2.7-4.1-5.2-8.4-6.2-13.3c-1-5.2-1.2-10.4-1-15.6
		c0.2-4.2,0.5-8.4,1.9-12.4c0.3-0.7,0.3-1.6,0.5-2.7c-0.8,0.4-1.4,0.6-1.6,0.9c-0.8,1.2-1.8,2.4-2.3,3.7c-2.1,5.4-3.1,11.1-3.6,16.9
		c-0.3,3.7-0.7,7.5,0.5,11c1,2.8,2.1,5.7,3.6,8.3c5.2,9.1,10.5,18.1,15.8,27.1c2.6,4.4,5.4,8.8,6.8,13.8c1.4,4.6,2.8,9.2,4.1,13.8
		c0.1,0.4,0.2,0.7,0.2,1.1c-3.9,0.6-7.8-0.4-10.8-2.6c-5.3-4-9.7-9-13.9-14.1c-4.9-5.9-8.9-12.2-11.9-19.2
		c-3.3-7.7-5.1-15.7-4.5-24.1c0.1-1.8,0-3.6,0-5.5c0-0.4-0.2-1-0.4-1c-0.4-0.1-0.9,0.1-1.1,0.4c-0.6,0.9-1.3,1.8-1.5,2.8
		c-0.4,2.1-0.7,4.2-0.8,6.3c-0.4,8.4,1.4,16.4,4.4,24.2c4.3,11.3,9.8,21.9,18.4,30.7c0.6,0.6,0.8,1.4,1.2,2.1
		c-0.9,0.2-1.8,0.3-2.7,0.5c-0.1,0-0.2,0-0.3,0c-2.7-0.4-5-1.6-7.1-3.2c-5.3-4.3-9.8-9.3-13.8-14.9c-0.4-0.5-0.9-0.9-1.4-1.4
		c-0.1,0.1-0.2,0.1-0.3,0.2c0.1,0.5,0,1,0.2,1.5c1.4,3,2.7,6.1,4.4,8.9c2.3,3.5,5.1,6.7,7.5,10.1c2.5,3.6,6,5.2,10.2,5.4
		c6.3,0.4,12.6,0.6,18.9,1.4c12.3,1.5,24.6,3.2,36.6,6.5c5.3,1.5,9.2,4.8,12.9,8.5c0.3,0.3,0.3,1.4,0,1.6c-0.6,0.5-1.5,1-2.2,0.9
		c-3.9-0.5-7.8-1.1-11.6-2c-6.8-1.4-13.3-1.1-19.7,1.6c-1.9,0.8-3.7,1.8-5.6,2.7c1.5,2.9,3.4,5.1,5.8,7c4.8,3.8,10.3,4.2,15.9,3.2
		c3.9-0.7,7.7-2,11.6-2.7c2.7-0.5,5.5-1,8.2-0.9c3.5,0.1,7.7,5.2,7.8,8.8c0,0.9-0.6,1.4-1.3,1.4c-2.1,0-3.7,1.1-5.3,2.2
		c-1,0.7-1.9,1.3-3.2,0.8c-0.1-0.3-0.1-0.6-0.3-0.8c-2.9-2.7-5.9-5.4-8.8-8c-0.1,0.1-0.2,0.2-0.3,0.3c2.9,2.8,5.9,5.7,8.9,8.5
		c0.1,0.1,0.3,0,0.5,0.1c0.1,0.3,0.1,0.6,0.2,0.8c1.4,2.3,3,4.5,4.2,6.9c1.2,2.5,2,5.2,2.9,7.7c-0.1,0.1-0.2,0.1-0.4,0.2
		c-2.1-2.8-4.1-5.6-6.3-8.5c-0.1,0.4-0.2,0.5-0.2,0.6c-0.3,4.7-1.4,9.3-3.1,13.7c-2.2,5.8-4.7,11.6-6.2,17.7
		c-1.7,7.2-3.3,14.4-3.2,21.9c0.1,5.8,2.1,10.9,6.6,14.8c1.7,1.5,3.5,2.9,5.2,4.4c3.1,2.8,6.4,5.3,9.2,8.4
		c5.1,5.6,8.9,12.2,11.4,19.4c0.1,0.4,0.3,0.7,0.6,1.2c0.3-0.7,0.5-1.1,0.6-1.6c3.6-9.5,8.9-17.7,16.7-24.3c3.1-2.6,6.3-5.2,9.3-7.8
		c4-3.5,6.1-8.1,6.2-13.4c0.1-4-0.2-8-0.8-11.9c-1.2-7.9-3.2-15.6-6.2-23.1c-1.6-4.1-3-8.3-4.3-12.5c-0.7-2.4-0.9-4.9-1.4-7.5
		c-2.1,2.8-4.1,5.6-6.3,8.6c0-0.5,0-0.7,0-0.8c1.5-5.3,3.5-10.3,7.2-14.5c0.2-0.2,0.2-0.4,0.3-0.7c0.9-0.9,1.8-1.7,2.7-2.6
		c1.9-1.9,3.8-3.9,5.9-6.1c-3,2.7-5.7,5.2-8.5,7.7c-0.2,0.2-0.2,0.5-0.3,0.8c-0.2,0-0.5-0.1-0.6,0c-0.7,0.8-1.5,0.5-2.2,0
		c-0.7-0.4-1.3-0.9-2-1.3c-1-0.5-2-1.1-3.1-1.3c-2.6-0.5-2.9-0.9-1.9-3.4c0.1-0.2,0.2-0.5,0.3-0.7c2.3-5.3,5.5-7.2,11.2-6.2
		c3,0.5,6,1.3,9,2.1c4.2,1.1,8.3,2,12.7,1.8c7.3-0.3,12.1-4.4,15.7-10.5c-3.9-2.3-7.9-3.8-12.2-4.8c-4.9-1.1-9.8-0.2-14.7,0.7
		c-3.4,0.6-6.7,1.2-10.1,1.7c-1.1,0.2-1.9-0.4-2.3-1.2c-0.2-0.4,0.3-1.2,0.7-1.7c4.1-4.5,9-7.4,15-8.9c6.7-1.7,13.5-2.9,20.4-3.8
		c5.3-0.8,10.6-1.4,15.9-2.2c0.5-0.1,1-0.3,1.5-0.5c0.3,0.1,0.6,0.3,1,0.2c5.1-0.4,10.2-0.8,15.3-1.2c3.1-0.3,6-1,8-3.7
		c3.4-4.6,7.1-9.1,10.5-13.7c1.4-1.9,2.5-4.2,2.7-6.7C368,139.1,367.7,138.6,367.6,138.1z M263.1,238c-0.9,0.7-1.9,1.2-3,1.5
		c-2.9,0.7-5.8,0.7-8.7-0.1c-2.1-0.6-3.6-1.9-4.4-4.1c6.1-1.6,12-1.6,18.3,0.1C264.5,236.3,263.9,237.3,263.1,238z M269,225.9
		c0.3,2.1-0.4,3.8-1.9,5.2c-3,2.7-7.1,2.7-10.9,0.2c1-0.3,1.8-0.6,2.6-0.8c0.5-0.1,0.9-0.2,1.4-0.3c4-0.8,6.2-5.5,4.4-9.2
		c-0.8-1.6-2.2-2-4-1.2c-1.1,0.5-2.2,1.1-3.4,1.3c-1.8,0.4-3.5,0.1-5.1-0.9c-3.7-2.2-5.3,0.2-5.4,3.5c0,1.5,0.6,3,1.2,4.4
		c0.7,1.5,2.3,1.7,3.7,2.1c1.3,0.3,2.6,0.6,4.2,1c-4.5,3.1-9.5,2.4-12.1-1.4c-1.2-1.7-1-3.6-0.4-5.5c0.9-2.8,2.8-5.1,4.8-7.2
		c2.3-2.4,4.7-4.6,7.1-6.9c0.5-0.5,1-0.8,1.6-0.1c3,3.1,6.1,6.1,9,9.3C267.5,221.3,268.6,223.4,269,225.9z"/>
	<path d="M271.9,198.8c0.9,0.5,1.8,1.1,2.7,1.5c2.4,1,4.5,1,5.8-1.5c0.5-1,1.4-1.7,2.7-1.6c0.4,0,0.8-0.2,1.4-0.3
		C280.8,193.7,275.1,194.7,271.9,198.8z"/>
	<path d="M232.8,200.1c0.5,0.5,1.5,0.8,2.3,0.7c1.9,0,3.5-1,5-2.1c-3.2-3.9-10.2-5-12.5-1.7C230.3,196.6,231.4,198.4,232.8,200.1z"
		/>
</g>
</svg>
