<?xml version="1.0" encoding="utf-8"?>
<!-- Generator: Adobe Illustrator 19.0.0, SVG Export Plug-In . SVG Version: 6.00 Build 0)  -->
<svg version="1.1" id="Layer_1" xmlns="http://www.w3.org/2000/svg" xmlns:xlink="http://www.w3.org/1999/xlink" x="0px" y="0px"
	 viewBox="0 0 512 512" style="enable-background:new 0 0 512 512;" xml:space="preserve">
<style type="text/css">
	.st0{fill:#E65B25;}
	.st1{fill:#FFFFFF;}
</style>
<path class="st0" d="M256,0C161.7,0,85.3,76.4,85.3,170.7S161.7,341.3,256,341.3V512l151.1-262c12.5-23.7,19.6-50.7,19.6-79.4
	C426.7,76.4,350.3,0,256,0z"/>
<path class="st1" d="M409.6,170.7c0,84.8-68.8,153.6-153.6,153.6s-153.6-68.8-153.6-153.6S171.2,17.1,256,17.1
	S409.6,85.8,409.6,170.7z"/>
<path d="M119.3,207.2c0.6-0.5,1.2-0.9,1.8-1.4c5.5-3.7,11.1-7.3,16.5-11.1c3.6-2.6,7.3-2.9,11.3-1.4c1.3,0.5,2.6,1,3.7,1.7
	c7.8,5.3,16.6,7.7,25.7,8.9c10.1,1.4,20.3,2.3,30.4,3.4c2.2,0.2,4.4,0,7.3,0c-1.2-2.3-2-4-2.9-5.6c-2.8-4.9-5.6-9.9-8.5-14.7
	c-2.9-4.8-3.5-9.8-2-15.2c0.8-2.8,0.6-5.5,0.2-8.4c-0.4-3.2,0.4-6.9,1.5-10c4.4-12.6,9.6-24.8,15.9-36.6c0.8-1.5,1.9-3,3-4.3
	c0.4-0.5,1.5-1,2-0.8c0.6,0.2,1.1,1.2,1.1,1.9c0,1.4-0.3,2.8-0.5,4.2c-0.1,0.8-0.3,1.6,0,2.6c0.8-1.2,1.5-2.4,2.4-3.4
	c0.6-0.7,1.6-1,2.5-1.5c0.5,0.9,1.3,1.9,1.3,2.8c0,2.5-0.4,5.1-0.7,8.3c1.2-1.6,2-2.8,2.9-3.8c0.6-0.6,1.7-1.3,2.4-1.2
	c0.7,0.2,1.4,1.3,1.6,2.1c0.3,1.6,0.1,3.3,0.1,5c0,0.9,0,1.7,0,2.9c0.8-0.3,1.4-0.5,1.9-0.8c3.5-2.1,3.9-1.9,4.5,2.2
	c0.1,0.7,0.1,1.5,0.4,2.1c0.2,0.6,0.6,1.5,1.1,1.7c2.6,1,2.8,3.3,3.1,5.5c0.3,2.5,0.4,4.9,3.4,5.9c0.8,0.3,1.5,1.8,1.5,2.7
	c0.1,2.7,1.2,4.5,3.4,6.1c1.5,1.1,2.5,3,3.6,4.4c3.2-4.3,6.3-9,10-13.1c7.8-8.5,15.9-16.8,24-25.1c7.6-7.7,15.8-14.7,22.9-22.8
	c9.4-10.7,17.9-22,26.9-33.1c0.6-0.7,1.4-1.3,2-2c0.2,0.1,0.5,0.3,0.7,0.4c-1.1,3.4-2.2,6.8-3.4,10.2c0.1,0.1,0.2,0.1,0.3,0.2
	c1.9-2.2,3.8-4.5,5.9-6.5c0.9-0.9,2.4-1.2,3.6-1.8c-0.1,1.3,0.2,2.7-0.2,3.9c-0.9,2.5-2.1,5-2.9,7.8c1.5-1,3-2.2,4.6-3
	c1.1-0.6,2.4-0.8,3.6-1.2c-0.3,1.2-0.4,2.4-0.8,3.5c-0.7,1.7-1.7,3.3-2.8,5.3c2.4,0,4.3-0.2,6.1,0c3,0.4,3.9,1.7,3,4.6
	c-1,3.3-2.3,6.4-3.5,9.6c-1.1,2.9-1,5.6,0.5,8.5c2.7,5.2,2,8.5-2.4,12.3c-3.5,3-5.5,6.5-5,11.3c0.3,2.9-0.9,5.2-3.3,7
	c-4.8,3.6-7.8,8.4-9.5,14.2c-3.4,11.5-7.2,23-10.8,34.4c-1.4,4.3-4,8-6.8,11.5c-4.4,5.5-8.9,10.9-13,16.6c-4.4,6.1-3.3,9.6,4.4,13.2
	c8.7,4.1,18.1,5.4,27.5,6.5c4,0.5,7.9,1.2,11.8,1.9c0.9,0.2,1.7,1.2,2.6,1.8c-0.8,0.7-1.6,1.7-2.5,2.2c-1.1,0.6-2.4,0.7-3.8,1.1
	c0.1,0.6,0.2,1.1,0.3,1.6c1,3.6,0.1,5-3.7,4.9c-6.7-0.3-13.2,0.9-19.4,3.4c-1.5,0.6-3.2,1.1-4.8,1.3c-9,1-17.9,2.1-26.9,2.8
	c-8.3,0.7-16.7,1.4-25.1,1.5c-12.2,0.2-23.6-3.2-34.7-7.9c-9.3-3.9-17.9-9.1-25.5-15.8c-5.6-5-12.4-7.8-19.2-10.4
	c-9.3-3.6-18.9-6.8-28.5-9.6c-4.8-1.4-10.1-1.6-15.1-1.7c-4.6-0.1-9.2-0.3-13.7-1.4c-3.5-0.9-7.2-1-10.9-1.5
	c-1.2-0.2-2.5-0.3-3.7-0.4C119.5,207.8,119.4,207.5,119.3,207.2z"/>
</svg>
