<?xml version="1.0" encoding="utf-8"?>
<!-- Generator: Adobe Illustrator 19.0.0, SVG Export Plug-In . SVG Version: 6.00 Build 0)  -->
<svg version="1.1" id="Layer_1" xmlns="http://www.w3.org/2000/svg" xmlns:xlink="http://www.w3.org/1999/xlink" x="0px" y="0px"
	 viewBox="0 0 512 512" style="enable-background:new 0 0 512 512;" xml:space="preserve">
<style type="text/css">
	.st0{fill:#E65B25;}
	.st1{fill:#FFFFFF;}
</style>
<path class="st0" d="M256,0C161.7,0,85.3,76.4,85.3,170.7S161.7,341.3,256,341.3V512l151.1-262c12.5-23.7,19.6-50.7,19.6-79.4
	C426.7,76.4,350.3,0,256,0z"/>
<path class="st1" d="M409.6,170.7c0,84.8-68.8,153.6-153.6,153.6s-153.6-68.8-153.6-153.6S171.2,17.1,256,17.1
	S409.6,85.8,409.6,170.7z"/>
<path d="M313.1,156.3c-4.5,0-9.1-0.1-13.6,0c-4.7,0.2-8.2-1.7-11.1-5.4c-8.1-10.2-16.2-20.4-24.3-30.5c-0.8-0.9-1.9-1.5-2.9-2.3
	c-1.1,1.8,0.7,2.5,1.4,3.5c3.5,4.6,7.1,9.1,10.8,13.6c1,1.2,1.2,2.3,0.8,3.9c-2.8,10.6-5.4,21.2-8.3,31.8c-1.1,3.8-0.3,6.7,2.1,9.8
	c8.7,11.2,17.1,22.6,25.7,33.9c3.8,5,5.6,10.5,5.3,16.9c-0.8,17.5-1.2,35.1-2.1,52.6c-0.2,3.5-1.1,7-2.3,10.2
	c-2.3,6.1-7.1,9.3-12.9,9.2c-5.6-0.1-10.7-4-12.8-9.8c-2.1-5.8-1.3-11.7-0.8-17.7c1-10.1,1.8-20.3,2.6-30.4
	c0.8-9.4-2.9-16.9-9.6-23.4c-7.8-7.6-15.2-15.6-22.6-23.5c-2.5-2.7-4.5-5.8-6.8-8.7c-6.9-8.7-8.8-18.4-5.8-29
	c5.7-20,11.4-40,17.5-59.9c3.4-11,13.3-16.1,23.7-13.2c5.4,1.5,8.8,5.3,11.5,9.8c5.4,9.2,10.7,18.4,16,27.6
	c5.3,9.2,13.2,12.7,23.7,11.7c5.2-0.5,10.5-0.6,15.7-0.2c5,0.4,7.5,3.2,8.1,7.4c0.6,4.3-1.7,9-5.7,10.6c-2.7,1.1-5.7,1.5-8.6,1.8
	c-2.4,0.3-4.9,0-7.3,0c-2.4,0-4.9,0-7.3,0C313.1,156.5,313.1,156.4,313.1,156.3z M219.4,160.8c2.6-7.8,4.9-15.7,7.3-23.5
	c4.1-13.2,8.1-26.3,12.1-39.5c2.1-7,0.3-10.3-6.7-12.4c-4.5-1.3-9.1-2.3-13.7-3.2c-3.9-0.8-7.3,0.4-9.8,3.7c-0.8,1-1.6,1.9-2.2,3
	c-4.9,8.5-9.8,16.9-14.6,25.5c-1.1,2-2.5,3.1-4.8,2.9c-2.8-0.3-4.6,1.1-5.8,3.5c-2.4,4.6-4.9,9.1-7.2,13.7c-1.4,2.9-2.8,5.8-3.5,8.9
	c-0.7,3-0.9,6.3-0.4,9.2c1,5.9,5.6,9.1,10.7,11.2c5.8,2.5,11.8,4.6,17.8,6.8c2,0.7,4.3,0.9,6.4,1.3
	C212.5,171.7,216.9,168.5,219.4,160.8z M215.8,212.9c-1.8,10-5.1,19.2-10.9,27.7c-6.6,9.7-12.4,20-18.4,30c-1.3,2.1-2.3,4.5-2.9,6.9
	c-1.6,5.6,0.9,11.5,5.8,14.4c4.7,2.8,10.5,2.1,14.9-2.2c1.7-1.6,3.2-3.5,4.4-5.5c9.2-15,18.2-30.2,28.5-44.4c3-4.1,5-8.6,6.1-13.6
	c0.9-4.3,2-8.5,3.2-12.7c0.5-1.7,0.2-2.8-1-4.2c-8.6-9.7-17.8-18.9-22.4-31.8C220.5,189.5,217.9,201.2,215.8,212.9z M306.8,59.8
	c-0.1-0.9-0.2-1.7-0.4-2.5c-2.3-9.9-7.9-17.1-17.9-19.9c-9.4-2.6-17.5,0.1-24.1,7.2c-9.4,10.2-9,26.8,0.5,36.8
	c8.4,8.9,21.6,10.1,31.4,2.8c7.1-5.3,10.3-12.7,10.4-21.6C306.8,61.6,306.9,60.7,306.8,59.8z M320.7,204.4c-2.1,17-4.3,34-6.4,51
	c-1.9,15.4-3.9,30.8-5.8,46.1c-0.2,1.6-0.1,3.2,1.9,3.4c1.9,0.2,2.4-1.2,2.6-2.9c2.1-17.2,4.3-34.5,6.5-51.7
	c3.4-27.4,6.9-54.8,10.3-82.3c0.4-3.2,0.7-6.3,1.1-9.7c-1.6,0.1-2.9,0.2-4.5,0.3C324.5,174.1,322.6,189.3,320.7,204.4z M334.2,132.9
	c1-7.8,1.9-15.7,3-23.5c0.2-1.7,0.4-3.4-1.7-3.7c-2.3-0.4-2.6,1.5-2.8,3.2c-0.7,5.7-1.4,11.3-2.1,17c-0.3,2.7-0.6,5.4-1,8.1
	c1.6,0.2,2.9,0.3,4.3,0.4C334,133.8,334.1,133.4,334.2,132.9z"/>
</svg>
