<?xml version="1.0" encoding="utf-8"?>
<!-- Generator: Adobe Illustrator 19.0.0, SVG Export Plug-In . SVG Version: 6.00 Build 0)  -->
<svg version="1.1" id="Layer_1" xmlns="http://www.w3.org/2000/svg" xmlns:xlink="http://www.w3.org/1999/xlink" x="0px" y="0px"
	 viewBox="0 0 512 512" style="enable-background:new 0 0 512 512;" xml:space="preserve">
<style type="text/css">
	.st0{fill:#E65B25;}
	.st1{fill:#FFFFFF;}
</style>
<path class="st0" d="M256,0C161.7,0,85.3,76.4,85.3,170.7S161.7,341.3,256,341.3V512l151.1-262c12.5-23.7,19.6-50.7,19.6-79.4
	C426.7,76.4,350.3,0,256,0z"/>
<path class="st1" d="M409.6,170.7c0,84.8-68.8,153.6-153.6,153.6s-153.6-68.8-153.6-153.6S171.2,17.1,256,17.1
	S409.6,85.8,409.6,170.7z"/>
<g>
	<path d="M179.7,284.3c-0.5-0.1-1.3,0-1.7-0.3c-4-3.8-8.6-7.3-11.8-11.7c-2.5-3.5,0.3-7.9,4.6-8.4c6-0.8,10-4.5,13.4-9
		c12.8-16.8,25.6-33.7,38.3-50.6c16.3-21.5,32.6-42.9,48.7-64.5c1.7-2.2,2.7-5.1,3.3-7.8c4.4-18.6,13.3-34.9,24.4-50.1
		c5.7-7.8,11.6-15.6,17.4-23.3c1.1-1.5,2.5-2.9,4-4c2.8-2,5.7-2.3,8.6,0.1c5.6,4.5,11.3,8.8,16.9,13.3c4.1,3.3,5.2,7.9,2.3,12.4
		c-16.5,25.4-35.4,48.3-63.1,62.6c-3.3,1.7-5.6,5.7-8,8.8c-28.4,36.8-56.7,73.6-85,110.5c-3.6,4.6-6.4,9.5-6.5,15.7
		C185.7,281.8,182.9,284.4,179.7,284.3z"/>
</g>
</svg>
