<?xml version="1.0" encoding="utf-8"?>
<!-- Generator: Adobe Illustrator 19.0.0, SVG Export Plug-In . SVG Version: 6.00 Build 0)  -->
<svg version="1.1" id="Layer_1" xmlns="http://www.w3.org/2000/svg" xmlns:xlink="http://www.w3.org/1999/xlink" x="0px" y="0px"
	 viewBox="0 0 612 792" style="enable-background:new 0 0 612 792;" xml:space="preserve">
<style type="text/css">
	.st0{fill:#3959A4;}
	.st1{fill:#FFFFFF;}
	.st2{fill:#020202;}
</style>
<g>
	<path id="XMLID_5_" class="st0" d="M572.6,474.4c24-42.9,37.7-91.6,37.7-143.6c0-165-136.4-299.5-304.7-299.5S0.9,165.1,0.9,330.8
		c0,50.7,13,98.8,35.7,140.3l0,0l0,0c18.2,33.8,42.9,63.7,72.1,87.7l151.4,184.5c20.8,25.3,59.1,25.3,79.9,0.6l154-179.3
		C526.5,540,553.1,509.5,572.6,474.4L572.6,474.4L572.6,474.4z"/>
	<path id="XMLID_4_" class="st1" d="M551.2,335.4c0,137.7-111.1,248.2-248.8,248.2c-137.1,0-248.2-113-247.5-248.8
		C55.5,200.2,162.7,87.2,303,87.2C442.7,86.5,551.8,199.6,551.2,335.4z"/>
</g>
<g>
	<path id="XMLID_3_" class="st2" d="M225.7,529.6c-11-1.3-20.1-5.8-26-16.2c-5.8-10.4-4.5-20.1,1.9-29.9
		c39.6-58.5,79.3-116.9,118.9-176.1c1.3-2.6,1.9-4.5,1.3-7.1c-1.9-6.5-3.9-13-5.2-19.5c-1.9-11,0.6-20.8,5.8-30.5
		c13.6-24.7,29.2-48.7,43.5-72.8c3.2-5.8,7.1-11.7,10.4-16.9c3.2-4.5,7.8-6.5,11.7-3.9c4.5,2.6,5.2,7.1,2.6,12.3
		c-13.6,24.7-27.3,49.4-40.9,74.7c-2.6,4.5-1.9,7.1,0.6,9.1c2.6,1.3,5.8,0,7.8-3.9c14.9-24,29.2-48.1,44.2-72.8
		c3.2-5.8,9.1-6.5,13.6-2.6c3.2,2.6,3.2,6.5,1.3,11c-9.1,16.2-17.5,32.5-26.6,48.7c-4.5,9.1-9.7,17.5-14.3,26.6
		c-1.9,3.2-1.3,6.5,1.3,7.8c2.6,1.3,5.8,0.6,7.8-2.6c14.9-24.7,29.9-48.7,44.8-73.4c3.2-5.8,9.1-6.5,13.6-2.6
		c2.6,2.6,3.2,5.2,1.3,8.4c-16.2,29.2-32.5,58.5-48.1,87.7c-8.4,16.2-20.8,27.3-39,29.9c-9.1,1.3-13.6,5.8-17.5,14.3
		c-29.2,61.7-59.1,122.8-89,183.9C245.8,523.1,238.1,529,225.7,529.6z"/>
	<path id="XMLID_2_" class="st2" d="M277,348.3c-3.9-7.8-7.8-14.3-11-22.1c-1.3-2.6-1.9-2.6-4.5-1.3c-6.5,3.9-13,6.5-20.8,5.8
		c-13.6-0.6-23.4-7.8-28.6-20.1c-12.3-30.5-24-61.7-36.4-92.3c-3.9-9.7-8.4-18.8-10.4-28.6c-3.2-13,3.9-27.3,14.9-33.8
		c5.2-2.6,10.4-1.3,13.6,4.5c9.7,14.9,19.5,29.2,29.2,44.2c24,36.4,48.1,72.8,72.1,109.8c1.9,2.6,1.3,4.5,0,6.5
		C289.4,329.5,282.9,338.6,277,348.3z"/>
	<path id="XMLID_1_" class="st2" d="M334.9,374.3c1.3,0.6,1.3,1.9,1.9,2.6c24,35.7,47.4,71.5,71.5,107.8c9.7,14.9,5.8,31.8-11,41.6
		c-13.6,7.8-31.2,1.9-38.3-13c-14.9-30.5-29.9-60.4-44.8-91c-0.6-1.3-1.3-2.6,0-3.9c7.1-14.3,14.3-28.6,20.8-42.9
		C334.9,375,334.9,374.3,334.9,374.3z"/>
</g>
</svg>
