<?xml version="1.0" encoding="utf-8"?>
<!-- Generator: Adobe Illustrator 19.0.0, SVG Export Plug-In . SVG Version: 6.00 Build 0)  -->
<svg version="1.1" id="Layer_1" xmlns="http://www.w3.org/2000/svg" xmlns:xlink="http://www.w3.org/1999/xlink" x="0px" y="0px"
	 viewBox="0 0 612 792" style="enable-background:new 0 0 612 792;" xml:space="preserve">
<style type="text/css">
	.st0{fill:#1CACDE;}
	.st1{fill:#FFFFFF;}
	.st2{fill:none;stroke:#010101;stroke-width:5;stroke-miterlimit:10;}
	.st3{fill:#010101;}
</style>
<g>
	<path id="XMLID_7_" class="st0" d="M571.9,473.4c24-42.7,37.5-91.3,37.5-143.1C609.5,166,473.5,32,305.9,32S2.3,165.3,2.3,330.4
		c0,50.5,12.9,98.4,35.6,139.8l0,0l0,0c18.1,33.7,42.7,63.4,71.9,87.4l150.8,183.8c20.7,25.2,58.9,25.2,79.6,0.6l153.4-178.7
		C526,538.8,552.5,508.4,571.9,473.4L571.9,473.4L571.9,473.4z"/>
	<path id="XMLID_6_" class="st1" d="M550.6,334.9c0,137.2-110.7,247.3-247.9,247.3C166.1,582.2,55.4,469.6,56,334.3
		c0.6-134,107.5-246.6,247.3-246.6C442.5,87.6,551.2,199.6,550.6,334.9z"/>
</g>
<polyline id="XMLID_5_" class="st2" points="168,364.7 390.7,364.7 390.7,188 441.2,188 "/>
<circle id="XMLID_4_" class="st3" cx="214.6" cy="447.5" r="34.3"/>
<circle id="XMLID_3_" class="st3" cx="338.9" cy="447.5" r="34.3"/>
<rect id="XMLID_2_" x="181" y="188" class="st3" width="172.2" height="146.9"/>
<g>
	<path id="XMLID_1_" class="st1" d="M258.6,268.2h-27.8v-15.5h27.8v-27.8h15.5v27.8H302v15.5h-27.8v27.8h-15.5V268.2z"/>
</g>
</svg>
