<?xml version="1.0" encoding="utf-8"?>
<!-- Generator: Adobe Illustrator 19.0.0, SVG Export Plug-In . SVG Version: 6.00 Build 0)  -->
<svg version="1.1" id="Layer_1" xmlns="http://www.w3.org/2000/svg" xmlns:xlink="http://www.w3.org/1999/xlink" x="0px" y="0px"
	 viewBox="0 0 612 792" style="enable-background:new 0 0 612 792;" xml:space="preserve">
<style type="text/css">
	.st0{fill:#7F6750;}
	.st1{fill:#FFFFFF;}
	.st2{fill:#010101;}
</style>
<g>
	<path id="XMLID_5_" class="st0" d="M572.7,474.5c24.1-43,37.7-91.8,37.7-143.8c0-165.3-136.7-300-305.2-300S0,164.7,0,330.7
		c0,50.8,13,98.9,35.8,140.6l0,0l0,0c18.2,33.8,43,63.8,72.2,87.9L259.7,744c20.8,25.4,59.2,25.4,80.1,0.7L494,565
		C526.5,540.3,553.2,509.7,572.7,474.5L572.7,474.5L572.7,474.5z"/>
	<path id="XMLID_4_" class="st1" d="M551.3,335.2c0,138-111.3,248.6-249.3,248.6c-137.3,0-248.6-113.2-248-249.3
		c0.7-134.7,108-248,248.6-248C442.6,86,551.9,199.2,551.3,335.2z"/>
</g>
<g>
	<path id="XMLID_3_" class="st2" d="M451,355.4c-111.3,0-221.9,0-332.6,0c0,1.3,0,2,0,3.3c0,22.1,0,44.3,0,66.4
		c0,5.2,1.3,6.5,6.5,6.5c7.2,0,14.3,0,21.5,0c5.2,0,6.5-1.3,6.5-6.5c0-10.4,0-20.8,0-31.2c0-1.3,0-2,0-3.3c99.6,0,199.2,0,298.7,0
		c0,1.3,0,2.6,0,3.3c0,10.4,0,21.5,0,31.9c0,4.6,1.3,5.9,5.9,5.9c7.2,0,15,0,22.1,0c5.2,0,6.5-1.3,6.5-6.5c0-31.2,0-62.5,0-93.7
		c0-30.6,0-61.8,0-92.4c0-5.9-1.3-7.2-7.2-7.2c-6.5,0-13,0-19.5,0s-7.8,1.3-7.8,7.8c0,37.1,0,74.8,0,111.9
		C451,352.8,451,354.1,451,355.4z"/>
	<path id="XMLID_2_" class="st2" d="M343.6,341.1c0-0.7,0-2,0-2.6c0-18.9,0-37.7,0-56.6c0-13.7-11.7-24.7-24.7-22.8
		c-6.5,0.7-12.4,2.6-18.9,3.9c-47.5,10.4-95.7,20.8-143.2,30.6c-22.8,5.2-38.4,23.4-38.4,46.2c0,0.7,0,0.7,0,1.3
		C194,341.1,268.8,341.1,343.6,341.1z"/>
	<path id="XMLID_1_" class="st2" d="M358.6,302c0,21.5,17.6,39.1,39.1,39.1s39.7-17.6,39.7-39.7c0-21.5-17.6-39.1-39.1-39.7
		C376.2,263,358,280.6,358.6,302z"/>
</g>
</svg>
