<?xml version="1.0" encoding="utf-8"?>
<!-- Generator: Adobe Illustrator 19.0.0, SVG Export Plug-In . SVG Version: 6.00 Build 0)  -->
<svg version="1.1" id="Layer_1" xmlns="http://www.w3.org/2000/svg" xmlns:xlink="http://www.w3.org/1999/xlink" x="0px" y="0px"
	 viewBox="0 0 612 792" style="enable-background:new 0 0 612 792;" xml:space="preserve">
<style type="text/css">
	.st0{fill:#65BC47;}
	.st1{fill:#FFFFFF;}
	.st2{clip-path:url(#XMLID_13_);}
	.st3{fill:#020202;}
	.st4{fill:#010101;}
</style>
<g>
	<path id="XMLID_11_" class="st0" d="M572.9,474c24.1-43,37.8-91.8,37.8-143.9C610.7,164.7,473.9,30,305.3,30S0,164.1,0,330.1
		c0,50.8,13,99,35.8,140.6l0,0l0,0c18.2,33.9,43,63.8,72.3,87.9l151.7,184.9c20.8,25.4,59.2,25.4,80.1,0.7l154.3-179.7
		C526.7,539.7,553.4,509.1,572.9,474L572.9,474L572.9,474z"/>
	<path id="XMLID_10_" class="st1" d="M551.4,335.3c0,138-111.3,248.7-249.3,248.7C164.7,584,53.4,470.7,54,334.7
		c0.7-134.8,108.1-248,248.7-248C442.7,86,551.4,198.6,551.4,335.3z"/>
</g>
<g>
	<g>
		<defs>
			<path id="XMLID_9_" d="M551.4,335.3c0,138-111.3,248.7-249.3,248.7C164.7,584,53.4,470.7,54,334.7c0.7-134.8,108.1-248,248.7-248
				C442.7,86,551.4,198.6,551.4,335.3z"/>
		</defs>
		<clipPath id="XMLID_13_">
			<use xlink:href="#XMLID_9_"  style="overflow:visible;"/>
		</clipPath>
		<g class="st2">
			<g>
				<path id="XMLID_8_" class="st3" d="M116.5,285.8c2,0.7,3.3,0.7,5.2,1.3c11.7,3.9,19.5,15,18.9,28c-0.7,11.7-9.8,22.1-21.5,24.1
					c-15.6,3.3-29.9-7.8-31.9-23.4c-2-14.3,8.5-28,22.8-29.9h0.7C112,285.8,114.6,285.8,116.5,285.8z"/>
				<path id="XMLID_7_" class="st3" d="M125.6,406.3c-1.3,5.2-2.6,9.8-3.3,15c-2.6,12.4-5.9,25.4-8.5,37.8c0,0.7,0,1.3,0.7,2
					c12.4,14.3,24.7,29.3,37.1,43.6c3.3,3.9,5.9,7.2,9.1,11.1c2,2.6,2.6,5.9,3.3,9.1c2.6,13.7,5.2,28,7.8,41.7
					c1.3,7.8,3.3,15.6,4.6,23.4c2,11.1-5.9,19.5-15,20.8c-9.1,1.3-18.9-5.2-20.8-15c-3.3-18.9-7.2-37.1-11.1-56c0-0.7,0-1.3-0.7-2
					c-0.7-3.3-1.3-5.9-3.9-7.8c-11.7-13-23.4-25.4-35.2-38.4c0,0,0,0-0.7-0.7c-0.7,3.3-1.3,6.5-2,9.8c-2.6,10.4-4.6,20.8-7.2,31.2
					c-0.7,3.3-2.6,5.9-3.9,8.5c-12.4,20.2-24.1,41-36.5,61.2c-3.9,6.5-9.8,9.8-16.9,9.8c-7.8,0-15.6-6.5-16.9-14.3
					c-0.7-4.6,0-9.1,2.6-13.7c11.1-18.2,22.1-37.1,33.2-55.3c2-2.6,2-5.9,2.6-8.5c6.5-29.9,13.7-60.5,20.2-90.5
					c2-9.8,4.6-18.9,6.5-28.6c0-0.7,0.7-1.3,0-1.3s-0.7,0-1.3,0.7c-5.2,4.6-11.1,8.5-16.3,13c-0.7,0.7-0.7,0.7-0.7,2
					c-3.3,14.3-6.5,29.3-9.8,43.6c-1.3,6.5-6.5,11.1-13,11.1c-7.2,0-13-7.2-11.1-14.3c3.9-17.6,7.8-35.2,11.7-52.7
					c0.7-2.6,2-5.2,3.9-6.5c17.6-14.3,35.2-28.6,53.4-43c16.3-13,34.5-4.6,41.7,9.1c8.5,16.9,16.9,33.9,25.4,50.8
					c0.7,1.3,1.3,2,2.6,2.6c11.7,7.8,23.4,16.3,35.2,24.1c3.9,2.6,5.9,7.2,5.2,11.7c-0.7,5.2-3.9,8.5-9.1,9.8c-3.9,0.7-7.2,0-9.8-2
					c-13-9.1-26-18.2-39.1-26.7c-2-1.3-2.6-2.6-3.9-4.6C132.2,419.3,128.9,412.8,125.6,406.3z"/>
			</g>
			<g>
				<path id="XMLID_6_" class="st3" d="M316.4,209c2,0.7,3.9,0.7,5.9,1.3c14.3,4.6,22.8,17.6,22.1,32.6c-0.7,13.7-11.7,26-25.4,28.6
					c-18.2,3.3-35.2-9.1-37.8-27.3c-2-16.9,9.8-32.6,26.7-35.2c0,0,0.7,0,0.7-0.7C311.2,209,313.8,209,316.4,209z"/>
				<path id="XMLID_5_" class="st3" d="M327.5,350.3c-1.3,5.9-2.6,11.7-3.9,17.6c-3.3,15-6.5,29.3-9.8,44.3c0,1.3,0,2,0.7,2.6
					c14.3,16.9,29.3,34.5,43.6,51.4c3.9,4.6,7.2,8.5,11.1,13c2.6,3.3,3.3,7.2,3.9,11.1c3.3,16.3,6.5,32.6,9.1,48.8
					c2,9.1,3.9,18.2,5.2,27.3c2,13-6.5,22.8-18.2,24.7c-11.1,2-22.1-6.5-24.1-17.6c-3.9-22.1-8.5-44.3-12.4-65.8
					c0-0.7-0.7-2-0.7-2.6c-0.7-3.9-2-6.5-4.6-9.1c-13.7-15-27.3-29.9-41.7-45.6l-0.7-0.7c-0.7,3.9-2,7.8-2.6,11.7
					c-2.6,12.4-5.2,24.7-7.8,37.1c-0.7,3.9-3.3,6.5-4.6,9.8c-14.3,24.1-28.6,48.2-43,72.3c-4.6,7.8-11.1,11.7-20.2,11.1
					c-9.1,0-18.2-7.8-19.5-16.9c-1.3-5.9,0-11.1,3.3-15.6c13-21.5,26-43.6,39.1-65.1c2-3.3,2.6-6.5,3.3-10.4
					c7.8-35.2,16.3-71,24.1-106.1c2.6-11.1,5.2-22.8,7.8-33.9c0-0.7,0.7-1.3,0-1.3c-0.7-0.7-0.7,0.7-1.3,0.7
					c-6.5,5.2-13,10.4-19.5,15.6c-0.7,0.7-0.7,1.3-1.3,2c-3.9,16.9-7.2,34.5-11.1,51.4c-2,7.8-7.8,13-15,12.4
					c-8.5,0-15-8.5-13.7-16.9c4.6-20.8,9.1-41,13.7-61.8c0.7-3.3,2.6-5.9,4.6-7.8c20.8-16.9,41.7-33.9,62.5-50.8
					c19.5-15,41-5.2,48.8,10.4c10.4,19.5,20.2,39.7,29.9,59.2c0.7,1.3,1.3,2.6,2.6,3.3c13.7,9.1,27.3,18.9,41,28
					c4.6,3.3,7.2,8.5,5.9,13.7c-0.7,5.9-4.6,10.4-11.1,11.7c-4.6,1.3-8.5,0-11.7-2.6c-15.6-10.4-30.6-21.5-46.2-31.9
					c-2-1.3-3.3-3.3-4.6-5.2C334.6,365.9,331.4,358.7,327.5,350.3z"/>
			</g>
			<g>
				
					<rect id="XMLID_4_" x="359.9" y="121.2" transform="matrix(-0.993 -0.1181 0.1181 -0.993 856.5936 392.7175)" class="st3" width="160.1" height="99.6"/>
				<g>
					<g>
						
							<rect id="XMLID_3_" x="381.3" y="162.3" transform="matrix(-0.993 -0.1181 0.1181 -0.993 825.3228 381.8875)" class="st1" width="85.3" height="8.5"/>
					</g>
					<g>
						<g>
							<path id="XMLID_2_" class="st1" d="M497.4,175.2c-15.6,3.9-34.5,11.1-46.9,19.5l11.7-23.4l-5.9-25.4
								C466.1,156.3,483.1,168,497.4,175.2z"/>
						</g>
					</g>
				</g>
				<polygon id="XMLID_1_" class="st4" points="415.3,399.8 396.5,397.2 427.1,209.7 445.9,211.6 				"/>
			</g>
		</g>
	</g>
</g>
</svg>
