<?xml version="1.0" encoding="utf-8"?>
<!-- Generator: Adobe Illustrator 19.0.0, SVG Export Plug-In . SVG Version: 6.00 Build 0)  -->
<svg version="1.1" id="Layer_1" xmlns="http://www.w3.org/2000/svg" xmlns:xlink="http://www.w3.org/1999/xlink" x="0px" y="0px"
	 viewBox="0 0 612 792" style="enable-background:new 0 0 612 792;" xml:space="preserve">
<style type="text/css">
	.st0{fill:#959594;}
	.st1{fill:#FFFFFF;}
	.st2{fill:#020202;}
	.st3{fill:#030303;}
</style>
<g>
	<path id="XMLID_36_" class="st0" d="M573.7,473.9c24.1-43,37.8-91.9,37.8-144.1c0-165.6-136.9-300.5-305.8-300.5S0,163.6,0,329.9
		c0,50.9,13,99.1,35.9,140.8l0,0l0,0c18.3,33.9,43,63.9,72.4,88l151.9,185.2c20.9,25.4,59.3,25.4,80.2,0.7l154.5-179.9
		C527.4,539.8,554.1,509.1,573.7,473.9L573.7,473.9L573.7,473.9z"/>
	<path id="XMLID_35_" class="st1" d="M552.2,335.1c0,138.2-111.5,249-249.7,249c-137.6,0-249-113.4-248.4-249.7
		C54.8,199.5,162.3,86,303.2,86C443.3,85.4,552.8,198.2,552.2,335.1z"/>
</g>
<g>
	<path class="st2" d="M273.8,391.8c0-1.3,0.7-2,0.7-3.3c2-3.9,3.9-7.2,6.5-10.4c-2,0-3.9,0-5.9,0c-3.3,0-5.2-2-5.2-5.2
		c0-2,0-4.6,0-7.2c0-3.3,2-5.2,5.2-5.2h3.3c4.6,0,9.1,0,13.7,0h0.7c0,0,0,0,0-0.7c0.7-2.6,2-5.2,2.6-7.8s2-5.2,2.6-7.8
		c-18.3,0-37.2,0-55.4,0c-34.6,0-68.5,0-103,0c-2,0-2,0.7-2,2c0,18.3,0,37.2,0,55.4c0,2.6,0,5.2,1.3,7.8
		c3.3,8.5,11.1,13.7,20.9,13.7c30,0,60.6,0,90.6,0c7.8,0,15,0,22.8,0c0-1.3,0-2,0-3.3C273.8,410.7,273.8,400.9,273.8,391.8z
		 M174.1,385.9c-9.8,0-17.6-7.8-17.6-17c0-9.8,7.8-17.6,17.6-17.6c9.8,0,17.6,7.8,17.6,17.6C191.7,378.8,183.8,385.9,174.1,385.9z"
		/>
	<path class="st2" d="M242.5,325.3c-28.7,0-56.7,0-85.4,0c-2,0-2.6-0.7-2.6-2.6c0-26.7,0-52.8,0-79.5c0-2,0.7-2,2-2
		c57.4,0,114.7,0,171.5,0c2,0,2,0.7,2,2c0,18.9,0,37.2,0,56.1c2-0.7,3.3-0.7,5.2-0.7l0,0c3.9,0,7.8,0,11.7,0c0-25.4,0-50.9,0-76.3
		c0-1.3,0-3.3-0.7-4.6c-2-9.8-10.4-17-20.9-17c-55.4,0-110.8,0-166.2,0c-12.4,0-22.2,9.1-22.2,22.2c0,37.8,0,75,0,112.8
		c0,2,0.7,2.6,2.6,2.6c33.9,0,68.5,0,102.4,0c18.9,0,38.5,0,57.4,0c1.3-4.6,3.3-9.1,5.2-13C284.2,325.3,263.4,325.3,242.5,325.3z
		 M198.2,229.5c0-5.2,0-9.8,0-15c0-1.3,0-1.3,1.3-1.3c28.7,0,56.7,0,85.4,0c1.3,0,1.3,0.7,1.3,1.3c0,5.2,0,10.4,0,15
		c0,1.3-0.7,2-2,2c-14.3,0-28,0-42.4,0c-13.7,0-28,0-41.7,0C198.8,231.4,198.2,231.4,198.2,229.5z"/>
	<path id="XMLID_30_" class="st2" d="M206.7,427.7c-7.8,0-15,0-22.8,0c-7.8,0-15,0-22.8,0c-1.3,0-2,0-2,2c0,4.6,0,8.5,0,13
		c0,5.2,3.9,9.8,9.1,9.8c10.4,0,20.9,0,30.6,0c5.9,0,9.1-3.9,9.1-9.1c0-4.6,0-8.5,0-13C208.6,428.3,208,427.7,206.7,427.7z"/>
	<path id="XMLID_29_" class="st3" d="M130.4,269.9c-2.6,0-5.9,0-8.5,0c-4.6,0.7-6.5,3.3-6.5,7.2c0,11.1,0,22.2,0,33.2
		c0,4.6,2.6,7.2,7.2,7.8c2.6,0,4.6,0,7.2,0c1.3,0,2-0.7,2-2c0-7.2,0-15,0-22.2c0-7.2,0-15,0-22.2C131,270.5,131.7,269.9,130.4,269.9
		z"/>
	<path id="XMLID_28_" class="st3" d="M369.7,277.1c0-4.6-2.6-7.2-6.5-7.2c-2.6,0-5.2,0-7.2,0c-1.3,0-2,0.7-2,2c0,7.2,0,15,0,22.2
		c0,2,0,3.9,0,5.2c5.2,0,10.4,0,15.6,0C369.7,292,369.7,284.9,369.7,277.1z"/>
	<path id="XMLID_27_" class="st1" d="M174.1,352c-9.8,0-17.6,7.8-17.6,17.6c0,9.1,7.8,17,17.6,17c9.8,0,17.6-7.8,17.6-17
		C191.7,359.9,183.8,351.4,174.1,352z"/>
	<path id="XMLID_26_" class="st1" d="M326.6,301.2c1.3-0.7,2.6-1.3,3.9-1.3c0-18.9,0-37.2,0-56.1c0-2-0.7-2-2-2
		c-57.4,0-114.7,0-171.5,0c-2,0-2,0.7-2,2c0,26.7,0,52.8,0,79.5c0,2,0.7,2.6,2.6,2.6c28.7,0,56.7,0,85.4,0c20.9,0,41.7,0,62.6,0
		c0.7-1.3,0.7-2,1.3-3.3C309.7,313.6,316.8,306.4,326.6,301.2z"/>
	<path id="XMLID_25_" class="st1" d="M200.8,231.4c13.7,0,28,0,41.7,0c14.3,0,28,0,42.4,0c1.3,0,2,0,2-2c0-5.2,0-10.4,0-15
		c0-1.3,0-1.3-1.3-1.3c-28.7,0-56.7,0-85.4,0c-1.3,0-1.3,0.7-1.3,1.3c0,5.2,0,9.8,0,15C198.2,231.4,198.8,231.4,200.8,231.4z"/>
	<path id="XMLID_24_" class="st2" d="M285.5,452.4c-3.9,0-6.5-2-7.8-4.6c0,5.9,0,11.1,0,17c0,3.9,3.3,7.8,7.2,9.1
		c2,0.7,4.6,0.7,7.2,0.7c1.3,0,2,0,3.3,0l0,0c2.6,0,5.2-0.7,7.2-2.6c2-2,2.6-4.6,2.6-7.2c0-1.3,0-2,0-3.3c0-2.6,0-5.9,0-8.5
		C298.6,452.4,292.1,452.4,285.5,452.4z"/>
	<path id="XMLID_23_" class="st2" d="M318.1,339c-4.6,0-9.1,0-13,0c-0.7,2-1.3,3.9-2,5.2c4.6,0,9.1,0,13.7,0
		C316.8,342.2,317.5,340.3,318.1,339z"/>
	<path id="XMLID_22_" class="st2" d="M347.5,317.5c2,0,4.6,0,6.5,0c0,0,0-0.7,0-1.3c0-4.6,0-8.5,0-13c-2,0-4.6,0-6.5,0
		C347.5,308.3,347.5,312.9,347.5,317.5z"/>
	<path class="st2" d="M365.1,317.5c18.9,0,37.8,0,57.4,0c3.9,0,7.2,1.3,9.8,3.9c2.6,2,3.9,4.6,5.2,7.8c3.9,11.7,7.8,23.5,11.7,34.6
		c0,0.7,0,1.3,0.7,1.3c-33.9,0-67.8,0-102.4,0c0,11.7,0,23.5,0,35.9c0,13-9.1,22.2-22.8,22.2c-15.6,0-31.3,0-47.6,0
		c0,1.3,0,3.3,0,4.6h0.7c7.8,0,15,0,22.8,0s15,0,22.8,0c1.3,0,2,0.7,2,2c0,4.6,0,8.5,0,13c0,2-0.7,3.3-1.3,4.6c15,0,30.6,0,45.6,0
		H384h13c17,0,34.6,0,51.5,0c0.7,0,2,0,3.3,1.3c1.3,1.3,0.7,2.6,0.7,3.3c0,4.6,0,9.1,0,13c0,4.6,3.3,7.8,7.2,9.1
		c2,0.7,3.9,0.7,5.9,0c1.3,0,2.6,0,3.9,0c2.6,0,5.2-0.7,7.2-2.6c2-2,3.3-5.2,3.3-7.8c0-17,0-33.9-0.7-50.9c0-3.9,0-7.8,0-11.7l0,0
		c0-11.1,0-11.1-6.5-19.6c0-0.7-0.7-0.7-0.7-0.7c-0.7-0.7-0.7-0.7-1.3-1.3l0,0c-0.7-0.7-1.3-1.3-1.3-2.6l0.7-2h4.6
		c2.6,0,4.6,0,7.2,0c0.7,0,1.3,0,1.3-1.3c0-2,0-3.9,0-5.9v-1.3c0-0.7,0-0.7,0-1.3h-0.7h-3.3c-4.6,0-9.1,0-14.3,0
		c-2,0-3.3-0.7-3.9-2.6c-2-6.5-4.6-12.4-7.2-18.9l-1.3-3.3c-0.7-2-1.3-3.9-2-5.2c-1.3-3.9-2.6-7.8-4.6-11.7
		c-4.6-8.5-11.1-15-20.2-18.3c-0.7-0.7-2-0.7-2.6-0.7l0,0h-7.8c-15,0-30.6,0-46.3,0c0,2,0,4.6,0,6.5
		C369.7,314.2,368.3,316.8,365.1,317.5z M458.3,404.8c0,7.2-5.9,13-13,13c-7.2,0-13-5.9-13-13s5.9-13,13-13
		C452.4,391.8,458.3,397.7,458.3,404.8z"/>
	<path class="st2" d="M325.3,423.7c13,0,22.8-9.8,22.8-22.2c0-11.7,0-23.5,0-35.9c-6.5,0-13,0-18.9,0c0,1.3,0.7,2.6,0.7,3.9
		c0,9.1-7.8,17-17.6,17s-17.6-7.2-17.6-16.3c0-2,0-3.9,0.7-5.9c-0.7,0.7-1.3,0.7-2.6,0.7c-4.6,0-9.1,0-13.7,0h-3.3
		c-0.7,0-0.7,0-0.7,0s0,0,0,0.7c0,2.6,0,5.2,0,7.2c0,1.3,0,1.3,1.3,1.3c2.6,0,4.6,0,7.2,0h3.3h4.6l-2.6,3.3
		c-3.3,4.6-6.5,9.1-9.1,13.7c0,0.7-0.7,0.7-0.7,1.3c0,9.8,0,18.9,0,28.7c0,1.3,0,2,0,3.3C293.4,423.7,309,423.7,325.3,423.7z
		 M312.9,391.8c7.2,0,13,5.9,13,13s-5.9,13-13,13s-13-5.9-12.4-13C299.9,397.7,305.8,391.8,312.9,391.8z"/>
	<path id="XMLID_17_" class="st2" d="M311,352c0.7,0,1.3,0,2.6,0c0.7-1.3,0.7-2.6,1.3-3.3c0.7-1.3,0.7-2.6,1.3-3.9
		c-4.6,0-9.1,0-13.7,0c-1.3,3.3-2,6.5-3.3,9.1c-0.7,1.3-1.3,3.3-1.3,4.6C300.5,354,305.8,352,311,352z"/>
	<path id="XMLID_16_" class="st2" d="M321.4,328.6c0.7-1.3,0.7-2,1.3-3.3c-4.6,0-9.1,0-13,0c-2,4.6-3.3,8.5-5.2,13c4.6,0,9.1,0,13,0
		C319.5,335.1,320.1,331.8,321.4,328.6z"/>
	<path id="XMLID_15_" class="st2" d="M333.1,318.1c0.7,0,2,0,2.6,0c3.9,0,7.8,0,11.7,0c0-4.6,0-9.1,0-13.7c-3.9,0-7.8,0-11.7,0l0,0
		c-2,0-3.9,0-5.2,0.7c0,4.6,0,9.8,0,14.3C331.8,318.1,332.5,318.1,333.1,318.1z"/>
	<path id="XMLID_14_" class="st2" d="M326,429.6c0-1.3-0.7-2-2-2c-7.8,0-15,0-22.8,0s-15,0-22.8,0c-0.7,0-0.7,0-0.7,0
		c0,6.5,0,13,0,19.6c1.3,2.6,4.6,4.6,7.8,4.6c6.5,0,12.4,0,18.9,0v-0.7c0-1.3,0-2,0.7-3.3c0.7-0.7,2-1.3,3.3-1.3
		c5.2,0,10.4,0,16.3,0c0.7-1.3,1.3-3.3,1.3-4.6C326,438.7,326,434.2,326,429.6z"/>
	<path id="XMLID_13_" class="st2" d="M354,316.2c0,0.7,0,0.7,0,1.3c3.9,0,7.2,0,11.1,0c3.3-1.3,4.6-3.3,4.6-7.2c0-2,0-4.6,0-6.5
		c-5.2,0-10.4,0-15.6,0C354,307.7,354,312.3,354,316.2z"/>
	<path id="XMLID_12_" class="st2" d="M311,385.9c9.8,0,17.6-7.8,17.6-17c0-1.3,0-2.6-0.7-3.9c-6.5,0-13,0-19.6,0
		c1.3-4.6,3.3-9.1,4.6-13.7c-0.7,0-1.3,0-2.6,0c-5.2,0-10.4,2.6-13.7,6.5c-0.7,1.3-0.7,2-1.3,3.3c-0.7,1.3-1.3,2-2,2.6
		c-0.7,2-0.7,3.9-0.7,5.9C293.4,378.8,301.8,385.9,311,385.9z"/>
	<path id="XMLID_11_" class="st2" d="M330.5,318.8c0-4.6,0-9.8,0-14.3c-0.7,0-1.3,0.7-2,0.7c-9.1,4.6-15,10.4-18.3,18.9
		c0,0.7-0.7,0.7-0.7,1.3c4.6,0,9.1,0,13,0C324.7,322.7,327.3,320.1,330.5,318.8z"/>
	<path id="XMLID_10_" class="st1" d="M327.9,303.1c1.3-0.7,2-0.7,3.3-1.3c0-0.7,0-1.3,0-2c-1.3,0.7-2.6,0.7-3.9,1.3
		c-9.8,4.6-17,11.7-20.2,20.9c-0.7,1.3-0.7,2-1.3,3.3c0.7,0,1.3,0,2,0c0-0.7,0.7-1.3,0.7-2C311.6,314.2,318.8,307.7,327.9,303.1z"/>
	<path id="XMLID_9_" class="st1" d="M310.3,324c3.3-7.8,9.1-14.3,18.3-18.9c0.7-0.7,1.3-0.7,2-0.7c0-0.7,0-1.3,0-2
		c-1.3,0-2,0.7-3.3,1.3c-9.1,4.6-15.6,11.1-19.6,20.2c0,0.7-0.7,1.3-0.7,2c0.7,0,1.3,0,2,0C309.7,325.3,309.7,324.6,310.3,324z"/>
	<path id="XMLID_8_" class="st1" d="M344.9,339c-9.1,0-18.3,0-27.4,0c-0.7,2-1.3,3.9-2,5.2c9.8,0,19.6,0,29.3,0c2,0,2.6,0.7,2.6,2.6
		c0,6.5,0,12.4,0,18.9c33.9,0,67.8,0,102.4,0c0-0.7-0.7-1.3-0.7-1.3c-3.9-11.7-7.8-23.5-11.7-34.6c-1.3-3.3-2.6-5.9-5.2-7.8
		c-2.6-2.6-5.9-3.9-9.8-3.9c-18.9,0-37.8,0-57.4,0c-0.7,0-1.3,0.7-2.6,0.7c-2.6,0-4.6,0-7.2,0c-0.7,0-1.3,0-1.3-0.7
		c-2,0-4.6,0-6.5,0c0,6.5,0,12.4,0,18.9C347.5,338.3,346.8,339,344.9,339z"/>
	<path id="XMLID_7_" class="st1" d="M344.9,344.2c-9.8,0-19.6,0-29.3,0c-0.7,1.3-0.7,2.6-1.3,3.9c-0.7,1.3-0.7,2.6-1.3,3.3
		c7.2,0.7,13.7,6.5,15,13.7c6.5,0,13,0,18.9,0c0-6.5,0-12.4,0-18.9C347.5,344.2,346.8,344.2,344.9,344.2z"/>
	<path id="XMLID_6_" class="st1" d="M333.1,318.1c-0.7,0-2,0.7-2.6,0.7c0,1.3,0,3.3,0,4.6c0,2-0.7,2-2,2c-2,0-3.9,0-5.2,0
		c-0.7,0.7-0.7,2-1.3,3.3c-1.3,3.3-2.6,6.5-3.9,10.4c9.1,0,18.3,0,27.4,0c2,0,2.6,0,2.6-2c0-6.5,0-12.4,0-18.9c-3.9,0-7.8,0-11.7,0
		C335.1,317.5,334.4,317.5,333.1,318.1z"/>
	<path id="XMLID_5_" class="st1" d="M356,318.1c2.6,0,4.6,0,7.2,0c0.7,0,2,0,2.6-0.7c-3.9,0-7.2,0-11.1,0
		C354,318.1,354.7,318.1,356,318.1z"/>
	<path id="XMLID_4_" class="st1" d="M313.6,352c-1.3,4.6-3.3,9.1-4.6,13.7c6.5,0,13,0,19.6,0C326.6,358.5,320.8,352.7,313.6,352z"/>
	<path id="XMLID_3_" class="st1" d="M330.5,323.3c0-1.3,0-3.3,0-4.6c-3.3,1.3-5.9,3.9-7.8,7.2c2,0,3.9,0,5.2,0
		C330.5,325.3,330.5,325.3,330.5,323.3z"/>
	<path id="XMLID_2_" class="st1" d="M312.9,417.9c7.2,0,13-5.9,13-13s-5.9-13-13-13s-13,5.9-13,13
		C299.9,412,305.8,417.9,312.9,417.9z"/>
	<path id="XMLID_1_" class="st1" d="M432.9,404.8c0,7.2,5.9,13,13,13c7.2,0,13-5.9,13-13s-5.9-13-13-13
		C438.1,391.8,432.9,397.7,432.9,404.8z"/>
</g>
</svg>
