<?xml version="1.0" encoding="utf-8"?>
<!-- Generator: Adobe Illustrator 19.0.0, SVG Export Plug-In . SVG Version: 6.00 Build 0)  -->
<svg version="1.1" id="Layer_1" xmlns="http://www.w3.org/2000/svg" xmlns:xlink="http://www.w3.org/1999/xlink" x="0px" y="0px"
	 viewBox="0 0 612 792" style="enable-background:new 0 0 612 792;" xml:space="preserve">
<style type="text/css">
	.st0{fill:#6B4597;}
	.st1{fill:#FFFFFF;}
	.st2{fill:#020202;}
	.st3{fill:#817D7D;}
</style>
<g>
	<path id="XMLID_4_" class="st0" d="M573.6,473.2c24.1-43,37.7-91.8,37.7-143.8c0-165.3-136.7-300-305.2-300S0.8,163.4,0.8,329.4
		c0,50.8,13,98.9,35.8,140.6l0,0l0,0c18.2,33.8,43,63.8,72.2,87.9l151.6,184.8c20.8,25.4,59.2,25.4,80.1,0.7l154.3-179.6
		C527.3,538.9,554,508.3,573.6,473.2L573.6,473.2L573.6,473.2z"/>
	<path id="XMLID_3_" class="st1" d="M552.1,334.6c0,138-111.3,248.6-249.3,248.6c-137.3,0-248.6-113.2-248-249.3
		c0.7-134.7,108-248,248.6-248C443.4,85.3,552.1,197.9,552.1,334.6z"/>
</g>
<g>
	<path id="XMLID_2_" class="st2" d="M257.9,499.2c-0.7,0.7-0.7,2.6-2,2.6c-1.3,0-1.3-2-1.3-2.6c-0.7-5.9,0.7-11.1,1.3-16.3
		c0-2.6,0.7-5.2-3.3-3.3c-3.3,1.3-2.6-1.3-2.6-2.6c0.7-8.5,1.3-17.6,5.2-26c0.7-1.3,1.3-2,0.7-3.3c-1.3-1.3-2.6,1.3-4.6,0
		c1.3-3.9,3.3-8.5,5.2-11.7c3.3-5.2,5.9-11.1,7.8-16.9c0.7-1.3,0.7-2,0-2.6c-4.6-8.5-5.9-16.9-3.9-26.7c0.7-2,0-3.3-2-4.6
		c-3.3-3.3-7.2-6.5-11.7-7.8c-19.5-7.2-26-16.9-26.7-43c0-2.6,0.7-2.6,3.3-2.6c13.7,3.3,24.7,10.4,35.8,18.9c1.3,0.7,2.6,2,3.3,2.6
		c0,0,0.7,0,1.3,0c0.7-4.6-0.7-8.5-3.3-11.7c-5.9-7.2-13-11.7-21.5-15.6c-5.2-2-10.4-1.3-16.3-0.7c-7.2,0.7-13.7,2-20.8,2
		c-7.8,0.7-18.2-8.5-18.9-16.3c4.6,2,7.2,4.6,11.1,7.2c5.9,3.9,11.1,3.3,16.9,0.7c4.6-2,5.2-4.6,3.3-8.5
		c-7.8-14.3-19.5-24.7-33.8-31.9c-9.1-4.6-18.2-7.8-28-11.1c-2-0.7-3.9-1.3-5.9-2.6c2.6-2,5.2-2,8.5-2.6c-4.6-9.8-4.6-20.2-4.6-31.9
		c2.6,3.3,2.6,6.5,3.9,9.1c2.6,7.2,5.2,14.3,9.8,20.2c3.9,4.6,8.5,7.8,15,8.5c3.9,0,6.5-1.3,6.5-5.9c0-6.5,1.3-13.7,0-20.2
		c-0.7-5.9-2-11.1-5.2-15.6c-5.2-9.1-9.8-27.3-8.5-36.4c2.6,2.6,2,5.2,3.3,7.8c1.3,3.9,2,7.8,3.3,11.1c2,5.2,3.9,5.9,7.8,1.3
		c4.6-6.5,8.5-13.7,13-20.2c2.6-3.9,4.6-7.8,7.2-11.7c1.3-1.3,2-3.3,4.6-3.9c0.7,3.3-0.7,5.9-2,8.5c-4.6,9.8-9.8,19.5-15,29.9
		c-2,4.6-3.3,9.1-3.3,13.7c0,2,0,4.6,2,5.2c2,0.7,3.3-1.3,4.6-3.3c4.6-9.8,9.1-19.5,14.3-29.3c1.3-2.6,2-5.2,5.2-8.5
		c-2.6,13.7-6.5,26-11.7,37.7c-3.3,7.2-7.8,13.7-8.5,21.5c-0.7,7.8,0,15,3.9,21.5c7.8,12.4,16.3,24.7,26.7,35.8
		c3.3,3.3,4.6,2.6,5.9-1.3c1.3-3.3,2.6-6.5,4.6-9.8c1.3,3.3,0.7,7.2,0,10.4c-0.7,5.2,0.7,8.5,5.2,10.4c6.5,3.3,13,6.5,18.9,11.1
		c2,1.3,2,0,2.6-1.3c1.3-3.9,2-8.5,2.6-12.4c0-1.3,0.7-3.3,2-4.6c1.3,4.6,0.7,8.5,0,11.7c-1.3,13,7.8,20.8,16.3,29.3
		c1.3,1.3,2,0.7,3.3,0.7c7.8-3.3,16.3-2.6,24.7,0c2.6,0.7,3.9,0.7,5.9-1.3c5.2-4.6,9.1-10.4,13-16.3c2.6-3.9,1.3-9.1,1.3-13.7
		c0-3.3-0.7-6.5,1.3-11.1c1.3,6.5,2.6,12.4,3.9,17.6c0.7,2.6,1.3,3.3,3.9,1.3c5.2-3.9,11.1-6.5,16.9-9.8c4.6-2.6,7.2-5.9,6.5-11.1
		c-0.7-3.3-0.7-6.5-0.7-11.7c3.3,3.9,3.9,7.8,5.9,11.1c1.3,3.3,2.6,3.9,5.2,1.3c12.4-12.4,22.8-26,29.9-41.7c4.6-9.1,2.6-18.9-2-28
		c-5.9-12.4-11.7-24.7-14.3-37.7c-0.7-3.3-2-5.9-1.3-11.1c4.6,10.4,9.1,19.5,13.7,28c2,3.3,3.3,7.2,5.2,10.4c0.7,1.3,2,2.6,3.9,2
		c2-0.7,2-2,2-3.9c0-4.6-0.7-9.1-2.6-13c-5.2-10.4-10.4-20.8-15.6-31.2c-1.3-2.6-2.6-5.2-2.6-8.5c3.3,0,3.9,2.6,5.2,3.9
		c4.6,7.2,8.5,14.3,13,21.5c2,2.6,3.3,5.9,5.2,8.5c1.3,2,2.6,5.2,5.2,5.2c3.3-0.7,3.9-3.9,4.6-7.2c2-5.2,2.6-11.1,5.2-16.3
		c0.7,11.7-1.3,23.4-7.2,33.8c-6.5,10.4-7.2,21.5-6.5,33.2c0,0.7,0,2,0,2.6c-0.7,8.5,3.9,9.1,11.1,7.2c5.9-1.3,9.8-5.9,12.4-10.4
		c3.9-6.5,6.5-13.7,9.1-20.8c0.7-1.3,0.7-3.3,2.6-5.9c0,11.7-0.7,22.1-4.6,31.9c2.6,1.3,6.5,0.7,9.8,3.3c-4.6,2.6-8.5,3.3-13,5.2
		c-16.9,5.9-32.5,12.4-44.9,26c-3.9,4.6-7.8,9.8-10.4,15c-1.3,2.6-0.7,3.9,1.3,5.9c4.6,3.9,12.4,4.6,17.6,1.3
		c3.9-2.6,7.2-5.9,11.7-7.8c-1.3,7.8-10.4,16.3-18.2,16.3c-8.5-0.7-16.9-1.3-25.4-2.6c-3.9-0.7-7.2,0-11.1,1.3
		c-9.1,3.9-16.3,9.1-22.8,16.9c-2.6,3.3-3.9,6.5-3.3,11.1c5.2-3.9,10.4-7.2,15-11.1c7.8-5.9,16.3-9.1,25.4-11.7
		c3.3-0.7,3.9,0,3.9,3.3c-0.7,7.2-1.3,13.7-3.3,20.2c-3.3,10.4-10.4,16.9-20.2,20.8c-5.9,2-11.1,4.6-15,9.1c-1.3,1.3-2,2.6-1.3,5.2
		c2.6,7.8,1.3,16.3-1.3,23.4c-2,7.2,0,12.4,3.9,17.6c2,2,3.9,4.6,4.6,7.2c0.7,2,3.9,4.6-0.7,5.9c0,0,0.7,2,0.7,3.3
		c1.3,3.9,3.3,7.8,3.9,13c-4.6-3.3-4.6-1.3-3.9,2.6c1.3,9.1,3.3,18.2,4.6,27.3c0,2,0.7,3.9-0.7,5.9c-0.7-0.7-1.3-2-2-3.3
		c-0.7,0.7-0.7,1.3-0.7,2c-0.7,5.2,0.7,9.8-0.7,15c0,1.3,0,3.3-2,2.6c-4.6-1.3-5.2,2.6-6.5,5.2c-0.7,2-1.3,4.6-2,6.5
		c-0.7,2-1.3,4.6-3.9,2c-2-2-3.3,0.7-3.9,2c-3.3,4.6-3.9,9.8-5.9,15.6c-3.9-3.9-5.9-2-8.5,1.3c-3.3,4.6-7.2,9.1-10.4,13.7
		c-5.2,5.9-5.2,5.9-7.8-1.3c-1.3-2.6-2-5.9-3.9-7.8c-2.6,3.9-3.9,2.6-5.9-0.7c-2-3.9-4.6-7.8-7.2-11.1c-2.6-3.3-5.2-6.5-8.5-10.4
		c-0.7,2-0.7,3.3-0.7,4.6c-0.7,0-0.7,0-1.3,0.7c-6.5-9.8-13-19.5-13.7-32.5C259.2,500.5,259.8,499.2,257.9,499.2z"/>
	<path id="XMLID_1_" class="st3" d="M257.9,499.2c0-0.7,0.7-2,1.3-1.3c1.3,1.3,0.7,2.6,0,3.3C258.5,500.5,259.2,499.9,257.9,499.2z"
		/>
</g>
</svg>
