<?xml version="1.0" encoding="utf-8"?>
<!-- Generator: Adobe Illustrator 19.0.0, SVG Export Plug-In . SVG Version: 6.00 Build 0)  -->
<svg version="1.1" id="Layer_1" xmlns="http://www.w3.org/2000/svg" xmlns:xlink="http://www.w3.org/1999/xlink" x="0px" y="0px"
	 viewBox="0 0 612 792" style="enable-background:new 0 0 612 792;" xml:space="preserve">
<style type="text/css">
	.st0{fill:#E4232F;}
	.st1{fill:#FFFFFF;}
	.st2{fill:#020202;}
</style>
<g>
	<path id="XMLID_27_" class="st0" d="M572.6,473.6c24-42.8,37.6-91.4,37.6-143.3c0-164.7-136.2-299-304.1-299S2,164.9,2,330.3
		c0,50.6,13,98.6,35.7,140.1l0,0l0,0c18.2,33.7,42.8,63.6,72,87.5l151.1,184.2c20.8,25.3,59,25.3,79.8,0.6l153.7-179
		C526.6,539.1,552.5,508.6,572.6,473.6L572.6,473.6L572.6,473.6z"/>
	<path id="XMLID_26_" class="st1" d="M551.2,335.4c0,137.5-110.9,247.7-248.4,247.7C166,583.2,55.1,470.3,55.8,334.8
		C56.4,200.6,163.4,87.7,303.5,87.7C442.9,87.1,551.2,199.3,551.2,335.4z"/>
</g>
<g>
	<rect id="XMLID_25_" x="214.7" y="199.9" class="st2" width="177" height="293.1"/>
	<rect id="XMLID_24_" x="214.7" y="177.9" class="st2" width="177" height="20.1"/>
	<rect id="XMLID_23_" x="195.9" y="482.7" class="st2" width="215.3" height="20.1"/>
	<rect id="XMLID_22_" x="238.7" y="158.4" class="st2" width="128.4" height="20.1"/>
	<rect id="XMLID_21_" x="278.2" y="454.8" class="st1" width="50.6" height="20.1"/>
	<g>
		<g>
			<rect id="XMLID_20_" x="225.7" y="221.3" class="st1" width="29.8" height="29.8"/>
			<rect id="XMLID_19_" x="266.5" y="221.3" class="st1" width="29.8" height="29.8"/>
			<rect id="XMLID_18_" x="307.4" y="221.3" class="st1" width="29.8" height="29.8"/>
			<rect id="XMLID_17_" x="348.9" y="221.3" class="st1" width="29.8" height="29.8"/>
		</g>
		<g>
			<rect id="XMLID_16_" x="225.7" y="267.4" class="st1" width="29.8" height="29.8"/>
			<rect id="XMLID_15_" x="266.5" y="267.4" class="st1" width="29.8" height="29.8"/>
			<rect id="XMLID_14_" x="307.4" y="267.4" class="st1" width="29.8" height="29.8"/>
			<rect id="XMLID_13_" x="348.9" y="267.4" class="st1" width="29.8" height="29.8"/>
		</g>
		<g>
			<rect id="XMLID_12_" x="225.7" y="313.4" class="st1" width="29.8" height="29.8"/>
			<rect id="XMLID_11_" x="266.5" y="313.4" class="st1" width="29.8" height="29.8"/>
			<rect id="XMLID_10_" x="307.4" y="313.4" class="st1" width="29.8" height="29.8"/>
			<rect id="XMLID_9_" x="348.9" y="313.4" class="st1" width="29.8" height="29.8"/>
		</g>
		<g>
			<rect id="XMLID_8_" x="225.7" y="358.8" class="st1" width="29.8" height="29.8"/>
			<rect id="XMLID_7_" x="266.5" y="358.8" class="st1" width="29.8" height="29.8"/>
			<rect id="XMLID_6_" x="307.4" y="358.8" class="st1" width="29.8" height="29.8"/>
			<rect id="XMLID_5_" x="348.9" y="358.8" class="st1" width="29.8" height="29.8"/>
		</g>
		<g>
			<rect id="XMLID_4_" x="225.7" y="404.8" class="st1" width="29.8" height="29.8"/>
			<rect id="XMLID_3_" x="266.5" y="404.8" class="st1" width="29.8" height="29.8"/>
			<rect id="XMLID_2_" x="307.4" y="404.8" class="st1" width="29.8" height="29.8"/>
			<rect id="XMLID_1_" x="348.9" y="404.8" class="st1" width="29.8" height="29.8"/>
		</g>
	</g>
</g>
</svg>
