<?xml version="1.0" encoding="utf-8"?>
<!-- Generator: Adobe Illustrator 19.0.0, SVG Export Plug-In . SVG Version: 6.00 Build 0)  -->
<svg version="1.1" id="Layer_1" xmlns="http://www.w3.org/2000/svg" xmlns:xlink="http://www.w3.org/1999/xlink" x="0px" y="0px"
	 viewBox="0 0 612 792" style="enable-background:new 0 0 612 792;" xml:space="preserve">
<style type="text/css">
	.st0{fill:#C5C42F;}
	.st1{fill:#FFFFFF;}
	.st2{fill:#010101;}
</style>
<g id="XMLID_19_">
	<g id="XMLID_21_">
		<path id="XMLID_9_" class="st0" d="M340.5,730.4l231.4-269l-534.7-3.2l223.6,271.6C280.9,754.4,319.1,755,340.5,730.4z"/>
		<ellipse id="XMLID_8_" class="st0" cx="304.9" cy="317.5" rx="304" ry="298.8"/>
	</g>
	<path id="XMLID_7_" class="st1" d="M550.5,322.7c0,137.4-110.8,247.6-248.2,247.6C165.5,570.3,54.7,457.5,55.3,322
		C56,187.9,162.9,75.1,302.9,75.1C442.3,74.5,550.5,186.6,550.5,322.7z"/>
</g>
<g id="XMLID_11_">
	<rect id="XMLID_6_" x="172" y="166.5" class="st2" width="275.5" height="28.5"/>
	<rect id="XMLID_5_" x="174.6" y="229.4" class="st2" width="275.5" height="245.6"/>
	<rect id="XMLID_4_" x="149.3" y="195" class="st2" width="331.2" height="21.4"/>
	<g id="XMLID_12_">
		<rect id="XMLID_3_" x="213.5" y="285.1" class="st1" width="198.3" height="29.2"/>
		<rect id="XMLID_2_" x="224.5" y="327.9" class="st1" width="75.2" height="108.2"/>
		<rect id="XMLID_1_" x="325" y="327.9" class="st1" width="75.2" height="108.2"/>
	</g>
</g>
</svg>
